<svg width="293" height="152" viewBox="0 0 293 152" fill="none" xmlns="http://www.w3.org/2000/svg">
<g clip-path="url(#clip0)">
<path d="M59.1227 0.0220044H254.216C258.087 0.0220044 261.799 1.55976 264.537 4.29699C267.274 7.03421 268.812 10.7467 268.812 14.6177V133.769H44.4965V14.6177C44.4965 12.6984 44.875 10.798 45.6104 9.02513C46.3458 7.25232 47.4237 5.64194 48.7822 4.28621C50.1408 2.93047 51.7534 1.85599 53.5278 1.12429C55.3021 0.392576 57.2034 0.0180003 59.1227 0.0220044V0.0220044Z" fill="white"/>
<path d="M268.812 134.225H44.4965C44.3754 134.225 44.2592 134.177 44.1735 134.091C44.0879 134.006 44.0398 133.89 44.0398 133.768V14.6177C44.0425 10.6236 45.6303 6.79396 48.4545 3.96976C51.2787 1.14556 55.1083 -0.442258 59.1024 -0.444946H254.216C258.209 -0.439575 262.037 1.1491 264.861 3.97272C267.684 6.79634 269.273 10.6245 269.278 14.6177V133.768C269.276 133.891 269.225 134.007 269.138 134.092C269.051 134.177 268.934 134.225 268.812 134.225V134.225ZM44.9837 133.302H268.345V14.6177C268.342 10.8713 266.852 7.27914 264.203 4.63005C261.554 1.98097 257.962 0.49154 254.216 0.488852H59.1227C55.3754 0.491536 51.7822 1.98064 49.1315 4.62943C46.4808 7.27823 44.9891 10.8704 44.9837 14.6177V133.302Z" fill="#231F20"/>
<path d="M254.794 12.0092H58.5441V133.769H254.794V12.0092Z" fill="#68E1FD"/>
<path d="M287.508 134.286H25.8205C25.742 134.309 25.6593 134.312 25.579 134.298C25.4986 134.283 25.4229 134.249 25.3577 134.2C25.2925 134.151 25.2396 134.087 25.2031 134.014C25.1667 133.941 25.1477 133.86 25.1477 133.779C25.1477 133.697 25.1667 133.616 25.2031 133.543C25.2396 133.47 25.2925 133.406 25.3577 133.357C25.4229 133.308 25.4986 133.275 25.579 133.26C25.6593 133.245 25.742 133.249 25.8205 133.271H287.508C287.586 133.249 287.669 133.245 287.749 133.26C287.83 133.275 287.905 133.308 287.971 133.357C288.036 133.406 288.089 133.47 288.125 133.543C288.162 133.616 288.181 133.697 288.181 133.779C288.181 133.86 288.162 133.941 288.125 134.014C288.089 134.087 288.036 134.151 287.971 134.2C287.905 134.249 287.83 134.283 287.749 134.298C287.669 134.312 287.586 134.309 287.508 134.286V134.286Z" fill="#231F20"/>
<path d="M21.1921 133.769H292.136C292.136 138.076 290.425 142.206 287.38 145.252C284.334 148.298 280.203 150.009 275.896 150.009H37.3712C33.0641 150.009 28.9334 148.298 25.8878 145.252C22.8422 142.206 21.1312 138.076 21.1312 133.769H21.1921Z" fill="white"/>
<path d="M275.927 150.445H37.4016C32.9822 150.437 28.7462 148.677 25.6221 145.551C22.498 142.425 20.7407 138.188 20.7354 133.769C20.7353 133.646 20.7831 133.529 20.8685 133.442C20.9539 133.355 21.07 133.304 21.1921 133.302H292.136C292.259 133.304 292.376 133.354 292.463 133.441C292.55 133.528 292.601 133.646 292.603 133.769C292.598 138.19 290.839 142.428 287.713 145.555C284.586 148.681 280.348 150.44 275.927 150.445V150.445ZM21.6691 134.205C21.7931 138.299 23.5056 142.184 26.4441 145.037C29.3825 147.89 33.3161 149.487 37.4118 149.491H275.937C280.032 149.485 283.964 147.887 286.902 145.034C289.84 142.181 291.553 138.298 291.679 134.205H21.6691Z" fill="#231F20"/>
<path d="M178.639 133.769H134.7V137.818H178.639V133.769Z" fill="black"/>
<path d="M67.7197 24.1384C69.5303 24.1384 70.9982 22.6706 70.9982 20.8599C70.9982 19.0493 69.5303 17.5815 67.7197 17.5815C65.9091 17.5815 64.4413 19.0493 64.4413 20.8599C64.4413 22.6706 65.9091 24.1384 67.7197 24.1384Z" fill="#231F20"/>
<path d="M78.8238 24.1384C80.6344 24.1384 82.1022 22.6706 82.1022 20.8599C82.1022 19.0493 80.6344 17.5815 78.8238 17.5815C77.0132 17.5815 75.5453 19.0493 75.5453 20.8599C75.5453 22.6706 77.0132 24.1384 78.8238 24.1384Z" fill="white"/>
<path d="M89.938 24.1384C91.7487 24.1384 93.2165 22.6706 93.2165 20.8599C93.2165 19.0493 91.7487 17.5815 89.938 17.5815C88.1274 17.5815 86.6596 19.0493 86.6596 20.8599C86.6596 22.6706 88.1274 24.1384 89.938 24.1384Z" fill="white"/>
<path d="M121.271 71.0111C121.051 71.0125 120.832 70.9702 120.628 70.8866C120.425 70.8029 120.239 70.6796 120.084 70.5239C119.772 70.2069 119.598 69.7805 119.598 69.3363C119.598 68.8922 119.772 68.4657 120.084 68.1488L132.812 55.4207C133.127 55.1071 133.553 54.9314 133.998 54.9324C134.442 54.9333 134.868 55.1108 135.182 55.4258C135.495 55.7407 135.671 56.1673 135.67 56.6118C135.669 57.0563 135.492 57.4822 135.177 57.7958L122.449 70.5239C122.294 70.6784 122.11 70.801 121.908 70.8846C121.706 70.9682 121.49 71.0112 121.271 71.0111V71.0111Z" fill="white"/>
<path d="M133.999 71.0111C133.555 71.0117 133.128 70.8366 132.812 70.5239L120.084 57.7958C119.769 57.4822 119.591 57.0563 119.59 56.6118C119.589 56.1673 119.765 55.7407 120.078 55.4258C120.392 55.1108 120.818 54.9333 121.262 54.9324C121.707 54.9314 122.134 55.1071 122.449 55.4207L135.177 68.1488C135.412 68.3824 135.572 68.6805 135.637 69.0053C135.703 69.3301 135.671 69.667 135.545 69.9734C135.419 70.2799 135.204 70.542 134.929 70.7267C134.654 70.9114 134.331 71.0104 133.999 71.0111V71.0111Z" fill="white"/>
<path d="M179.39 71.0111C179.058 71.0124 178.733 70.9149 178.456 70.731C178.179 70.547 177.964 70.285 177.836 69.9781C177.709 69.6713 177.676 69.3335 177.741 69.0078C177.806 68.682 177.967 68.383 178.202 68.1488L190.931 55.4207C191.086 55.2654 191.271 55.1424 191.475 55.0586C191.679 54.9748 191.897 54.9319 192.117 54.9324C192.337 54.9328 192.555 54.9767 192.758 55.0613C192.961 55.146 193.145 55.2698 193.301 55.4258C193.456 55.5817 193.579 55.7667 193.663 55.9702C193.746 56.1737 193.789 56.3917 193.789 56.6118C193.788 56.8319 193.745 57.0497 193.66 57.2529C193.575 57.456 193.451 57.6405 193.295 57.7958L180.567 70.5239C180.413 70.6784 180.229 70.801 180.027 70.8846C179.825 70.9682 179.609 71.0112 179.39 71.0111V71.0111Z" fill="white"/>
<path d="M192.067 71.0111C191.847 71.0125 191.629 70.9702 191.425 70.8866C191.221 70.8029 191.036 70.6796 190.88 70.5239L178.152 57.7958C177.996 57.6405 177.872 57.456 177.787 57.2529C177.703 57.0497 177.659 56.8319 177.658 56.6118C177.658 56.3917 177.701 56.1737 177.785 55.9702C177.868 55.7667 177.991 55.5817 178.147 55.4258C178.302 55.2698 178.486 55.146 178.69 55.0613C178.893 54.9767 179.111 54.9328 179.331 54.9324C179.551 54.9319 179.769 54.9748 179.972 55.0586C180.176 55.1424 180.361 55.2654 180.517 55.4207L193.245 68.1488C193.48 68.3824 193.64 68.6805 193.706 69.0053C193.771 69.3301 193.739 69.667 193.613 69.9734C193.487 70.2799 193.273 70.542 192.997 70.7267C192.722 70.9114 192.399 71.0104 192.067 71.0111Z" fill="white"/>
<path d="M254.652 29.4062H58.676C58.5415 29.4062 58.4124 29.3528 58.3172 29.2576C58.222 29.1624 58.1685 29.0333 58.1685 28.8987C58.1685 28.7641 58.222 28.6351 58.3172 28.5399C58.4124 28.4447 58.5415 28.3912 58.676 28.3912H254.652C254.787 28.3912 254.916 28.4447 255.011 28.5399C255.106 28.6351 255.16 28.7641 255.16 28.8987C255.16 29.0333 255.106 29.1624 255.011 29.2576C254.916 29.3528 254.787 29.4062 254.652 29.4062Z" fill="white"/>
<path d="M98.7889 99.6849C98.2805 99.7489 97.7668 99.6182 97.3507 99.3193C96.9346 99.0203 96.647 98.575 96.5455 98.0728C96.4441 97.5706 96.5363 97.0486 96.8036 96.6115C97.071 96.1744 97.4937 95.8546 97.987 95.7162C116.543 87.8244 136.5 83.7568 156.664 83.7568C176.828 83.7568 196.786 87.8244 215.341 95.7162C215.591 95.8215 215.818 95.975 216.009 96.1679C216.199 96.3609 216.35 96.5894 216.452 96.8406C216.554 97.0918 216.606 97.3607 216.605 97.6319C216.603 97.903 216.548 98.1713 216.443 98.4212C216.337 98.6711 216.184 98.8978 215.991 99.0884C215.798 99.279 215.569 99.4298 215.318 99.532C215.067 99.6343 214.798 99.6861 214.527 99.6844C214.256 99.6828 213.988 99.6278 213.738 99.5225C195.688 91.849 176.277 87.8941 156.664 87.8941C137.051 87.8941 117.64 91.849 99.5907 99.5225C99.3359 99.626 99.0639 99.681 98.7889 99.6849V99.6849Z" fill="white"/>
<path d="M71.1707 63.8147H7.5302C3.55016 63.8147 0.3237 67.0412 0.3237 71.0212V105.186C0.3237 109.166 3.55016 112.393 7.5302 112.393H71.1707C75.1507 112.393 78.3772 109.166 78.3772 105.186V71.0212C78.3772 67.0412 75.1507 63.8147 71.1707 63.8147Z" fill="white"/>
<path d="M71.1809 112.9H7.53021C5.48515 112.897 3.52462 112.084 2.07855 110.638C0.632476 109.192 -0.181107 107.231 -0.183792 105.186V71.0213C-0.181107 68.9762 0.632476 67.0157 2.07855 65.5696C3.52462 64.1235 5.48515 63.3099 7.53021 63.3073H71.1809C73.2259 63.3099 75.1864 64.1235 76.6325 65.5696C78.0786 67.0157 78.8922 68.9762 78.8949 71.0213V105.186C78.8922 107.231 78.0786 109.192 76.6325 110.638C75.1864 112.084 73.2259 112.897 71.1809 112.9ZM7.53021 64.3223C5.75435 64.3249 4.05199 65.0316 2.79626 66.2873C1.54054 67.543 0.833892 69.2454 0.831208 71.0213V105.186C0.833892 106.962 1.54054 108.664 2.79626 109.92C4.05199 111.176 5.75435 111.882 7.53021 111.885H71.1809C72.9567 111.882 74.6591 111.176 75.9148 109.92C77.1705 108.664 77.8772 106.962 77.8799 105.186V71.0213C77.8772 69.2454 77.1705 67.543 75.9148 66.2873C74.6591 65.0316 72.9567 64.3249 71.1809 64.3223H7.53021Z" fill="#D1D3D4"/>
<path d="M25.445 76.4109H28.7133C29.214 76.3972 29.713 76.4764 30.185 76.6443C30.5288 76.7617 30.8413 76.9561 31.0985 77.2127C31.314 77.4325 31.474 77.7004 31.5654 77.9943C31.7414 78.5352 31.7414 79.118 31.5654 79.6589C31.474 79.9528 31.314 80.2207 31.0985 80.4404C30.8413 80.697 30.5288 80.8914 30.185 81.0088C29.713 81.1768 29.214 81.2559 28.7133 81.2423H26.6833V85.0384H25.445V76.4109ZM26.7036 80.2171H28.358C28.6029 80.217 28.8473 80.1967 29.0888 80.1562C29.3114 80.1288 29.5276 80.0636 29.7283 79.9634C29.9167 79.8658 30.0747 79.7184 30.185 79.5371C30.2981 79.3173 30.3571 79.0737 30.3571 78.8266C30.3571 78.5794 30.2981 78.3358 30.185 78.1161C30.0747 77.9348 29.9167 77.7873 29.7283 77.6898C29.5276 77.5895 29.3114 77.5243 29.0888 77.4969C28.8473 77.4565 28.6029 77.4361 28.358 77.436H26.7036V80.2171Z" fill="black"/>
<path d="M32.956 79.9736C33.2931 79.6824 33.6871 79.4646 34.1131 79.3341C34.5355 79.1944 34.9774 79.1224 35.4224 79.121C35.8169 79.1128 36.2104 79.1641 36.5897 79.2732C36.8839 79.365 37.159 79.5095 37.4017 79.6995C37.603 79.867 37.7629 80.079 37.8686 80.3187C37.9683 80.5459 38.0201 80.7912 38.0208 81.0393V83.993C38.0208 84.196 38.0208 84.3787 38.0208 84.5512C38.0208 84.7238 38.0208 84.8862 38.0208 85.0384H37.0058C37.0058 84.7441 37.0058 84.4497 37.0058 84.1655C36.7716 84.5088 36.449 84.7823 36.072 84.9572C35.4222 85.1971 34.7159 85.2395 34.042 85.079C33.7932 85.0111 33.5591 84.8975 33.3518 84.7441C33.1573 84.6025 32.9977 84.4186 32.8849 84.2061C32.7672 83.9735 32.708 83.7157 32.7124 83.455C32.6991 83.1221 32.7954 82.7941 32.9864 82.5212C33.1788 82.2611 33.429 82.0491 33.7172 81.9021C34.0627 81.7315 34.4325 81.6151 34.8134 81.557C35.2535 81.4906 35.698 81.4566 36.1431 81.4555H37.0058V81.2119C37.0047 81.0617 36.9737 80.9134 36.9145 80.7754C36.8492 80.6272 36.7562 80.4928 36.6404 80.3796C36.5097 80.254 36.3541 80.1572 36.1837 80.0954C35.9706 80.0264 35.7478 79.9921 35.5239 79.9939C35.3226 79.9913 35.1217 80.0118 34.9251 80.0548C34.7653 80.0917 34.609 80.1427 34.4582 80.207C34.3264 80.2659 34.2007 80.3372 34.0826 80.4202L33.7578 80.6536L32.956 79.9736ZM36.275 82.2573C35.9876 82.2427 35.6997 82.2427 35.4123 82.2573C35.1424 82.277 34.8763 82.3315 34.6206 82.4197C34.3994 82.4874 34.1952 82.6016 34.0217 82.7547C33.9473 82.8289 33.889 82.9177 33.8506 83.0155C33.8121 83.1133 33.7944 83.218 33.7984 83.3231C33.7887 83.4624 33.8166 83.6018 33.879 83.7268C33.9415 83.8518 34.0364 83.9577 34.1537 84.0336C34.4635 84.2041 34.8159 84.2817 35.1687 84.2569C35.4503 84.2637 35.7303 84.2119 35.9908 84.1046C36.1919 84.0197 36.3722 83.8923 36.5194 83.7311C36.6666 83.5699 36.7771 83.3788 36.8434 83.1708C36.9036 82.9769 36.9344 82.775 36.9348 82.572V82.2066L36.275 82.2573Z" fill="black"/>
<path d="M45.9683 84.9876C45.9739 85.3997 45.8908 85.8082 45.7247 86.1853C45.5681 86.5476 45.3322 86.8702 45.0345 87.1292C44.7212 87.4037 44.3551 87.611 43.9586 87.7383C43.5116 87.8931 43.041 87.9687 42.568 87.9616C42.0147 87.9653 41.464 87.8866 40.9339 87.7281C40.4134 87.5608 39.933 87.2879 39.523 86.9263L40.3249 86.0026C40.618 86.2956 40.9619 86.5329 41.3399 86.703C41.7296 86.8619 42.1471 86.9412 42.568 86.9364C42.9375 86.9453 43.3055 86.8868 43.6541 86.7638C43.913 86.6606 44.148 86.5051 44.3443 86.3071C44.5086 86.1229 44.63 85.9045 44.6995 85.6676C44.7712 85.4306 44.8088 85.1845 44.8112 84.9368V84.135C44.5866 84.4805 44.2654 84.7522 43.8875 84.9166C43.4982 85.0779 43.0808 85.1607 42.6594 85.1601C42.2262 85.1663 41.7957 85.0905 41.3906 84.9368C41.0161 84.7966 40.6717 84.5865 40.3756 84.3177C40.094 84.0427 39.87 83.7144 39.7166 83.352C39.5633 82.9895 39.4837 82.6001 39.4824 82.2065C39.4819 81.8002 39.5576 81.3973 39.7057 81.0189C39.8497 80.6504 40.0696 80.3163 40.3512 80.0382C40.6327 79.7602 40.9695 79.5445 41.3399 79.4051C41.7568 79.2424 42.2017 79.1631 42.6492 79.1717C43.0716 79.1716 43.4896 79.2579 43.8774 79.4254C44.2491 79.5749 44.5723 79.8243 44.8112 80.1461V80.1461V79.3138H45.9886L45.9683 84.9876ZM42.7406 80.1461C42.4492 80.1417 42.1598 80.1934 41.888 80.2983C41.6493 80.3885 41.4317 80.5267 41.2485 80.7043C41.0698 80.8866 40.9314 81.1044 40.8425 81.3438C40.7385 81.6017 40.6868 81.8777 40.6903 82.1558C40.6808 82.4152 40.7256 82.6738 40.8217 82.9149C40.9179 83.1561 41.0632 83.3746 41.2485 83.5564C41.671 83.8976 42.1976 84.0836 42.7406 84.0836C43.2835 84.0836 43.8101 83.8976 44.2326 83.5564C44.4194 83.3757 44.5658 83.1575 44.6621 82.916C44.7583 82.6746 44.8022 82.4154 44.7909 82.1558C44.7925 81.8788 44.7443 81.6037 44.6488 81.3438C44.5563 81.1038 44.4145 80.886 44.2326 80.7043C44.0494 80.5267 43.8318 80.3885 43.5932 80.2983C43.3213 80.1934 43.0319 80.1417 42.7406 80.1461V80.1461Z" fill="black"/>
<path d="M48.6479 82.5517C48.6459 82.7926 48.7053 83.0301 48.8204 83.2419C48.9395 83.447 49.0982 83.6265 49.2873 83.7697C49.4879 83.9243 49.7149 84.0412 49.9572 84.1148C50.2132 84.1964 50.4803 84.2375 50.7489 84.2366C51.0832 84.2442 51.4133 84.16 51.703 83.993C51.985 83.8282 52.2386 83.6191 52.4541 83.3738L53.3473 84.0031C53.0059 84.3932 52.5793 84.6995 52.1006 84.8984C51.6219 85.0973 51.1038 85.1834 50.5865 85.1501C50.1333 85.1578 49.6826 85.0821 49.2569 84.9268C48.8826 84.7768 48.5387 84.5602 48.2419 84.2873C47.9611 83.9985 47.7464 83.6522 47.6126 83.2723C47.4608 82.8914 47.3849 82.4846 47.3893 82.0746C47.3855 81.6594 47.4685 81.248 47.6329 80.8668C47.7891 80.5066 48.017 80.1819 48.3028 79.9127C48.5943 79.633 48.9396 79.4155 49.3178 79.2732C50.1802 78.9418 51.1349 78.9418 51.9974 79.2732C52.3565 79.4399 52.6777 79.6782 52.9413 79.9736C53.184 80.2728 53.3635 80.618 53.4691 80.9886C53.5783 81.3471 53.633 81.7201 53.6315 82.0949V82.4806L48.6479 82.5517ZM52.3729 81.6788C52.3656 81.4507 52.3245 81.2249 52.2511 81.0089C52.1761 80.8122 52.0622 80.6326 51.9162 80.4811C51.7588 80.3226 51.5681 80.2013 51.3579 80.1258C51.1086 80.0309 50.843 79.9861 50.5764 79.9939C50.3048 79.9895 50.0352 80.0413 49.7847 80.1461C49.5576 80.2367 49.3506 80.3712 49.1757 80.542C49.0087 80.6966 48.8741 80.8829 48.7798 81.0901C48.693 81.2742 48.6479 81.4752 48.6479 81.6788H52.3729Z" fill="black"/>
<path d="M8.05801 91.0269H9.71246L14.7875 98.1319V91.0269H16.0461V99.6544H14.5134L9.34706 92.5494V99.6544H8.05801V91.0269Z" fill="black"/>
<path d="M17.9035 96.7718C17.8982 96.3619 17.9849 95.9561 18.1573 95.5842C18.3296 95.2226 18.567 94.8958 18.8576 94.62C19.1556 94.3461 19.4991 94.1263 19.8726 93.9704C20.2876 93.8132 20.7281 93.7341 21.1718 93.737C21.6154 93.7359 22.0555 93.815 22.471 93.9704C22.845 94.1253 23.1887 94.3453 23.486 94.62C23.7766 94.8958 24.014 95.2226 24.1864 95.5842C24.3587 95.9561 24.4454 96.3619 24.4401 96.7718C24.443 97.1814 24.3564 97.5867 24.1864 97.9593C24.019 98.3209 23.7808 98.6454 23.486 98.9134C23.1887 99.1882 22.845 99.4081 22.471 99.563C22.0569 99.7232 21.6158 99.8025 21.1718 99.7965C20.7277 99.8043 20.2863 99.725 19.8726 99.563C19.4991 99.4072 19.1556 99.1873 18.8576 98.9134C18.5628 98.6454 18.3247 98.3209 18.1573 97.9593C17.9872 97.5867 17.9006 97.1814 17.9035 96.7718ZM19.1621 96.7718C19.1613 97.0454 19.2094 97.317 19.3042 97.5737C19.3944 97.8123 19.5326 98.0299 19.7102 98.2131C19.8965 98.3941 20.1175 98.5357 20.3598 98.6292C20.9101 98.832 21.5147 98.832 22.065 98.6292C22.3043 98.5355 22.5219 98.3939 22.7045 98.2131C22.8855 98.0326 23.0242 97.8142 23.1105 97.5737C23.2997 97.0523 23.2997 96.4811 23.1105 95.9598C23.0216 95.7205 22.8832 95.5026 22.7045 95.3203C22.5213 95.1428 22.3037 95.0046 22.065 94.9143C21.5147 94.7116 20.9101 94.7116 20.3598 94.9143C20.1181 95.0044 19.8971 95.1425 19.7102 95.3203C19.5348 95.5052 19.3969 95.7224 19.3042 95.9598C19.2086 96.2198 19.1605 96.4948 19.1621 96.7718Z" fill="black"/>
<path d="M29.3324 94.8331H27.6374V97.4518C27.6374 97.6142 27.6374 97.7766 27.6374 97.9289C27.6472 98.0756 27.6815 98.2197 27.7389 98.3551C27.7923 98.4821 27.8847 98.5887 28.0028 98.6597C28.1599 98.7496 28.3397 98.7919 28.5204 98.7814C28.6657 98.791 28.8115 98.791 28.9569 98.7814C29.0983 98.7591 29.2353 98.7146 29.3629 98.6495V99.6645C29.1896 99.7445 29.0045 99.796 28.8148 99.8168C28.6424 99.8281 28.4695 99.8281 28.2971 99.8168C27.9504 99.8307 27.6047 99.7719 27.2821 99.6442C27.0589 99.5485 26.8684 99.3898 26.734 99.1875C26.6109 98.9991 26.5375 98.7826 26.5209 98.5582C26.5209 98.3281 26.5209 98.0946 26.5209 97.8578V94.8128H25.11V93.8587H26.4803V92.255H27.6577V93.8689H29.3527L29.3324 94.8331Z" fill="black"/>
<path d="M34.8033 91.0269H40.6395V92.1231H36.0619V94.8331H40.335V95.9293H36.072V99.6544H34.8033V91.0269Z" fill="black"/>
<path d="M41.7357 96.7718C41.7304 96.3619 41.8171 95.9561 41.9895 95.5842C42.1618 95.2226 42.3992 94.8958 42.6898 94.62C42.9872 94.3453 43.3308 94.1253 43.7048 93.9704C44.1203 93.815 44.5604 93.7359 45.004 93.737C45.4478 93.7341 45.8882 93.8132 46.3032 93.9704C46.6767 94.1263 47.0202 94.3461 47.3182 94.62C47.6088 94.8958 47.8462 95.2226 48.0186 95.5842C48.1909 95.9561 48.2776 96.3619 48.2723 96.7718C48.2752 97.1814 48.1886 97.5867 48.0186 97.9593C47.8511 98.3209 47.613 98.6454 47.3182 98.9134C47.0202 99.1873 46.6767 99.4072 46.3032 99.563C45.8895 99.725 45.4482 99.8043 45.004 99.7965C44.56 99.8025 44.119 99.7232 43.7048 99.563C43.3308 99.4081 42.9872 99.1882 42.6898 98.9134C42.395 98.6454 42.1569 98.3209 41.9895 97.9593C41.8194 97.5867 41.7328 97.1814 41.7357 96.7718V96.7718ZM42.9943 96.7718C42.9935 97.0454 43.0416 97.317 43.1364 97.5737C43.2227 97.8142 43.3614 98.0326 43.5424 98.2131C43.725 98.3939 43.9426 98.5355 44.1819 98.6292C44.7322 98.832 45.3367 98.832 45.8871 98.6292C46.1294 98.5357 46.3504 98.3941 46.5367 98.2131C46.7142 98.0299 46.8524 97.8123 46.9427 97.5737C47.1319 97.0523 47.1319 96.4811 46.9427 95.9598C46.85 95.7224 46.7121 95.5052 46.5367 95.3203C46.3498 95.1425 46.1288 95.0044 45.8871 94.9143C45.3367 94.7116 44.7322 94.7116 44.1819 94.9143C43.9432 95.0046 43.7256 95.1428 43.5424 95.3203C43.3637 95.5026 43.2253 95.7205 43.1364 95.9598C43.0408 96.2198 42.9927 96.4948 42.9943 96.7718Z" fill="black"/>
<path d="M55.3367 99.6544H54.1593V98.7612C53.9944 99.0915 53.7225 99.3562 53.3879 99.5123C52.9946 99.7093 52.5589 99.8069 52.1192 99.7965C51.8238 99.7984 51.5298 99.7574 51.2463 99.6747C50.987 99.5878 50.7461 99.4535 50.5358 99.2788C50.3212 99.0882 50.1513 98.8525 50.0384 98.5886C49.9072 98.2668 49.845 97.921 49.8557 97.5736V93.879H51.0433V97.33C51.0338 97.5652 51.0718 97.8 51.1549 98.0202C51.2247 98.1968 51.3321 98.3561 51.4696 98.4871C51.6024 98.6027 51.758 98.6892 51.9263 98.7409C52.0974 98.7934 52.2752 98.8207 52.4541 98.8221C52.6887 98.8222 52.9217 98.7845 53.1443 98.7104C53.3491 98.6349 53.5358 98.5174 53.6924 98.3653C53.8533 98.1885 53.9775 97.9815 54.0578 97.7563C54.1531 97.479 54.1978 97.1867 54.1898 96.8936V93.879H55.3672L55.3367 99.6544Z" fill="black"/>
<path d="M57.1231 93.879H58.3005V94.7722C58.4679 94.4437 58.7391 94.1797 59.0719 94.0211C59.4684 93.8228 59.9076 93.7252 60.3508 93.7369C60.6394 93.7361 60.9266 93.7771 61.2034 93.8587C61.4681 93.9401 61.7133 94.0748 61.924 94.2545C62.1394 94.4445 62.3094 94.6803 62.4214 94.9447C62.5526 95.2666 62.6148 95.6124 62.6041 95.9597V99.6746H61.4267V96.2642C61.4321 96.0284 61.3907 95.7938 61.3049 95.5741C61.2379 95.3989 61.13 95.2423 60.9902 95.1173C60.858 94.9986 60.7024 94.9087 60.5335 94.8534C60.3621 94.8036 60.1842 94.7797 60.0057 94.7824C59.775 94.779 59.5453 94.8133 59.3256 94.8838C59.1161 94.9605 58.9256 95.0817 58.7674 95.2391C58.6044 95.4105 58.4799 95.6146 58.402 95.8379C58.3115 96.1165 58.2669 96.4079 58.27 96.7007V99.6746H57.0927L57.1231 93.879Z" fill="black"/>
<path d="M70.6531 99.6544H69.4757V98.8221C69.2368 99.1439 68.9136 99.3933 68.5419 99.5428C68.1541 99.7102 67.7361 99.7966 67.3137 99.7965C66.8671 99.8053 66.4228 99.7295 66.0044 99.5732C65.6261 99.4265 65.281 99.2056 64.9894 98.9236C64.7149 98.6473 64.4976 98.3197 64.3499 97.9594C64.1969 97.5824 64.121 97.1786 64.1266 96.7718C64.1212 96.3585 64.1971 95.9481 64.3499 95.564C64.4954 95.2054 64.713 94.8807 64.9894 94.6099C65.2793 94.3281 65.6251 94.1103 66.0044 93.9704C66.4208 93.8059 66.866 93.7265 67.3137 93.737C67.7476 93.7311 68.1773 93.8212 68.5723 94.0009C68.9356 94.1457 69.2493 94.3925 69.4757 94.7114V94.7114V90.4484H70.6531V99.6544ZM67.4254 98.7815C67.7167 98.7859 68.0061 98.7342 68.278 98.6293C68.5172 98.5355 68.7348 98.3939 68.9174 98.2131C69.0984 98.0327 69.2371 97.8143 69.3234 97.5737C69.5266 97.0549 69.5266 96.4786 69.3234 95.9598C69.2345 95.7205 69.0962 95.5026 68.9174 95.3204C68.7342 95.1428 68.5166 95.0046 68.278 94.9144C67.7276 94.7116 67.1231 94.7116 66.5728 94.9144C66.3341 95.0046 66.1165 95.1428 65.9333 95.3204C65.7514 95.502 65.6096 95.7199 65.5172 95.9598C65.3279 96.4811 65.3279 97.0524 65.5172 97.5737C65.607 97.8149 65.7491 98.0332 65.9333 98.2131C66.1159 98.3939 66.3335 98.5355 66.5728 98.6293C66.8446 98.7342 67.134 98.7859 67.4254 98.7815V98.7815Z" fill="black"/>
<path d="M299.85 38.257H237.448C234.236 38.257 231.632 40.8609 231.632 44.073V65.8041C231.632 69.0162 234.236 71.6201 237.448 71.6201H299.85C303.062 71.6201 305.666 69.0162 305.666 65.8041V44.073C305.666 40.8609 303.062 38.257 299.85 38.257Z" fill="white"/>
<path d="M299.86 72.1174H237.448C235.772 72.1147 234.165 71.4476 232.98 70.2623C231.794 69.077 231.127 67.4702 231.125 65.794V44.073C231.127 42.3967 231.794 40.7899 232.98 39.6046C234.165 38.4193 235.772 37.7522 237.448 37.7495H299.86C301.537 37.7522 303.143 38.4193 304.329 39.6046C305.514 40.7899 306.181 42.3967 306.184 44.073V65.794C306.181 67.4702 305.514 69.077 304.329 70.2623C303.143 71.4476 301.537 72.1147 299.86 72.1174V72.1174ZM237.448 38.7645C236.04 38.7645 234.69 39.3238 233.694 40.3193C232.699 41.3148 232.14 42.6651 232.14 44.073V65.794C232.14 67.2018 232.699 68.5521 233.694 69.5476C234.69 70.5431 236.04 71.1024 237.448 71.1024H299.86C301.268 71.1024 302.618 70.5431 303.614 69.5476C304.61 68.5521 305.169 67.2018 305.169 65.794V44.073C305.169 42.6651 304.61 41.3148 303.614 40.3193C302.618 39.3238 301.268 38.7645 299.86 38.7645H237.448Z" fill="#D1D3D4"/>
<path d="M254.5 59.9476H245.771V56.9026L252.409 47.1281H258.154V56.9026H260.255V59.9476H258.154V62.7388H254.5V59.9476ZM254.5 56.9026V49.4525L249.425 56.9026H254.5Z" fill="black"/>
<path d="M261.27 54.9335C261.27 49.8585 264.315 46.8135 268.72 46.8135C273.125 46.8135 276.14 49.8585 276.14 54.9335C276.14 60.0085 273.095 63.0535 268.72 63.0535C264.346 63.0535 261.27 59.9983 261.27 54.9335ZM272.516 54.9335C272.516 51.4926 271.075 49.7976 268.72 49.7976C266.365 49.7976 264.894 51.4926 264.894 54.9335C264.894 58.3743 266.335 60.0694 268.72 60.0694C271.105 60.0694 272.516 58.3743 272.516 54.9335Z" fill="black"/>
<path d="M285.813 59.9476H277.043V56.9026L283.681 47.1281H289.436V56.9026H291.537V59.9476H289.436V62.7388H285.813V59.9476ZM285.813 56.9026V49.4525H285.762L280.687 56.9026H285.813Z" fill="black"/>
<path d="M47.6227 0.529475C47.5159 0.530317 47.412 0.494493 47.3284 0.427977C47.2213 0.347107 47.1498 0.22783 47.129 0.0952863C47.1082 -0.0372579 47.1396 -0.172711 47.2167 -0.28252C49.0336 -2.76927 51.2767 -6.37252 49.602 -9.23482C49.5504 -9.32653 49.4927 -9.41469 49.4294 -9.49872C47.584 -7.2697 45.3904 -5.3537 42.9334 -3.82488C41.6334 -2.88391 40.0342 -2.45071 38.437 -2.60687C38.0977 -2.67564 37.7761 -2.8128 37.4917 -3.01C37.2072 -3.2072 36.9659 -3.46028 36.7825 -3.75382C36.5495 -4.17416 36.405 -4.63774 36.3579 -5.11603C36.3107 -5.59431 36.362 -6.07719 36.5085 -6.53492C36.5923 -6.86076 36.7009 -7.17972 36.8333 -7.48902C34.6983 -5.35365 32.2844 -3.51677 29.6572 -2.02832C29.0894 -1.66295 28.4239 -1.47888 27.749 -1.50052C27.2068 -1.61309 26.7158 -1.89855 26.3498 -2.31402C25.9837 -2.7295 25.7624 -3.25254 25.719 -3.80457C25.6622 -4.79272 25.8726 -5.77793 26.328 -6.65672C28.114 -10.5196 30.8832 -13.8456 34.3585 -16.302C37.8338 -18.7584 41.8933 -20.259 46.1307 -20.6536C46.8858 -22.5487 46.9894 -24.6411 46.425 -26.6015C46.1485 -27.5561 45.6291 -28.4227 44.9174 -29.1165C44.2058 -29.8104 43.3264 -30.3077 42.365 -30.56C40.5299 -30.7787 38.672 -30.4242 37.0464 -29.545C28.2967 -25.5627 21.1449 -18.7471 16.7464 -10.1991C16.4053 -9.66165 16.2224 -9.03904 16.2186 -8.40252C16.2354 -8.25901 16.2808 -8.12033 16.3523 -7.99478C16.4238 -7.86922 16.5199 -7.75935 16.6348 -7.67172C16.6939 -7.62028 16.7638 -7.58267 16.8393 -7.5616C16.9147 -7.54053 16.994 -7.53655 17.0712 -7.54992C17.2058 -7.5755 17.3451 -7.54655 17.4583 -7.46946C17.5716 -7.39237 17.6496 -7.27345 17.6751 -7.13885C17.7007 -7.00425 17.6718 -6.86501 17.5947 -6.75175C17.5176 -6.63849 17.3987 -6.5605 17.2641 -6.53492C17.0422 -6.48468 16.812 -6.48316 16.5895 -6.53047C16.3669 -6.57778 16.1573 -6.6728 15.975 -6.80897C15.5316 -7.15901 15.2435 -7.66941 15.1732 -8.22997C15.1459 -9.06759 15.3685 -9.89437 15.8126 -10.6051C20.3235 -19.3695 27.6578 -26.3569 36.6303 -30.4382C38.3964 -31.2299 40.4771 -32.0013 42.5477 -31.575C43.6997 -31.2948 44.7579 -30.717 45.6165 -29.8994C46.4751 -29.0818 47.1039 -28.0531 47.44 -26.9161C48.0207 -24.8811 47.9462 -22.7149 47.2269 -20.7246C47.8968 -20.7246 48.5667 -20.7246 49.2569 -20.7246C49.909 -20.7207 50.5503 -20.5569 51.1245 -20.2476C52.444 -19.4254 52.515 -17.6796 52.444 -16.7154C52.2365 -14.4289 51.416 -12.2408 50.0689 -10.3818C50.2224 -10.1929 50.3615 -9.99269 50.485 -9.78292C52.4541 -6.43342 50.0384 -2.43432 48.049 0.285878C48.0051 0.359895 47.9427 0.421256 47.868 0.463955C47.7933 0.506653 47.7088 0.529225 47.6227 0.529475ZM45.6841 -19.598C41.7121 -19.1396 37.9251 -17.6661 34.6879 -15.3195C31.4506 -12.9729 28.8722 -9.83223 27.2009 -6.19997C26.8277 -5.48358 26.6459 -4.68293 26.6731 -3.87562C26.6927 -3.54393 26.8189 -3.22744 27.0329 -2.97324C27.2469 -2.71904 27.5372 -2.5407 27.8607 -2.46477C28.3306 -2.46887 28.7892 -2.60996 29.1802 -2.87077C33.3518 -5.13422 36.7013 -8.64612 39.929 -12.0058C41.9996 -14.32 44.324 -16.7154 45.6841 -19.598ZM44.8416 -11.478C44.3235 -11.4796 43.8066 -11.4286 43.2988 -11.3257C41.9615 -11.0867 40.7144 -10.4881 39.6916 -9.59396C38.6688 -8.69987 37.9087 -7.5441 37.493 -6.25072C37.3822 -5.91923 37.3385 -5.56895 37.3647 -5.22038C37.3908 -4.87182 37.4862 -4.53198 37.6453 -4.22072C37.7558 -4.04028 37.9035 -3.88542 38.0785 -3.76642C38.2535 -3.64742 38.4518 -3.56701 38.6603 -3.53052C39.9825 -3.42214 41.3008 -3.78135 42.3853 -4.54552C44.8071 -6.0827 46.9547 -8.01417 48.7392 -10.26C47.6256 -11.1205 46.2484 -11.5689 44.8416 -11.5287V-11.478ZM44.8416 -12.493C46.4703 -12.5381 48.0649 -12.022 49.3584 -11.0314C50.5251 -12.7135 51.2255 -14.6747 51.3884 -16.7154C51.3884 -17.3041 51.3884 -18.7454 50.5459 -19.3036C50.1155 -19.5228 49.6383 -19.6343 49.1554 -19.6284C48.3745 -19.6741 47.5916 -19.6741 46.8107 -19.6284C45.4608 -16.4515 43.0146 -13.8429 40.8121 -11.5084C41.5288 -11.8591 42.2854 -12.1215 43.0654 -12.29C43.6403 -12.435 44.2288 -12.5201 44.8213 -12.5437L44.8416 -12.493Z" fill="#D1D3D4"/>
</g>
<defs>
<clipPath id="clip0">
<rect width="293" height="152" fill="white"/>
</clipPath>
</defs>
</svg>
