<svg width="12" height="30" viewBox="0 0 12 30" fill="none" xmlns="http://www.w3.org/2000/svg">
<path d="M10.3125 25.3125C10.3125 27.8972 8.20969 30 5.625 30C3.04031 30 0.9375 27.8972 0.9375 25.3125C0.9375 22.7278 3.04031 20.625 5.625 20.625C8.20969 20.625 10.3125 22.7278 10.3125 25.3125ZM1.48008 1.4765L2.27695 17.414C2.31439 18.1624 2.93209 18.75 3.68145 18.75H7.56855C8.31791 18.75 8.93561 18.1624 8.97305 17.414L9.76992 1.4765C9.81006 0.673242 9.16969 0 8.36543 0H2.88457C2.08031 0 1.43994 0.673242 1.48008 1.4765Z" fill="#FF0000"/>
</svg>
