<svg width="186" height="179" viewBox="0 0 186 179" fill="none" xmlns="http://www.w3.org/2000/svg">
<g filter="url(#filter0_d)">
<g clip-path="url(#clip0)">
<path d="M72.552 168.141C108.823 168.141 138.226 165.744 138.226 162.788C138.226 159.831 108.823 157.434 72.552 157.434C36.281 157.434 6.87762 159.831 6.87762 162.788C6.87762 165.744 36.281 168.141 72.552 168.141Z" fill="#E6E7E8"/>
<path d="M182.122 112.53H135.424V150.519H182.122V112.53Z" fill="white"/>
<path d="M182.122 150.895H135.424C135.326 150.895 135.232 150.856 135.163 150.787C135.094 150.718 135.055 150.625 135.055 150.527V112.53C135.055 112.432 135.094 112.339 135.163 112.27C135.232 112.201 135.326 112.162 135.424 112.162H182.122C182.22 112.164 182.312 112.203 182.381 112.272C182.45 112.34 182.489 112.433 182.491 112.53V150.527C182.489 150.624 182.45 150.716 182.381 150.785C182.312 150.854 182.22 150.893 182.122 150.895ZM135.793 150.159H181.754V112.898H135.8L135.793 150.159Z" fill="#D1D3D4"/>
<path d="M182.122 117.78H135.424C135.326 117.78 135.232 117.742 135.163 117.673C135.094 117.603 135.055 117.51 135.055 117.412C135.055 117.314 135.094 117.221 135.163 117.152C135.232 117.083 135.326 117.044 135.424 117.044H182.122C182.22 117.044 182.314 117.083 182.383 117.152C182.452 117.221 182.491 117.314 182.491 117.412C182.489 117.509 182.45 117.602 182.381 117.67C182.312 117.739 182.22 117.778 182.122 117.78Z" fill="#D1D3D4"/>
<path d="M53.4507 41.5511C52.4436 41.6187 51.4387 41.39 50.5603 40.8933C49.682 40.3966 48.9687 39.6537 48.5088 38.7565C48.0489 37.8593 47.8626 36.8472 47.9728 35.8453C48.083 34.8434 48.485 33.8958 49.129 33.1197C46.3117 31.8236 44.822 28.4952 45.0285 25.4098C45.235 22.3244 46.8649 19.5189 48.9004 17.1477C50.5745 15.2111 52.6764 13.4659 55.1912 12.9872C55.6672 12.9399 56.1314 12.8103 56.563 12.6043C56.9026 12.3658 57.1972 12.0691 57.4332 11.728C59.2696 9.38637 61.5337 7.23616 64.3657 6.29361C67.1977 5.35105 70.664 5.8886 72.5594 8.19345C73.5068 7.3722 74.6816 6.85754 75.9284 6.71758C77.1752 6.57761 78.4352 6.81893 79.5416 7.40961C80.648 8.00029 81.5488 8.91249 82.1246 10.0255C82.7004 11.1385 82.9242 12.3998 82.7664 13.6426C84.7617 13.9367 86.6326 14.7894 88.1624 16.1018C89.6922 17.4142 90.8182 19.1326 91.4099 21.0579C92.4645 24.9312 90.6724 29.482 87.0955 31.3155C86.6825 31.5291 86.1884 31.8089 86.2031 32.2655C86.2438 32.541 86.3672 32.7978 86.5571 33.0018C87.7076 34.6439 87.1324 37.0224 85.8196 38.5099C84.5069 39.9974 82.5451 40.7853 80.6571 41.5364C81.0771 41.9569 81.357 42.4964 81.4586 43.0815C81.5602 43.6666 81.4786 44.2688 81.225 44.8059C80.6778 45.8811 79.8264 46.7722 78.7765 47.3685C74.676 50.012 69.602 49.1873 65.0074 49.283C60.7667 49.3714 56.5556 46.6689 53.7457 43.6056C53.2 43.0239 52.7649 41.9635 53.4507 41.5511Z" fill="white"/>
<path d="M70.0887 49.7026C69.3512 49.7026 68.6138 49.7026 67.9353 49.7026C66.9765 49.7026 65.9735 49.6585 65.0295 49.7026C61.1798 49.7689 56.917 47.6114 53.4803 43.9074C53.2384 43.6652 53.0483 43.3765 52.9216 43.0588C52.7948 42.7411 52.734 42.401 52.7428 42.0591C52.7386 42.0323 52.7386 42.0049 52.7428 41.9781C51.7498 41.9305 50.7884 41.6151 49.9606 41.0656C49.1328 40.5161 48.4696 39.7528 48.0415 38.8571C47.6133 37.9613 47.4362 36.9665 47.529 35.9783C47.6218 34.99 47.9811 34.0454 48.5685 33.2447C46.0241 31.8456 44.4385 28.6866 44.6598 25.3876C44.8441 22.5673 46.179 19.7176 48.6201 16.9046C50.7441 14.4599 52.8681 13.0608 55.1249 12.6263L55.3756 12.5821C55.7304 12.5682 56.076 12.4651 56.3802 12.2823C56.6845 12.0995 56.9376 11.843 57.1161 11.5365C59.4319 8.59098 61.755 6.7795 64.2478 5.9474C67.3231 4.92384 70.6935 5.63812 72.6036 7.67787C73.6089 6.90293 74.8176 6.43547 76.0833 6.33203C77.3491 6.2286 78.6178 6.49363 79.7359 7.09506C80.854 7.69648 81.7736 8.60854 82.3834 9.72087C82.9932 10.8332 83.2671 12.0982 83.172 13.3627C85.1647 13.7222 87.0202 14.621 88.5366 15.961C90.0529 17.301 91.1718 19.0308 91.7713 20.962C92.8923 25.0784 90.9084 29.7985 87.2651 31.6468C86.8964 31.8309 86.5645 32.0371 86.5719 32.258C86.6085 32.4108 86.6819 32.5523 86.7857 32.6704L86.8521 32.7661C88.1649 34.6217 87.42 37.2211 86.0556 38.7233C84.7061 40.0459 83.0787 41.0521 81.2914 41.6688C81.6143 42.1513 81.8093 42.7077 81.8584 43.2859C81.9074 43.8641 81.8087 44.4453 81.5716 44.9751C81.0072 46.1104 80.1161 47.0514 79.0125 47.6776C76.2764 49.4449 73.1789 49.7026 70.0887 49.7026ZM65.8481 48.9074C66.5487 48.9074 67.2568 48.9074 67.95 48.9074C71.6375 48.981 75.4356 49.062 78.5848 47.0296C79.5771 46.4776 80.3811 45.6415 80.8931 44.629C81.122 44.16 81.1987 43.6313 81.1128 43.1167C81.0269 42.602 80.7826 42.1268 80.4137 41.7572C80.3655 41.7162 80.3286 41.6636 80.3066 41.6042C80.2847 41.5449 80.2784 41.4809 80.2884 41.4185C80.2987 41.3551 80.3252 41.2954 80.3652 41.2451C80.4052 41.1948 80.4575 41.1556 80.517 41.1313C82.2427 40.4391 84.2045 39.6585 85.5099 38.1858C86.6825 36.8971 87.3389 34.688 86.2474 33.1416L86.181 33.0606C85.98 32.8292 85.8562 32.5409 85.827 32.2359C85.827 31.4995 86.5276 31.1461 86.9185 30.9472C90.2668 29.2241 92.081 24.909 91.0485 21.1093C90.4651 19.2627 89.3725 17.6174 87.896 16.362C86.4196 15.1065 84.6188 14.2916 82.7 14.0107C82.6046 13.9961 82.5187 13.9447 82.4608 13.8676C82.4029 13.7905 82.3776 13.6938 82.3903 13.5983C82.5351 12.4318 82.3236 11.2487 81.7834 10.2043C81.2431 9.15995 80.3994 8.30292 79.3629 7.74563C78.3263 7.18834 77.1453 6.9568 75.9746 7.08137C74.804 7.20594 73.6984 7.6808 72.8028 8.4437C72.7657 8.47625 72.7224 8.50088 72.6755 8.51608C72.6285 8.53127 72.579 8.53672 72.5299 8.53207C72.4812 8.52843 72.4338 8.51478 72.3906 8.49197C72.3475 8.46916 72.3095 8.43768 72.2791 8.39952C70.6198 6.38186 67.4116 5.64549 64.4911 6.62486C62.1385 7.40542 59.926 9.14326 57.7283 11.9341C57.4679 12.3119 57.1405 12.6388 56.7621 12.8988C56.3728 13.1057 55.9471 13.2357 55.5084 13.2817L55.2724 13.3259C53.1853 13.7309 51.194 15.049 49.1806 17.3612C46.8501 20.0489 45.5816 22.7588 45.4046 25.4097C45.1908 28.5909 46.7838 31.61 49.2913 32.7734C49.3422 32.7971 49.3872 32.8319 49.423 32.8752C49.4587 32.9186 49.4843 32.9693 49.4978 33.0238C49.5096 33.0793 49.5084 33.1367 49.4943 33.1916C49.4802 33.2465 49.4537 33.2975 49.4166 33.3405C48.8085 34.058 48.4265 34.9392 48.3188 35.8731C48.2111 36.8069 48.3825 37.7517 48.8114 38.5886C49.2403 39.4254 49.9076 40.1168 50.7292 40.5758C51.5508 41.0348 52.49 41.2409 53.4286 41.1681C53.5126 41.1595 53.597 41.1806 53.6671 41.2277C53.7371 41.2748 53.7884 41.3449 53.8121 41.4258C53.8372 41.5049 53.8348 41.59 53.8054 41.6675C53.7759 41.745 53.7211 41.8104 53.6499 41.8529C53.6043 41.8781 53.5657 41.9142 53.5374 41.9578C53.5091 42.0015 53.492 42.0515 53.4876 42.1033C53.5002 42.5733 53.696 43.0198 54.0334 43.3478C57.2931 46.8971 61.4084 48.9736 65.0148 48.9L65.8481 48.9074Z" fill="#231F20"/>
<path d="M106.123 149.393C107.812 149.393 120.401 150.755 126.294 153.679C132.186 156.602 133.462 156.83 132.267 160.777C131.073 164.724 120.696 165.696 112.797 164.209C107.71 163.164 102.803 161.383 98.2318 158.921L106.123 149.393Z" fill="white"/>
<path d="M120.246 165.262C117.726 165.252 115.212 165.005 112.738 164.525C107.616 163.473 102.675 161.682 98.0695 159.209C98.0267 159.183 97.9896 159.149 97.9604 159.108C97.9313 159.068 97.9107 159.022 97.8999 158.973C97.8913 158.925 97.8935 158.876 97.9062 158.828C97.919 158.781 97.942 158.738 97.9736 158.7L105.865 149.172C105.894 149.133 105.932 149.101 105.975 149.079C106.019 149.058 106.067 149.046 106.116 149.047H106.189C108.247 149.047 120.541 150.446 126.441 153.369L127.769 154.025C132.496 156.337 133.772 156.97 132.592 160.873C131.847 163.347 126.994 165.262 120.246 165.262ZM98.7554 158.818C103.196 161.159 107.946 162.862 112.864 163.877C120.792 165.35 130.851 164.304 131.95 160.681C132.961 157.323 132.231 156.963 127.474 154.636L126.146 153.98C120.519 151.189 108.483 149.768 106.278 149.724L98.7554 158.818Z" fill="#231F20"/>
<path d="M107.812 149.356C108.925 149.628 109.895 150.311 110.525 151.267C111.156 152.223 111.401 153.382 111.212 154.511C110.659 158.701 101.787 158.877 101.278 158.929C100.769 158.98 107.812 149.356 107.812 149.356Z" fill="white"/>
<path d="M101.278 159.165C101.212 159.163 101.147 159.144 101.091 159.111C101.034 159.077 100.987 159.03 100.953 158.973C100.842 158.752 100.665 158.413 107.539 149.128C107.578 149.074 107.633 149.033 107.697 149.01C107.76 148.988 107.828 148.985 107.893 149.003C107.93 149.003 112.134 150.056 111.58 154.496C111.02 158.76 102.937 159.135 101.322 159.165H101.278ZM107.915 149.717C105.754 152.662 102.539 157.081 101.735 158.48C103.756 158.384 110.4 157.817 110.85 154.408C111.024 153.41 110.823 152.384 110.287 151.524C109.751 150.664 108.918 150.032 107.945 149.746L107.915 149.717Z" fill="#231F20"/>
<path d="M42.0564 158.951C41.7982 159.083 39.3866 162.213 28.8699 163.465C18.3531 164.717 14.4517 166.977 12.1065 161.462C9.76124 155.947 11.369 152.382 16.5315 150.807C21.694 149.231 35.9941 147.927 38.7966 150.564C41.5991 153.2 42.0564 158.951 42.0564 158.951Z" fill="white"/>
<path d="M17.2985 165.335C14.6951 165.335 13.021 164.466 11.7968 161.595C10.5725 158.723 10.3881 156.256 11.2805 154.349C12.1065 152.581 13.847 151.278 16.443 150.49C21.2958 149.017 36.0384 147.5 39.0326 150.321C41.9015 153.016 42.3588 158.686 42.3809 158.922C42.3843 158.984 42.3711 159.046 42.3426 159.102C42.3141 159.157 42.2713 159.204 42.2186 159.238L42.1154 159.327C39.0843 162.081 33.2654 163.281 28.8994 163.796C26.6353 164.069 24.6883 164.385 22.9994 164.665C21.1183 165.029 19.2128 165.253 17.2985 165.335ZM30.9128 149.386C25.8609 149.386 19.7396 150.188 16.6569 151.131C14.2379 151.867 12.6301 153.045 11.8926 154.636C11.0814 156.359 11.2584 158.612 12.4163 161.33C14.1494 165.416 16.7085 165.011 22.874 164.003C24.5998 163.723 26.5615 163.406 28.833 163.134C33.0958 162.626 38.7819 161.462 41.6803 158.826C41.577 157.861 40.9428 153.097 38.5606 150.829C37.4986 149.783 34.4675 149.386 30.9128 149.386Z" fill="#231F20"/>
<path d="M45.412 156.698C45.412 156.698 40.6404 160.674 37.4618 160.203C34.2831 159.731 29.8876 157.994 31.6576 154.569C33.4276 151.145 44.822 149.083 44.822 149.083L45.412 156.698Z" fill="white"/>
<path d="M38.0075 160.578C37.8076 160.579 37.6079 160.564 37.4101 160.534C35.028 160.181 32.1518 159.165 31.2299 157.36C31.0023 156.898 30.8945 156.386 30.9164 155.872C30.9383 155.357 31.0892 154.856 31.3553 154.415C33.1843 150.866 44.291 148.841 44.763 148.752C44.8094 148.744 44.857 148.746 44.9028 148.757C44.9485 148.769 44.9913 148.79 45.0285 148.818C45.0659 148.848 45.0969 148.885 45.1197 148.926C45.1425 148.968 45.1567 149.014 45.1613 149.061L45.7513 156.668C45.7553 156.722 45.7468 156.776 45.7263 156.826C45.7058 156.876 45.674 156.92 45.6333 156.955C45.4415 157.11 41.2451 160.578 38.0075 160.578ZM44.5196 149.489C42.5653 149.871 33.4571 151.808 31.9821 154.724C31.7646 155.07 31.6383 155.466 31.6151 155.874C31.5919 156.282 31.6725 156.69 31.8494 157.058C32.6606 158.627 35.3156 159.54 37.5355 159.871C40.2421 160.276 44.3058 157.169 45.0875 156.55L44.5196 149.489Z" fill="#231F20"/>
<path d="M102.731 123.296C102.731 123.296 97.7008 142.883 79.3444 146.624C60.988 150.365 51.489 149.378 44.9843 137.007C38.4795 124.636 42.7718 117.066 42.7718 117.066L100.702 115.917L102.731 123.296Z" fill="#231F20"/>
<path d="M64.2035 148.914C55.3535 148.914 49.2101 145.836 44.6524 137.177C38.1329 124.769 42.285 117.199 42.4399 116.882C42.4721 116.826 42.5183 116.78 42.5739 116.748C42.6295 116.716 42.6927 116.698 42.757 116.698L100.688 115.549C100.771 115.545 100.854 115.57 100.921 115.62C100.988 115.669 101.036 115.741 101.056 115.822L103.062 123.185C103.077 123.248 103.077 123.314 103.062 123.377C103.011 123.576 97.7671 143.259 79.3886 146.978C73.5845 148.178 68.5621 148.914 64.2035 148.914ZM43.0151 117.427C42.4399 118.642 39.5341 125.844 45.3088 136.838C51.9094 149.356 61.5338 149.886 79.2338 146.263C96.5134 142.744 101.904 124.739 102.31 123.296L100.4 116.293L43.0151 117.427Z" fill="#231F20"/>
<path d="M38.45 123.473C38.45 123.473 28.9584 92.8395 30.2047 73.6422C31.4511 54.445 38.5975 53.7602 48.3472 52.6777C52.6764 52.1917 75.738 48.7823 84.3741 58.9295C93.0103 69.0767 108.21 116.602 108.21 116.602L38.45 123.473Z" fill="#68E1FD"/>
<path d="M72.7069 52.7292L71.2319 62.9795C71.2319 62.9795 68.0016 68.2741 61.5338 65.5937C55.0659 62.9133 54.9405 57.9722 54.9405 57.9722L58.0085 39.0327C58.0085 39.0327 64.8304 32.9208 67.6993 21.2419C67.6993 21.2419 73.4149 31.1977 81.7118 33.4363C81.7118 33.4363 81.1586 41.7057 79.6763 46.8309C78.2013 51.7867 72.8101 52.6703 72.7069 52.7292Z" fill="white"/>
<path d="M65 66.7129C63.7456 66.6978 62.5069 66.4324 61.3568 65.9323C54.7193 63.193 54.5423 58.1931 54.5349 57.9795L57.625 38.9737C57.64 38.8895 57.6813 38.8122 57.743 38.7528C57.8094 38.6939 64.5133 32.582 67.3305 21.1535C67.3507 21.0833 67.3906 21.0204 67.4455 20.9721C67.5004 20.9239 67.568 20.8923 67.6403 20.8811C67.7123 20.8709 67.7858 20.8822 67.8514 20.9137C67.917 20.9451 67.9719 20.9953 68.009 21.0578C68.068 21.1609 73.7541 30.9105 81.7855 33.0754C81.8685 33.0975 81.9413 33.1478 81.9911 33.2177C82.0409 33.2876 82.0647 33.3727 82.0584 33.4583C82.0584 33.5393 81.4831 41.8309 80.0081 46.9339C78.7913 51.1386 74.8456 52.5819 73.0461 53.0237L71.5711 63.031C71.5643 63.0798 71.5493 63.1271 71.5269 63.1709C70.8001 64.2376 69.8286 65.1156 68.6933 65.7317C67.5581 66.3478 66.2918 66.6842 65 66.7129ZM58.3625 39.2094L55.3093 58.0311C55.3093 58.1489 55.5305 62.6997 61.6813 65.2549C67.4264 67.6334 70.5312 63.3992 70.8853 62.8469L72.3603 52.6776C72.3671 52.6218 72.3875 52.5685 72.4196 52.5223C72.4517 52.4761 72.4946 52.4384 72.5446 52.4125C72.6126 52.3732 72.6879 52.3481 72.7659 52.3389C74.3515 51.9634 78.1717 50.66 79.3075 46.7277C80.6055 42.2432 81.1955 35.233 81.3061 33.7087C74.3736 31.6763 69.3439 24.5408 67.8394 22.1771C65.0369 32.5452 59.159 38.3994 58.3625 39.2094Z" fill="#231F20"/>
<path d="M61.9836 39.3199C61.9008 38.3619 61.5072 37.457 60.8626 36.7426C60.2359 36.1008 59.5022 35.5726 58.6944 35.1815C58.2754 34.9228 57.8046 34.7594 57.3153 34.7029C56.9691 34.7063 56.6265 34.7737 56.3049 34.9017C55.5196 35.1518 54.8499 35.6742 54.4169 36.3744C54.1318 36.9685 53.9976 37.6235 54.026 38.2816C53.9969 38.9939 54.0613 39.7069 54.2178 40.4024C54.391 41.0969 54.7013 41.7498 55.1306 42.3229C55.5599 42.8961 56.0995 43.3778 56.7177 43.74C57.3359 44.1021 58.0204 44.3374 58.7309 44.4319C59.4414 44.5264 60.1636 44.4783 60.8553 44.2904" fill="white"/>
<path d="M59.454 44.8133C58.1706 44.8145 56.9236 44.3876 55.9109 43.6006C54.8981 42.8135 54.1776 41.7112 53.8638 40.4687C53.6927 39.7454 53.6232 39.0019 53.6573 38.2596C53.6312 37.5424 53.7806 36.8296 54.0924 36.183C54.5623 35.4132 55.2919 34.8361 56.15 34.5556C56.517 34.4132 56.9068 34.3384 57.3005 34.3347C57.8469 34.3922 58.3735 34.5708 58.8419 34.8575C59.6851 35.2685 60.451 35.8215 61.106 36.4923C61.8055 37.2681 62.2327 38.2505 62.3229 39.2905C62.3291 39.3878 62.2972 39.4837 62.2338 39.5579C62.1705 39.6321 62.0808 39.6788 61.9836 39.6881C61.8866 39.6925 61.7916 39.66 61.7177 39.5971C61.6438 39.5342 61.5965 39.4457 61.5854 39.3494C61.513 38.4733 61.1585 37.644 60.575 36.9857C59.9755 36.3778 59.2742 35.8794 58.5026 35.5129C58.1348 35.2775 57.7191 35.1266 57.2858 35.0711C56.987 35.0736 56.6915 35.1336 56.4155 35.2478C55.7189 35.4626 55.1191 35.9131 54.7193 36.5217C54.4688 37.0657 54.3525 37.6616 54.38 38.2596C54.3446 38.9399 54.4067 39.6218 54.5644 40.2846C54.7266 40.9292 55.0156 41.5352 55.4145 42.0673C55.8134 42.5994 56.3142 43.047 56.8879 43.3841C57.4616 43.7212 58.0967 43.9411 58.7563 44.031C59.4158 44.1208 60.0867 44.0789 60.7299 43.9076C60.8238 43.8827 60.9236 43.8958 61.0079 43.9441C61.0921 43.9924 61.1539 44.0718 61.1798 44.1653C61.192 44.2122 61.1948 44.261 61.188 44.309C61.1812 44.357 61.1651 44.4032 61.1404 44.4449C61.1157 44.4866 61.0831 44.5231 61.0443 44.5522C61.0055 44.5813 60.9613 44.6025 60.9143 44.6145C60.4386 44.7457 59.9475 44.8125 59.454 44.8133Z" fill="#231F20"/>
<path d="M71.254 36.3965C71.254 36.3965 74.1524 42.1034 73.201 42.9207C72.2496 43.7381 69.9634 42.8397 69.9634 42.8397" fill="white"/>
<path d="M72.0136 43.635C71.2559 43.6116 70.5078 43.4598 69.8011 43.1858C69.7561 43.1679 69.715 43.1414 69.6802 43.1077C69.6454 43.0739 69.6177 43.0337 69.5985 42.9892C69.5793 42.9448 69.5691 42.897 69.5684 42.8486C69.5678 42.8002 69.5767 42.7521 69.5946 42.7072C69.6323 42.6175 69.7033 42.546 69.7927 42.5075C69.8821 42.4691 69.9829 42.4667 70.074 42.501C70.6124 42.7072 72.2865 43.1858 72.9281 42.6409C73.319 42.3169 72.3455 39.4156 70.9 36.5584C70.8773 36.5156 70.8636 36.4686 70.8595 36.4203C70.8554 36.372 70.8611 36.3234 70.8762 36.2774C70.8914 36.2313 70.9156 36.1888 70.9476 36.1523C70.9796 36.1158 71.0186 36.0862 71.0623 36.0651C71.1497 36.0233 71.2498 36.0169 71.3419 36.0471C71.4339 36.0772 71.5108 36.1417 71.5564 36.2271C72.4635 38.0238 74.4695 42.2948 73.4149 43.2005C73.0109 43.5003 72.5166 43.6535 72.0136 43.635Z" fill="#231F20"/>
<path d="M67.6536 35.1066C67.7092 34.4256 67.3593 33.8415 66.8722 33.8018C66.385 33.7622 65.945 34.282 65.8894 34.963C65.8338 35.644 66.1837 36.2282 66.6708 36.2678C67.158 36.3075 67.598 35.7876 67.6536 35.1066Z" fill="#231F20"/>
<path d="M76.7905 36.3671C76.8413 35.6857 76.4874 35.104 76 35.0677C75.5125 35.0315 75.0762 35.5544 75.0254 36.2358C74.9745 36.9171 75.3285 37.4989 75.8159 37.5351C76.3033 37.5714 76.7396 37.0484 76.7905 36.3671Z" fill="#231F20"/>
<path d="M70.5017 48.2006C69.374 48.2204 68.2582 47.9678 67.2494 47.4643C65.4868 46.5438 64.3584 44.7839 63.8938 42.236C63.8853 42.1881 63.8864 42.139 63.8971 42.0916C63.9077 42.0441 63.9277 41.9993 63.9558 41.9596C63.9839 41.9198 64.0196 41.8861 64.0609 41.8602C64.1021 41.8344 64.1481 41.8169 64.1961 41.8089C64.2917 41.7936 64.3895 41.8157 64.4691 41.8706C64.5488 41.9255 64.6042 42.0089 64.6239 42.1035C65.0369 44.4157 66.0399 45.9989 67.5739 46.8089C70.6714 48.4289 75.03 46.4702 75.0742 46.4481C75.1633 46.4082 75.2645 46.4052 75.3557 46.4397C75.4469 46.4742 75.5207 46.5434 75.561 46.6322C75.5818 46.676 75.5935 46.7236 75.5954 46.7721C75.5974 46.8206 75.5895 46.8689 75.5723 46.9143C75.5551 46.9597 75.5289 47.0011 75.4952 47.0361C75.4616 47.0712 75.4213 47.0991 75.3766 47.1182C73.8363 47.7882 72.1812 48.1557 70.5017 48.2006Z" fill="#231F20"/>
<path d="M72.7069 52.7293C72.7069 52.7293 66.0694 53.2742 62.6474 50.5791C62.6474 50.5791 65.5605 59.7838 71.6818 59.7543L72.7069 52.7293Z" fill="#231F20"/>
<path d="M71.6375 60.1223C65.3392 60.1223 62.404 51.0723 62.2786 50.6894C62.2569 50.6139 62.2595 50.5335 62.2859 50.4595C62.3124 50.3856 62.3614 50.3217 62.4261 50.277C62.4883 50.2287 62.5649 50.2024 62.6437 50.2024C62.7225 50.2024 62.7991 50.2287 62.8613 50.277C66.1579 52.847 72.5962 52.3536 72.6626 52.3462C72.7175 52.3424 72.7726 52.3508 72.8238 52.371C72.875 52.3912 72.9211 52.4225 72.9586 52.4628C72.996 52.503 73.024 52.5512 73.0405 52.6036C73.0569 52.6561 73.0613 52.7116 73.0535 52.766L72.0284 59.7983C72.0126 59.89 71.9645 59.973 71.8928 60.0324C71.8212 60.0918 71.7306 60.1237 71.6375 60.1223ZM63.3775 51.5068C64.3141 53.8116 66.9691 59.1503 71.3499 59.3786L72.257 53.1268C70.841 53.1857 66.475 53.2299 63.3923 51.5068H63.3775Z" fill="#231F20"/>
<path d="M41.0386 54.3861C27.417 52.6925 14.6287 110.431 22.0627 115.917C33.6562 124.481 69.0415 112.788 69.0415 112.788L65.5015 97.5523C65.5015 97.5523 39.9619 98.7673 39.4972 93.5317C39.0326 88.2961 53.7679 63.7528 51.7029 60.174C49.6379 56.5953 41.0386 54.3861 41.0386 54.3861Z" fill="#68E1FD"/>
<path d="M88.6 97.9792C88.5187 97.9816 88.4395 97.9534 88.378 97.9002C88.3165 97.847 88.2773 97.7727 88.2681 97.692C86.5129 85.3799 82.6631 64.7615 81.4168 63.5538C81.3561 63.4905 81.3224 63.4061 81.3227 63.3185C81.323 63.2309 81.3573 63.1468 81.4184 63.0839C81.4795 63.021 81.5626 62.9842 81.6503 62.9812C81.738 62.9782 81.8235 63.0092 81.8888 63.0678C83.4891 64.6216 87.6044 88.2738 88.9319 97.5963C88.9445 97.6852 88.9213 97.7754 88.8674 97.8472C88.8134 97.919 88.7332 97.9665 88.6442 97.9792H88.6Z" fill="#231F20"/>
<path d="M75.5684 127.11L52.0569 120.534L95.2375 112.427L118.609 122.206L75.5684 127.11Z" fill="white"/>
<path d="M75.5684 127.501C75.5368 127.507 75.5041 127.507 75.4725 127.501L51.961 120.873C51.8632 120.873 51.7694 120.834 51.7003 120.765C51.6311 120.696 51.5923 120.603 51.5923 120.505C51.5923 120.407 51.6311 120.314 51.7003 120.245C51.7694 120.176 51.8632 120.137 51.961 120.137L95.1416 112.037C95.2087 112.015 95.281 112.015 95.3481 112.037L118.719 121.816C118.794 121.847 118.856 121.903 118.896 121.973C118.937 122.044 118.952 122.126 118.941 122.206C118.93 122.287 118.892 122.363 118.833 122.42C118.774 122.477 118.698 122.514 118.616 122.523L75.6126 127.501H75.5684ZM53.6794 120.63L75.5979 126.764L117.163 122.029L95.1933 112.839L53.6794 120.63Z" fill="#231F20"/>
<path d="M61.696 102.817C66.8585 103.384 71.6449 103.753 76.446 105.763C79.1895 106.913 81.7805 108.397 84.1602 110.181C85.3728 111.04 86.5058 112.006 87.5454 113.068C88.3714 113.966 88.1059 114.842 86.7194 114.408C85.1071 113.904 83.5804 113.159 82.1911 112.199C85.513 114.905 88.4572 118.043 90.9452 121.529C91.2255 121.926 91.4984 122.493 91.1665 122.847C90.8346 123.2 90.0971 122.847 89.6915 122.479L82.3976 115.571C84.3285 117.235 85.9707 119.205 87.2577 121.403C87.4421 121.72 87.6191 122.14 87.4274 122.427C87.1029 122.965 86.2769 122.56 85.8344 122.11C83.6496 119.908 81.663 117.518 79.8975 114.968L83.8357 120.859C83.7985 120.967 83.74 121.067 83.6637 121.153C83.5874 121.239 83.4948 121.309 83.3912 121.359C83.2877 121.409 83.1752 121.438 83.0604 121.445C82.9455 121.451 82.8306 121.434 82.7221 121.396C82.2884 121.217 81.913 120.921 81.638 120.542L76.8664 115.071L79.6836 118.944C80.1261 119.548 80.5686 120.417 80.0597 120.984C79.5509 121.551 78.4004 120.984 77.7514 120.409C75.1409 118.031 72.2741 115.949 69.2037 114.202C68.0901 113.546 67.1387 112.655 65.9071 112.28C64.1371 111.735 61.9246 111.808 60.0809 111.602" fill="white"/>
<path d="M90.8125 123.347C90.3197 123.292 89.8612 123.068 89.5145 122.714L87.1545 120.505C87.3094 120.748 87.4643 120.998 87.6044 121.241C87.7537 121.433 87.8483 121.662 87.8781 121.903C87.908 122.144 87.872 122.389 87.774 122.611C87.7079 122.724 87.6161 122.821 87.506 122.892C87.3958 122.964 87.2704 123.009 87.1398 123.023C86.8608 123.02 86.5857 122.958 86.3318 122.843C86.0778 122.728 85.8507 122.561 85.6648 122.353C85.178 121.867 84.706 121.374 84.2414 120.88C84.2447 120.907 84.2447 120.935 84.2414 120.961C84.2134 121.098 84.1569 121.227 84.0756 121.34C83.9942 121.452 83.8899 121.547 83.7694 121.617C83.6102 121.712 83.4331 121.773 83.2492 121.797C83.0653 121.821 82.8784 121.808 82.7 121.757C82.2039 121.562 81.7739 121.23 81.461 120.799L80.5908 119.805C80.6993 120.045 80.7376 120.311 80.701 120.572C80.6645 120.832 80.5546 121.077 80.3843 121.278C80.278 121.397 80.1487 121.493 80.0042 121.56C79.8596 121.627 79.7029 121.664 79.5435 121.668C78.7733 121.584 78.0602 121.223 77.5375 120.652C74.9527 118.287 72.1074 116.221 69.0563 114.496C68.6801 114.275 68.3188 114.025 67.9648 113.76C67.3205 113.258 66.6012 112.86 65.8334 112.582C64.5475 112.257 63.2287 112.079 61.9025 112.051C61.2683 112.015 60.6488 111.978 60.0661 111.919C59.9773 111.908 59.8964 111.862 59.8411 111.792C59.7859 111.721 59.7607 111.632 59.7711 111.543C59.7757 111.5 59.7889 111.457 59.81 111.419C59.8311 111.38 59.8596 111.346 59.8939 111.319C59.9282 111.292 59.9676 111.271 60.0098 111.259C60.052 111.247 60.0963 111.244 60.1399 111.249C60.7151 111.308 61.3199 111.344 61.9394 111.381C63.3205 111.408 64.6939 111.593 66.0325 111.934C66.8638 112.237 67.6445 112.664 68.3483 113.2C68.6875 113.443 69.0341 113.679 69.3955 113.892C72.4884 115.647 75.3752 117.742 78.0021 120.137C78.4011 120.542 78.9168 120.812 79.4771 120.91C79.5457 120.907 79.613 120.891 79.6751 120.862C79.7373 120.833 79.7928 120.792 79.8385 120.741C80.2368 120.306 79.691 119.459 79.4403 119.113L76.623 115.247C76.5967 115.213 76.5773 115.175 76.566 115.134C76.5547 115.092 76.5517 115.049 76.5572 115.007C76.5627 114.964 76.5765 114.923 76.598 114.886C76.6194 114.849 76.6479 114.817 76.682 114.791C76.744 114.73 76.8274 114.696 76.9143 114.696C77.0012 114.696 77.0846 114.73 77.1466 114.791L81.9256 120.262C82.1588 120.588 82.4779 120.843 82.8475 120.998C82.9348 121.023 83.0261 121.029 83.116 121.018C83.206 121.007 83.2927 120.977 83.3711 120.932C83.4181 120.908 83.4586 120.872 83.4891 120.829L79.6468 115.063C79.5969 114.99 79.5782 114.9 79.5948 114.813C79.6114 114.726 79.6619 114.649 79.7353 114.599C79.8086 114.549 79.8988 114.531 79.9859 114.547C80.073 114.564 80.15 114.614 80.1999 114.688C81.9574 117.22 83.9315 119.595 86.0999 121.786C86.34 122.049 86.6675 122.217 87.0218 122.257C87.0509 122.257 87.0793 122.248 87.104 122.233C87.1286 122.217 87.1486 122.195 87.1619 122.169C87.243 122.044 87.1619 121.808 86.9923 121.484C86.1045 119.967 85.0427 118.559 83.8284 117.287L82.1838 115.726C82.1305 115.663 82.1023 115.582 82.1042 115.5C82.1062 115.417 82.1382 115.338 82.1944 115.278C82.2505 115.217 82.3269 115.179 82.4091 115.171C82.4914 115.162 82.5738 115.184 82.641 115.232C83.2236 115.733 83.7768 116.256 84.3078 116.808L89.9423 122.147C90.1612 122.396 90.4621 122.558 90.7904 122.604C90.8202 122.605 90.8499 122.599 90.8769 122.586C90.9039 122.573 90.9273 122.554 90.9453 122.53C91.1149 122.353 90.9453 121.956 90.7019 121.632C88.2321 118.171 85.3103 115.056 82.0141 112.368C81.9538 112.311 81.9166 112.233 81.9097 112.15C81.9029 112.068 81.9268 111.985 81.9769 111.919C82.027 111.852 82.0998 111.807 82.1815 111.79C82.2632 111.774 82.348 111.788 82.4198 111.83C83.7758 112.773 85.268 113.503 86.8448 113.995C87.361 114.157 87.6339 114.091 87.6855 113.995C87.7371 113.9 87.6855 113.576 87.3241 113.193C86.3008 112.144 85.1824 111.193 83.9833 110.35C81.6269 108.585 79.0605 107.119 76.3428 105.984C72.0136 104.18 67.6845 103.716 63.0678 103.222L61.6296 103.06C61.5859 103.056 61.5436 103.042 61.5051 103.021C61.4665 103 61.4325 102.972 61.4051 102.938C61.3776 102.903 61.3573 102.864 61.3452 102.822C61.3331 102.78 61.3295 102.736 61.3346 102.692C61.3392 102.648 61.3524 102.606 61.3735 102.568C61.3946 102.529 61.4231 102.495 61.4574 102.468C61.4917 102.44 61.5311 102.42 61.5733 102.408C61.6155 102.396 61.6598 102.392 61.7034 102.398L63.1784 102.552C67.8173 103.053 72.1906 103.524 76.6083 105.365C79.3774 106.51 81.9934 107.995 84.3963 109.783C85.629 110.659 86.7794 111.645 87.833 112.729C88.364 113.303 88.5263 113.929 88.2608 114.349C88.1059 114.584 87.6929 114.938 86.653 114.614C86.0529 114.431 85.4643 114.212 84.8904 113.959C87.2484 116.162 89.3805 118.594 91.255 121.219C91.7639 121.956 91.8303 122.552 91.4541 122.964C91.3736 123.053 91.2758 123.124 91.1668 123.173C91.0577 123.223 90.9396 123.249 90.8199 123.252L90.8125 123.347Z" fill="#231F20"/>
<path d="M118.609 122.206L129.369 93.4507L85.4214 94.3196L75.5684 127.11L118.609 122.206Z" fill="white"/>
<path d="M75.5684 127.5C75.5146 127.501 75.4615 127.489 75.4129 127.466C75.3644 127.444 75.3217 127.41 75.2881 127.368C75.2495 127.322 75.2226 127.267 75.2098 127.208C75.1969 127.149 75.1985 127.087 75.2144 127.029L85.0674 94.2386C85.0913 94.1644 85.1373 94.0993 85.1992 94.0519C85.2611 94.0046 85.3361 93.9772 85.414 93.9735L129.362 93.1045C129.422 93.1036 129.481 93.1172 129.535 93.1441C129.589 93.1711 129.636 93.2105 129.671 93.2592C129.703 93.3088 129.724 93.365 129.732 93.4236C129.739 93.4822 129.734 93.5417 129.716 93.5979L118.955 122.316C118.931 122.382 118.89 122.439 118.835 122.482C118.78 122.525 118.715 122.551 118.646 122.559L75.6126 127.5H75.5684ZM85.7016 94.7025L76.1141 126.705L118.373 121.889L128.86 93.8483L85.7016 94.7025Z" fill="#231F20"/>
<path d="M116.264 122.471C116.264 122.471 128.189 132.14 124 141.005C119.811 149.871 43.6125 160.004 43.6125 160.004L40.1831 148.413C40.1831 148.413 99.9575 117.928 116.264 122.471Z" fill="#231F20"/>
<path d="M43.6125 160.372C43.533 160.371 43.4559 160.345 43.3923 160.297C43.3287 160.249 43.2819 160.183 43.2585 160.107L39.8291 148.517C39.8029 148.435 39.8071 148.347 39.841 148.268C39.8749 148.19 39.9362 148.126 40.0135 148.089C40.161 148.008 55.1544 140.387 71.9546 133.406C94.559 124.017 109.493 120.218 116.337 122.118C116.389 122.132 116.437 122.157 116.477 122.191C118.558 123.957 120.407 125.978 121.979 128.207C125.268 132.935 126.065 137.412 124.28 141.168C120.017 150.107 46.7764 159.952 43.6641 160.365L43.6125 160.372ZM40.6182 148.59L43.878 159.577C49.2027 158.84 119.656 149.135 123.616 140.836C127.51 132.648 116.979 123.539 116.064 122.795C100.562 118.664 45.0875 146.381 40.6625 148.605L40.6182 148.59Z" fill="#231F20"/>
<path d="M36.2375 118.031C36.2375 118.031 95.4071 141.919 110.076 148.222L101.551 161.374C101.551 161.374 46.9165 160.306 31.252 146.602C15.5875 132.898 16.6274 110.085 36.2375 118.031Z" fill="#231F20"/>
<path d="M101.55 161.757C101.418 161.757 87.6929 161.469 72.2349 159.511C51.4374 156.867 37.5724 152.626 31.016 146.889C22.815 139.717 17.0699 127.125 21.5834 119.813C23.0584 117.383 26.9966 113.885 36.3924 117.685C36.9824 117.928 95.7316 141.654 110.238 147.876C110.288 147.896 110.332 147.927 110.368 147.967C110.403 148.006 110.43 148.053 110.445 148.104C110.46 148.156 110.463 148.21 110.456 148.264C110.448 148.317 110.429 148.368 110.4 148.414L101.875 161.587C101.84 161.641 101.792 161.685 101.735 161.715C101.678 161.745 101.615 161.759 101.55 161.757ZM28.9731 116.75C25.942 116.75 23.6189 117.913 22.2029 120.196C18.7219 125.844 21.6202 137.699 31.4954 146.337C46.4002 159.378 97.6712 160.925 101.351 161.013L109.538 148.384C94.3894 141.904 36.6947 118.605 36.1047 118.37C33.8523 117.382 31.4318 116.832 28.9731 116.75Z" fill="#231F20"/>
<path d="M118.837 110.726C118.901 111.066 119.048 111.385 119.265 111.654L120.416 113.37C120.374 113.192 120.293 113.026 120.18 112.884C120.067 112.741 119.923 112.624 119.76 112.543C119.597 112.462 119.418 112.417 119.236 112.412C119.053 112.407 118.872 112.443 118.705 112.515C118.378 112.692 118.107 112.955 117.92 113.276C117.734 113.597 117.641 113.963 117.65 114.334C117.683 115.075 117.858 115.802 118.166 116.477C118.985 118.598 120.836 121.698 123.513 120.093C125.328 119.003 125.829 115.159 126.087 113.244C126.596 109.474 125.438 104.629 120.585 105.365C120.725 107.222 121.419 108.994 122.577 110.454C121.788 109.688 118.594 108.502 118.837 110.726Z" fill="white"/>
<path d="M122.031 120.873C121.734 120.875 121.44 120.825 121.161 120.726C119.413 120.129 118.321 117.883 117.827 116.595C117.505 115.88 117.323 115.11 117.289 114.327C117.277 113.891 117.389 113.461 117.612 113.087C117.835 112.713 118.161 112.41 118.55 112.213C118.731 112.131 118.927 112.089 119.125 112.088L118.963 111.845C118.711 111.529 118.544 111.154 118.476 110.755C118.417 110.463 118.458 110.159 118.592 109.893C118.725 109.626 118.944 109.411 119.214 109.283C119.97 109.049 120.786 109.11 121.5 109.452C120.791 108.216 120.368 106.837 120.261 105.417C120.256 105.332 120.283 105.248 120.336 105.181C120.389 105.115 120.465 105.07 120.549 105.056C121.287 104.895 122.053 104.915 122.781 105.115C123.51 105.315 124.179 105.689 124.73 106.205C126.463 107.913 126.751 110.991 126.434 113.311C126.146 115.431 125.63 119.238 123.698 120.402C123.198 120.713 122.62 120.876 122.031 120.873ZM119.169 112.773C119.051 112.771 118.933 112.794 118.823 112.839C118.554 112.989 118.333 113.21 118.182 113.478C118.031 113.745 117.957 114.049 117.967 114.356C117.996 115.054 118.162 115.739 118.454 116.374C118.823 117.316 119.841 119.577 121.404 120.107C121.727 120.21 122.069 120.238 122.404 120.188C122.739 120.138 123.058 120.012 123.336 119.82C124.996 118.826 125.497 115.085 125.741 113.288C126.043 111.079 125.8 108.207 124.266 106.661C123.83 106.252 123.306 105.948 122.735 105.773C122.163 105.598 121.559 105.557 120.969 105.652C121.159 107.328 121.815 108.918 122.864 110.24C122.918 110.306 122.944 110.39 122.938 110.476C122.931 110.561 122.891 110.64 122.827 110.696C122.764 110.755 122.681 110.788 122.595 110.788C122.509 110.788 122.426 110.755 122.363 110.696C121.869 110.21 120.239 109.518 119.509 109.872C119.346 109.945 119.14 110.115 119.192 110.689C119.256 110.973 119.382 111.239 119.56 111.47L120.18 112.383C120.342 112.488 120.479 112.628 120.581 112.792C120.683 112.956 120.748 113.141 120.77 113.333C120.778 113.408 120.76 113.483 120.72 113.547C120.68 113.611 120.62 113.66 120.549 113.686C120.478 113.711 120.401 113.712 120.33 113.688C120.259 113.664 120.198 113.616 120.158 113.554L119.7 112.876C119.535 112.796 119.352 112.761 119.169 112.773Z" fill="#231F20"/>
<path d="M102.222 145.498C102.175 145.505 102.128 145.505 102.082 145.498C100.791 144.997 70.2879 133.207 63.4144 129.003C63.3289 128.95 63.2678 128.865 63.2443 128.767C63.2209 128.669 63.2369 128.566 63.289 128.48C63.3147 128.437 63.3488 128.399 63.3892 128.37C63.4296 128.34 63.4756 128.319 63.5244 128.307C63.5732 128.296 63.6238 128.294 63.6733 128.302C63.7228 128.31 63.7702 128.328 63.8126 128.355C70.6271 132.523 102.037 144.665 102.354 144.783C102.449 144.82 102.526 144.892 102.567 144.984C102.609 145.077 102.612 145.182 102.576 145.277C102.545 145.344 102.495 145.401 102.432 145.441C102.369 145.48 102.296 145.5 102.222 145.498Z" fill="white"/>
<path d="M66.6446 97.4123C73.3693 97.4123 78.8208 92.2593 78.8208 85.9028C78.8208 79.5463 73.3693 74.3933 66.6446 74.3933C59.9199 74.3933 54.4685 79.5463 54.4685 85.9028C54.4685 92.2593 59.9199 97.4123 66.6446 97.4123Z" fill="#231F20"/>
<path d="M66.6446 97.7732C59.7269 97.7732 54.1071 92.4492 54.1071 85.9028C54.1071 79.3565 59.7342 74.0251 66.6446 74.0251C73.555 74.0251 79.1821 79.3565 79.1821 85.9028C79.1821 92.4492 73.5624 97.7732 66.6446 97.7732ZM66.6446 74.7615C60.1325 74.7615 54.8446 79.7615 54.8446 85.9028C54.8446 92.0442 60.1399 97.0368 66.6446 97.0368C73.1494 97.0368 78.4446 92.0442 78.4446 85.9028C78.4446 79.7615 73.1567 74.7615 66.6446 74.7615Z" fill="#231F20"/>
<path d="M60.221 89.6435L57.271 87.9204V85.645L60.221 83.9219C61.2043 83.3573 62.1877 82.7829 63.171 82.1987V84.9528C62.6474 85.2768 62.1237 85.5934 61.6001 85.8953C61.0765 86.1972 60.5602 86.5065 60.0292 86.8379L61.6001 87.7068L63.171 88.5831V91.3666L60.221 89.6435Z" fill="white"/>
<path d="M64.0044 92.0957L67.478 78.8999L69.2922 79.7173L65.8039 92.891L64.0044 92.0957Z" fill="white"/>
<path d="M73.1125 83.9219L76.0625 85.645V87.9204L73.1125 89.6435L70.1625 91.3666V88.5831L71.7334 87.7068L73.3042 86.8379C72.7806 86.5065 72.257 86.1899 71.7334 85.8953C71.2098 85.6008 70.6935 85.2768 70.1625 84.9528V82.1987L73.1125 83.9219Z" fill="white"/>
<path d="M41.4 117.928C41.3022 117.934 41.2061 117.9 41.1328 117.836C41.0595 117.771 41.015 117.679 41.0091 117.582C41.0033 117.484 41.0365 117.388 41.1015 117.315C41.1665 117.242 41.258 117.197 41.3558 117.191L59.0558 115.049L61.8656 100.903L39.1875 98.9882C39.1333 98.9846 39.0806 98.9688 39.0334 98.942C38.9862 98.9153 38.9456 98.8782 38.9146 98.8336C38.8815 98.7901 38.859 98.7395 38.8488 98.6859C38.8385 98.6322 38.8409 98.5769 38.8556 98.5243L48.1776 63.8706C48.2031 63.773 48.2663 63.6894 48.3534 63.6383C48.4406 63.5872 48.5445 63.5728 48.6423 63.5982C48.7401 63.6236 48.8238 63.6867 48.8749 63.7737C48.9261 63.8607 48.9406 63.9644 48.9151 64.0621L39.7038 98.296L62.3229 100.166C62.3747 100.172 62.425 100.188 62.4706 100.213C62.5161 100.239 62.5562 100.273 62.5884 100.314C62.6193 100.356 62.6411 100.403 62.6525 100.454C62.664 100.505 62.6647 100.557 62.6548 100.608L59.7048 115.417C59.6888 115.492 59.6497 115.561 59.5929 115.614C59.5362 115.667 59.4645 115.701 59.3876 115.711L41.4 117.884V117.928Z" fill="#231F20"/>
<path d="M138.868 17.9282H102.096V21.7279H138.868V17.9282Z" fill="#E6E7E8"/>
<path d="M179.917 17.9282H143.146V21.7279H179.917V17.9282Z" fill="#E6E7E8"/>
<path d="M138.868 24.4377H117.281V28.2374H138.868V24.4377Z" fill="#68E1FD"/>
<path d="M175.809 24.4377H143.146V28.2374H175.809V24.4377Z" fill="#E6E7E8"/>
<path d="M138.868 30.9546H111.662V34.7543H138.868V30.9546Z" fill="#E6E7E8"/>
<path d="M158.486 30.9546H143.146V34.7543H158.486V30.9546Z" fill="#E6E7E8"/>
<path d="M138.875 37.4641H123.004V41.2638H138.875V37.4641Z" fill="#E6E7E8"/>
<path d="M173.191 37.4641H143.146V41.2638H173.191V37.4641Z" fill="#68E1FD"/>
<path d="M138.868 43.9812H133.816V47.7809H138.868V43.9812Z" fill="#68E1FD"/>
<path d="M163.331 43.9812H143.146V47.7809H163.331V43.9812Z" fill="#E6E7E8"/>
<path d="M138.234 70.7556H104.441V75.1076H138.234V70.7556Z" fill="#68E1FD"/>
<path d="M164.415 70.7556H143.662V75.1076H164.415V70.7556Z" fill="#E6E7E8"/>
<path d="M138.226 78.2078H110.791V82.5597H138.226V78.2078Z" fill="#E6E7E8"/>
<path d="M173.877 78.2078H143.662V82.5597H173.877V78.2078Z" fill="#E6E7E8"/>
<path d="M138.226 85.6672H124.509V90.0192H138.226V85.6672Z" fill="#E6E7E8"/>
<path d="M179.593 85.6672H143.662V90.0192H179.593V85.6672Z" fill="#E6E7E8"/>
<path d="M138.226 93.1267H133.086V97.4787H138.226V93.1267Z" fill="#E6E7E8"/>
<path d="M181.85 93.1267H143.662V97.4787H181.85V93.1267Z" fill="#68E1FD"/>
<path d="M169.312 100.579H143.662V104.931H169.312V100.579Z" fill="#E6E7E8"/>
<path d="M156.664 61.3152L153.891 60.2107V58.7379L156.664 57.6334L159.437 56.5288V58.2814C158.935 58.4949 158.441 58.6937 157.962 58.8852C157.482 59.0767 156.974 59.2755 156.487 59.489L157.962 60.0487L159.437 60.6083V62.3903L156.664 61.3152Z" fill="#E6E7E8"/>
<path d="M160.256 62.8837L163.545 54.4375L165.271 54.953L161.959 63.436L160.256 62.8837Z" fill="#E6E7E8"/>
<path d="M168.855 57.6556C169.777 58.0238 170.706 58.392 171.628 58.7601V60.2329L168.855 61.3374L166.082 62.442V60.6379L167.557 60.0783L169.032 59.5186C168.53 59.3051 168.036 59.1062 167.557 58.9148C167.077 58.7233 166.568 58.5245 166.082 58.311V56.551L168.855 57.6556Z" fill="#E6E7E8"/>
<path d="M103.062 8.87085C103.061 8.70015 103.099 8.53144 103.173 8.37748C103.237 8.22063 103.336 8.07985 103.461 7.96511C103.583 7.85178 103.726 7.76193 103.881 7.70002C104.047 7.63194 104.225 7.59692 104.405 7.59692C104.575 7.59848 104.742 7.63351 104.899 7.70002C105.051 7.7637 105.191 7.85341 105.312 7.96511C105.43 8.08419 105.525 8.22399 105.592 8.37748C105.66 8.53305 105.695 8.70104 105.695 8.87085C105.695 9.04303 105.66 9.21342 105.592 9.37158C105.523 9.51738 105.428 9.64957 105.312 9.76186C105.065 9.99184 104.742 10.1229 104.405 10.13C104.225 10.1301 104.047 10.095 103.881 10.027C103.724 9.96786 103.581 9.87768 103.461 9.76186C103.338 9.65382 103.24 9.52073 103.173 9.37158C103.099 9.21505 103.061 9.04393 103.062 8.87085ZM103.062 13.186C103.066 13.0174 103.103 12.8511 103.171 12.6969C103.24 12.5427 103.338 12.4036 103.461 12.2876C103.581 12.1695 103.724 12.0768 103.881 12.0152C104.048 11.9496 104.226 11.9171 104.405 11.9194C104.574 11.9185 104.742 11.951 104.899 12.0152C105.053 12.0787 105.193 12.1712 105.312 12.2876C105.43 12.404 105.525 12.5413 105.592 12.6926C105.66 12.8495 105.695 13.0187 105.695 13.1897C105.695 13.3606 105.66 13.5298 105.592 13.6867C105.525 13.8358 105.43 13.9708 105.312 14.0844C105.191 14.1961 105.051 14.2858 104.899 14.3495C104.742 14.4136 104.574 14.4462 104.405 14.4452C104.226 14.4475 104.048 14.415 103.881 14.3495C103.726 14.2876 103.583 14.1977 103.461 14.0844C103.336 13.975 103.238 13.8391 103.173 13.6867C103.098 13.5304 103.06 13.3591 103.062 13.186Z" fill="#E6E7E8"/>
<path d="M146.125 132.773C146.417 132.788 146.705 132.705 146.944 132.537C147.15 132.383 147.246 132.059 147.246 131.558V129.275C147.245 128.897 147.295 128.521 147.393 128.156C147.485 127.816 147.64 127.496 147.851 127.213C148.065 126.941 148.337 126.72 148.647 126.565C149.016 126.393 149.42 126.31 149.827 126.322H151.487V128.693H150.904C150.771 128.68 150.637 128.703 150.516 128.76C150.395 128.818 150.292 128.906 150.218 129.017C150.091 129.241 150.027 129.496 150.034 129.754V132.081C150.042 132.375 149.989 132.669 149.879 132.942C149.79 133.153 149.665 133.348 149.51 133.517C149.374 133.662 149.212 133.78 149.031 133.863C148.886 133.939 148.729 133.986 148.566 134.003C148.727 134.032 148.883 134.082 149.031 134.15C149.211 134.227 149.374 134.34 149.51 134.481C149.865 134.874 150.053 135.389 150.034 135.917V138.251C150.024 138.509 150.088 138.765 150.218 138.988C150.291 139.1 150.394 139.19 150.515 139.249C150.636 139.307 150.77 139.332 150.904 139.319H151.487V141.69H149.827C149.42 141.702 149.016 141.619 148.647 141.447C148.337 141.292 148.065 141.071 147.851 140.799C147.642 140.516 147.487 140.196 147.393 139.857C147.295 139.489 147.246 139.11 147.246 138.73V136.447C147.272 136.273 147.258 136.095 147.205 135.927C147.153 135.759 147.064 135.604 146.944 135.475C146.705 135.308 146.417 135.225 146.125 135.24V132.773Z" fill="#E6E7E8"/>
<path d="M171.598 135.225C171.304 135.21 171.014 135.293 170.772 135.461C170.654 135.591 170.565 135.745 170.513 135.913C170.461 136.081 170.446 136.258 170.47 136.433V138.715C170.47 139.096 170.42 139.474 170.322 139.842C170.232 140.183 170.077 140.503 169.865 140.785C169.654 141.06 169.381 141.282 169.069 141.433C168.7 141.604 168.296 141.688 167.889 141.676H166.229V139.282H166.819C166.952 139.293 167.085 139.268 167.204 139.21C167.324 139.152 167.425 139.062 167.498 138.951C167.627 138.728 167.691 138.473 167.682 138.215V135.88C167.675 135.588 167.727 135.297 167.837 135.026C167.927 134.812 168.055 134.615 168.213 134.444C168.347 134.304 168.507 134.191 168.685 134.113C168.836 134.046 168.995 133.996 169.157 133.966C168.993 133.949 168.832 133.901 168.685 133.826C168.506 133.743 168.346 133.625 168.213 133.48C168.053 133.313 167.925 133.119 167.837 132.905C167.727 132.632 167.674 132.339 167.682 132.044V129.709C167.689 129.452 167.625 129.197 167.498 128.973C167.424 128.863 167.322 128.775 167.203 128.718C167.084 128.661 166.951 128.637 166.819 128.649H166.229V126.322H167.889C168.296 126.31 168.7 126.393 169.069 126.565C169.381 126.716 169.654 126.938 169.865 127.213C170.078 127.494 170.234 127.815 170.322 128.156C170.421 128.521 170.47 128.897 170.47 129.275V131.558C170.445 131.733 170.46 131.912 170.512 132.081C170.564 132.25 170.653 132.406 170.772 132.537C171.014 132.705 171.304 132.788 171.598 132.773V135.225Z" fill="#E6E7E8"/>
</g>
</g>
<defs>
<filter id="filter0_d" x="-4" y="0" width="190" height="187" filterUnits="userSpaceOnUse" color-interpolation-filters="sRGB">
<feFlood flood-opacity="0" result="BackgroundImageFix"/>
<feColorMatrix in="SourceAlpha" type="matrix" values="0 0 0 0 0 0 0 0 0 0 0 0 0 0 0 0 0 0 127 0"/>
<feOffset dy="4"/>
<feGaussianBlur stdDeviation="2"/>
<feColorMatrix type="matrix" values="0 0 0 0 0 0 0 0 0 0 0 0 0 0 0 0 0 0 0.25 0"/>
<feBlend mode="normal" in2="BackgroundImageFix" result="effect1_dropShadow"/>
<feBlend mode="normal" in="SourceGraphic" in2="effect1_dropShadow" result="shape"/>
</filter>
<clipPath id="clip0">
<rect width="182" height="179" rx="30" fill="white"/>
</clipPath>
</defs>
</svg>
