<svg width="53" height="53" viewBox="0 0 53 53" fill="none" xmlns="http://www.w3.org/2000/svg">
<path d="M37.211 0H15.789C7.0829 0 0 7.0829 0 15.789V37.211C0 45.9171 7.0829 53 15.789 53H37.211C45.9171 53 53 45.9171 53 37.211V15.789C52.9999 7.0829 45.917 0 37.211 0ZM47.6682 37.211C47.6682 42.9863 42.9863 47.6682 37.211 47.6682H15.789C10.0137 47.6682 5.3318 42.9863 5.3318 37.211V15.789C5.3318 10.0136 10.0137 5.3318 15.789 5.3318H37.211C42.9863 5.3318 47.6682 10.0136 47.6682 15.789V37.211Z" fill="url(#paint0_linear)"/>
<path d="M26.5 12.7922C18.9416 12.7922 12.7923 18.9415 12.7923 26.4998C12.7923 34.0582 18.9416 40.2075 26.5 40.2075C34.0584 40.2075 40.2077 34.0583 40.2077 26.4998C40.2077 18.9414 34.0584 12.7922 26.5 12.7922ZM26.5 34.8758C21.8741 34.8758 18.1241 31.1258 18.1241 26.4999C18.1241 21.874 21.8742 18.124 26.5 18.124C31.1259 18.124 34.8759 21.874 34.8759 26.4999C34.8759 31.1257 31.1258 34.8758 26.5 34.8758Z" fill="url(#paint1_linear)"/>
<path d="M40.2342 16.1799C42.0483 16.1799 43.5189 14.7093 43.5189 12.8952C43.5189 11.0812 42.0483 9.6106 40.2342 9.6106C38.4202 9.6106 36.9496 11.0812 36.9496 12.8952C36.9496 14.7093 38.4202 16.1799 40.2342 16.1799Z" fill="url(#paint2_linear)"/>
<defs>
<linearGradient id="paint0_linear" x1="26.5" y1="52.8457" x2="26.5" y2="0.41166" gradientUnits="userSpaceOnUse">
<stop stop-color="#E09B3D"/>
<stop offset="0.3" stop-color="#C74C4D"/>
<stop offset="0.6" stop-color="#C21975"/>
<stop offset="1" stop-color="#7024C4"/>
</linearGradient>
<linearGradient id="paint1_linear" x1="26.5" y1="52.8456" x2="26.5" y2="0.411587" gradientUnits="userSpaceOnUse">
<stop stop-color="#E09B3D"/>
<stop offset="0.3" stop-color="#C74C4D"/>
<stop offset="0.6" stop-color="#C21975"/>
<stop offset="1" stop-color="#7024C4"/>
</linearGradient>
<linearGradient id="paint2_linear" x1="40.2342" y1="52.8457" x2="40.2342" y2="0.411673" gradientUnits="userSpaceOnUse">
<stop stop-color="#E09B3D"/>
<stop offset="0.3" stop-color="#C74C4D"/>
<stop offset="0.6" stop-color="#C21975"/>
<stop offset="1" stop-color="#7024C4"/>
</linearGradient>
</defs>
</svg>
