<svg width="592" height="444" viewBox="0 0 592 444" fill="none" xmlns="http://www.w3.org/2000/svg">
<path d="M268.956 102.351L30.6479 240.024C28.3336 241.361 26.4165 243.282 25.0914 245.593C23.7662 247.903 23.0801 250.521 23.1026 253.18C23.1251 255.839 23.8555 258.445 25.2196 260.733C26.5837 263.021 28.5329 264.91 30.8696 266.208L322.588 428.333C326.114 430.292 330.08 431.337 334.12 431.37C338.16 431.403 342.144 430.425 345.702 428.524L569.822 308.816C572.681 307.29 575.079 305.035 576.768 302.282C578.458 299.53 579.379 296.381 579.436 293.158C579.494 289.935 578.685 286.755 577.094 283.945C575.503 281.135 573.187 278.798 570.384 277.172L268.956 102.351Z" fill="#FFD6A9"/>
<path d="M104.291 198.091L74.8364 215.087C74.8364 215.087 76.4769 239.906 106.626 236.061L160.967 206.501" fill="url(#paint0_linear)"/>
<path d="M137.026 211.623C155.121 211.623 169.79 204.421 169.79 195.537C169.79 186.653 155.121 179.451 137.026 179.451C118.93 179.451 104.261 186.653 104.261 195.537C104.261 204.421 118.93 211.623 137.026 211.623Z" fill="#F3A71C"/>
<path d="M169.775 152.694V196.432C169.775 196.432 145.39 218.845 104.261 196.799V152.767" fill="#F3A71C"/>
<path d="M109.168 168.325C109.168 168.325 103.744 160.077 98.6303 164.832C93.5168 169.588 97.9948 186.085 112.995 187.67V194.333C112.995 194.333 94.1523 191.794 91.5956 174.989C89.0388 158.183 101.187 155.585 107.246 160.209" fill="#F3A71C"/>
<path d="M294.627 210.904L266.355 224.422C265.289 224.929 264.383 225.716 263.734 226.696C263.085 227.677 262.717 228.814 262.67 229.987C262.623 231.16 262.898 232.323 263.467 233.352C264.035 234.38 264.875 235.236 265.897 235.826L332.918 274.648C334.366 275.487 336.084 275.739 337.714 275.351C339.345 274.962 340.761 273.964 341.667 272.563L357.924 247.406" fill="#56403D"/>
<path d="M230.383 295.607L119.128 237.426L102.133 248.434L283.557 347.065L308.533 330.847" fill="url(#paint1_linear)"/>
<path d="M326.283 350.749L299.799 366.337C299.799 366.337 317.164 382.863 337.382 391.288L361.959 375.348" fill="url(#paint2_linear)"/>
<path d="M323.741 339.58V351.879L361.959 375.363L407.817 347.535V337.055" fill="#6DE1FC"/>
<path d="M323.741 339.58V351.879L361.959 375.363L407.817 347.535V337.055" fill="#E54C3C"/>
<path d="M407.817 337.055L368.875 313.924L323.741 339.58L362.683 363.078L407.817 337.055Z" fill="#F5604B"/>
<path d="M370.855 345.363C369.846 344.154 368.988 342.828 368.299 341.414C368.136 340.475 370.442 335.999 370.87 336.131C372.417 336.901 373.866 337.852 375.186 338.963" fill="#C67445"/>
<path d="M371.269 338.024C371.358 338.376 369.998 345.113 370.855 345.363C372.669 345.531 374.495 345.531 376.309 345.363C376.651 342.93 376.859 340.48 376.93 338.024" fill="#56403D"/>
<path d="M377.698 329.423L370.87 331.316C370.87 331.478 369.747 337.584 370.604 338.494C371.695 339.264 372.83 339.969 374.003 340.607C373.995 342.741 374.119 344.873 374.373 346.992C374.778 347.067 375.194 347.067 375.599 346.992C375.88 344.776 376.264 340.27 376.264 340.27C376.264 340.27 378.26 339.58 378.378 338.963C378.496 338.347 377.698 329.423 377.698 329.423Z" fill="#C67445"/>
<path d="M391.605 377.168C391.605 377.168 388.649 373.426 388.413 372.237C388.176 371.048 391.088 365.471 391.634 365.632C393.563 366.595 395.369 367.782 397.014 369.169" fill="#C67445"/>
<path d="M392.122 367.98C392.226 368.421 390.526 376.787 391.605 377.168C393.871 377.378 396.152 377.378 398.418 377.168C398.772 377.168 399.186 367.98 399.186 367.98" fill="#56403D"/>
<path d="M400.162 357.325L391.634 359.688C391.634 359.893 390.23 367.511 391.294 368.641C392.359 369.771 395.61 371.077 395.536 371.283C395.525 373.941 395.678 376.598 395.994 379.238C396.483 379.326 396.983 379.326 397.472 379.238C397.812 376.464 398.3 370.842 398.3 370.842C398.3 370.842 400.797 369.976 400.93 369.213C401.063 368.45 400.162 357.325 400.162 357.325Z" fill="#C67445"/>
<path d="M448.459 145.854L222.935 16.8264C221.384 15.9375 219.625 15.4708 217.835 15.4735C216.045 15.4761 214.287 15.9481 212.74 16.8417C211.192 17.7352 209.91 19.0187 209.022 20.5623C208.134 22.1059 207.672 23.855 207.683 25.6328V159.857C207.671 161.342 208.056 162.804 208.798 164.093C209.541 165.382 210.614 166.453 211.91 167.195L452.301 305C453.131 305.478 454.073 305.729 455.032 305.73C455.99 305.731 456.933 305.48 457.763 305.004C458.593 304.528 459.282 303.842 459.761 303.017C460.24 302.192 460.491 301.256 460.489 300.303V166.52C460.488 162.329 459.376 158.213 457.264 154.585C455.152 150.957 452.115 147.946 448.459 145.854Z" fill="#68E1FD"/>
<path d="M222.964 26.9684L441.69 151.916C444.028 153.252 445.97 155.176 447.319 157.496C448.669 159.815 449.378 162.447 449.375 165.126V265.753C449.373 266.716 449.117 267.662 448.632 268.496C448.147 269.331 447.45 270.024 446.611 270.506C445.772 270.989 444.82 271.245 443.85 271.248C442.88 271.251 441.926 271.001 441.084 270.523L218.087 143.418C217.253 142.945 216.56 142.261 216.077 141.437C215.594 140.612 215.339 139.675 215.338 138.721V31.3863C215.348 30.503 215.588 29.6372 216.035 28.8736C216.482 28.1099 217.121 27.4745 217.89 27.0294C218.658 26.5843 219.529 26.3447 220.419 26.334C221.308 26.3233 222.185 26.5419 222.964 26.9684V26.9684Z" fill="white"/>
<path d="M209.663 175.84C213.683 175.18 260.251 204.123 260.251 204.123V215.439L241.157 226.08L189.239 197.797V184.5L209.663 175.84Z" fill="#6DE1FC"/>
<path d="M209.663 175.84C213.683 175.18 260.251 204.123 260.251 204.123V215.439L241.157 226.08L189.239 197.797V184.5L209.663 175.84Z" fill="#F1A317"/>
<path d="M178.184 203.932L119.069 237.426C118.452 237.778 117.94 238.286 117.583 238.898C117.227 239.51 117.039 240.205 117.039 240.912C117.039 241.619 117.227 242.313 117.583 242.925C117.94 243.537 118.452 244.045 119.069 244.398L282.981 338.024C284.97 339.163 287.225 339.762 289.52 339.762C291.816 339.762 294.071 339.163 296.06 338.024L351.259 306.365C351.918 306.002 352.467 305.47 352.849 304.824C353.231 304.179 353.433 303.444 353.433 302.696C353.433 301.947 353.231 301.212 352.849 300.567C352.467 299.922 351.918 299.39 351.259 299.026L185.441 203.903C184.331 203.288 183.08 202.967 181.809 202.972C180.538 202.977 179.289 203.308 178.184 203.932V203.932Z" fill="#974C26"/>
<path d="M216.048 313.528C215.92 312.755 215.604 312.025 215.127 311.401C214.651 310.777 214.028 310.277 213.314 309.946L204.565 304.927L191.042 297.148L174.889 287.857L157.701 277.965L141.075 268.41L126.621 260.102L115.936 253.953L110.32 250.724C110.32 250.841 110.128 250.841 110.01 250.812C109.335 250.636 108.625 250.639 107.951 250.82C107.277 251.001 106.662 251.353 106.168 251.843C105.674 252.332 105.317 252.942 105.133 253.61C104.948 254.279 104.943 254.984 105.118 255.655C106.015 258.203 107.708 260.399 109.951 261.922C116.491 266.586 123.318 270.841 130.39 274.662V272.152C125.631 269.569 115.375 263.728 111.059 259.324L113.114 260.513L118.774 263.801L127.286 268.747L137.912 274.912L149.913 281.869L162.534 289.207L175.037 296.473L186.682 303.224L196.717 309.095L204.402 313.498C206.752 314.863 209.294 316.713 212.028 317.241C212.542 317.277 213.057 317.208 213.543 317.038C214.028 316.868 214.473 316.6 214.851 316.252C215.228 315.904 215.528 315.482 215.734 315.013C215.94 314.545 216.047 314.039 216.048 313.528V313.528Z" fill="#6DE1FC"/>
<path d="M216.048 313.528C215.92 312.755 215.604 312.025 215.127 311.401C214.651 310.777 214.028 310.277 213.314 309.946L204.565 304.927L191.042 297.148L174.889 287.857L157.701 277.965L141.075 268.41L126.621 260.102L115.936 253.953L110.32 250.724C110.32 250.841 110.128 250.841 110.01 250.812C109.335 250.636 108.625 250.639 107.951 250.82C107.277 251.001 106.662 251.353 106.168 251.843C105.674 252.332 105.317 252.942 105.133 253.61C104.948 254.279 104.943 254.984 105.118 255.655C106.015 258.203 107.708 260.399 109.951 261.922C116.491 266.586 123.318 270.841 130.39 274.662V272.152C125.631 269.569 115.375 263.728 111.059 259.324L113.114 260.513L118.774 263.801L127.286 268.747L137.912 274.912L149.913 281.869L162.534 289.207L175.037 296.473L186.682 303.224L196.717 309.095L204.402 313.498C206.752 314.863 209.294 316.713 212.028 317.241C212.542 317.277 213.057 317.208 213.543 317.038C214.028 316.868 214.473 316.6 214.851 316.252C215.228 315.904 215.528 315.482 215.734 315.013C215.94 314.545 216.047 314.039 216.048 313.528V313.528Z" fill="#999A1C"/>
<path d="M314.96 216.77C317.541 216.276 319.173 213.501 318.605 210.572C318.037 207.643 315.484 205.668 312.904 206.162C310.323 206.656 308.691 209.43 309.259 212.359C309.827 215.289 312.38 217.263 314.96 216.77Z" fill="#AB643C"/>
<path d="M314.785 97.8744L378.526 134.568C379.179 134.943 379.717 135.489 380.082 136.146C380.446 136.803 380.624 137.546 380.595 138.296L378.393 195.111C378.366 195.821 378.155 196.512 377.78 197.117C377.405 197.723 376.88 198.221 376.254 198.565C375.628 198.909 374.923 199.087 374.208 199.081C373.492 199.075 372.791 198.886 372.171 198.531L310.632 163.408C309.998 163.047 309.471 162.525 309.105 161.896C308.739 161.267 308.547 160.553 308.548 159.827V101.456C308.546 100.73 308.736 100.016 309.1 99.3868C309.465 98.7575 309.989 98.2348 310.622 97.8714C311.255 97.5081 311.973 97.317 312.704 97.3176C313.435 97.3181 314.153 97.5101 314.785 97.8744V97.8744Z" fill="#A8A93D"/>
<path d="M337.618 107.84C337.622 107.796 337.622 107.752 337.618 107.708L337.381 105.727C334.913 105.609 333.509 106.196 331.041 106.211C329.821 107.453 329.012 109.035 328.721 110.746C328.721 111.965 328.869 113.682 330.376 113.506C330.613 114.636 331.278 116.118 332.623 115.81L332.8 115.737C332.889 116.485 333.125 117.204 333.849 117.424C334.574 117.645 335.032 117.248 335.327 116.588C335.593 117.586 336.066 119.112 337.086 119.098C338.475 119.098 338.564 117.058 338.209 115.032C338.178 112.624 337.981 110.221 337.618 107.84V107.84Z" fill="#FBB5AD"/>
<path d="M330.731 110.086C330.34 111.182 330.169 112.344 330.229 113.506C330.229 113.873 330.805 113.873 330.79 113.506C330.735 112.393 330.9 111.281 331.278 110.233C331.396 109.895 330.849 109.748 330.731 110.086Z" fill="#56403D"/>
<path d="M332.8 111.201L332.564 115.913C332.564 116.28 333.11 116.28 333.125 115.913L333.362 111.201C333.362 110.849 332.83 110.849 332.8 111.201Z" fill="#56403D"/>
<path d="M334.84 110.526V116.764C334.84 116.838 334.869 116.909 334.922 116.961C334.974 117.014 335.046 117.043 335.12 117.043C335.195 117.043 335.266 117.014 335.319 116.961C335.372 116.909 335.401 116.838 335.401 116.764V110.526C335.401 110.452 335.372 110.381 335.319 110.329C335.266 110.277 335.195 110.247 335.12 110.247C335.046 110.247 334.974 110.277 334.922 110.329C334.869 110.381 334.84 110.452 334.84 110.526Z" fill="#56403D"/>
<path d="M337.352 105.727C339.187 107.642 340.29 110.134 340.47 112.772L337.795 111.099L337.352 105.727Z" fill="#FBB5AD"/>
<path d="M362.21 119.024C362.21 119.024 360.229 119.377 360.185 119.347C358.471 120.419 354.111 122.635 352.293 123.501C351.214 124.015 348.54 125.13 349.131 126.745C349.441 127.611 350.313 127.757 351.436 127.508C351.356 127.738 351.359 127.989 351.445 128.217C351.532 128.444 351.696 128.635 351.909 128.755C352.258 128.917 352.645 128.98 353.028 128.938C353.411 128.897 353.775 128.753 354.082 128.521C354.139 128.793 354.29 129.037 354.51 129.21C355.441 130.003 357.215 129.122 358.234 128.653C358.217 128.838 358.217 129.025 358.234 129.21C358.234 129.797 358.826 130.37 359.372 130.076C361.988 128.697 366.097 123.662 367.294 121.27C364.811 120.331 364.648 120.052 362.21 119.024Z" fill="#FBB5AD"/>
<path d="M360.436 126.113C359.752 127.064 358.936 127.914 358.013 128.638C357.747 128.843 358.116 129.196 358.382 129.005C359.34 128.251 360.186 127.366 360.894 126.378C361.072 126.113 360.628 125.849 360.436 126.113Z" fill="#56403D"/>
<path d="M358.885 124.807C357.377 126.001 355.84 127.156 354.274 128.271C354.008 128.462 354.274 128.902 354.54 128.711C356.185 127.566 357.757 126.397 359.254 125.203C359.505 124.969 359.136 124.602 358.885 124.807Z" fill="#56403D"/>
<path d="M356.446 124.161C354.834 125.291 353.123 126.273 351.333 127.097C351.037 127.244 351.333 127.684 351.599 127.537C353.389 126.713 355.1 125.731 356.712 124.602C357.008 124.411 356.712 123.971 356.446 124.161Z" fill="#56403D"/>
<path d="M360.185 119.333C360.185 119.333 357.688 117.513 353.476 120.301L357.008 122.488" fill="#FBB5AD"/>
<path d="M415.295 216.335C415.264 216.232 415.212 216.137 415.141 216.055C415.071 215.974 414.985 215.907 414.888 215.861C414.791 215.814 414.685 215.787 414.577 215.783C414.469 215.779 414.361 215.797 414.261 215.836C414.302 215.347 414.302 214.856 414.261 214.368C414.261 213.678 414.128 212.695 413.374 212.401C413.155 212.321 412.915 212.313 412.692 212.379C412.468 212.445 412.272 212.582 412.133 212.768C412.048 212.318 411.924 211.876 411.763 211.447C411.713 211.287 411.613 211.147 411.478 211.046C411.342 210.946 411.178 210.891 411.009 210.889C410.167 210.889 409.738 211.565 409.531 212.357C409.531 212.284 409.221 212.005 409.147 211.961C409.009 211.862 408.845 211.805 408.674 211.799C408.357 211.78 408.042 211.874 407.788 212.064C407.543 212.301 407.396 212.62 407.374 212.959C407.306 213.52 407.306 214.086 407.374 214.647C407.374 215.337 407.522 216.012 407.566 216.702C407.61 217.391 407.566 217.67 407.566 218.169C406.916 216.922 405.999 215.366 404.935 216.1C403.871 216.834 404.802 217.832 405.098 218.522C405.707 219.89 406.429 221.205 407.256 222.455C407.144 223.071 406.99 223.679 406.797 224.275C408.775 225.077 410.687 226.029 412.517 227.122C413.103 225.174 413.809 223.262 414.63 221.398C415.519 219.865 415.758 218.043 415.295 216.335Z" fill="#FBB5AD"/>
<path d="M409.384 212.342C409.325 214.241 409.221 216.134 409.073 218.023C409.073 218.184 409.325 218.184 409.325 218.023C409.472 216.134 409.576 214.241 409.635 212.342C409.65 212.166 409.384 212.166 409.384 212.342Z" fill="#56403D"/>
<path d="M411.955 212.827C411.788 214.539 411.581 216.242 411.334 217.935C411.334 218.096 411.556 218.169 411.586 217.935C411.842 216.212 412.054 214.485 412.221 212.753C412.221 212.665 411.97 212.665 411.955 212.827Z" fill="#56403D"/>
<path d="M414.202 215.997C414.074 217.191 413.886 218.375 413.64 219.549C413.64 219.71 413.862 219.784 413.891 219.549C414.138 218.355 414.325 217.152 414.453 215.938C414.468 215.836 414.216 215.836 414.202 215.997Z" fill="#56403D"/>
<path d="M355.781 216.041C355.604 215.645 355.426 215.249 355.264 214.838C355.171 214.625 355.135 214.393 355.16 214.162C355.289 213.543 355.378 212.915 355.426 212.284C355.388 210.271 354.982 208.282 354.229 206.413C354.136 206.115 353.975 205.843 353.758 205.618C353.542 205.393 353.275 205.221 352.98 205.116C352.685 205.01 352.369 204.975 352.057 205.011C351.746 205.048 351.447 205.156 351.185 205.327L350.638 204.343C349.618 202.553 348.525 199.471 346.204 199.236C346.026 199.233 345.849 199.273 345.689 199.352C345.529 199.432 345.39 199.549 345.286 199.693C345.181 199.837 345.113 200.005 345.088 200.181C345.063 200.356 345.081 200.536 345.14 200.703C345.584 201.863 346.042 203.008 346.515 204.138C346.415 204.033 346.295 203.949 346.162 203.891C346.028 203.834 345.884 203.804 345.739 203.804C345.593 203.804 345.45 203.834 345.316 203.891C345.183 203.949 345.063 204.033 344.963 204.138C344.69 204.413 344.509 204.764 344.443 205.145C344.377 205.525 344.429 205.916 344.594 206.266H344.313C344.065 206.141 343.793 206.07 343.515 206.061C343.293 206.074 343.076 206.135 342.88 206.239C342.683 206.342 342.512 206.487 342.377 206.662C342.223 206.871 342.121 207.113 342.08 207.368C342.039 207.623 342.06 207.884 342.14 208.13H341.948C341.726 208.211 341.527 208.345 341.368 208.518C341.208 208.692 341.093 208.901 341.032 209.128C340.951 209.436 340.951 209.76 341.032 210.068C340.914 211.212 346.943 216.819 346.943 216.819L350.52 220.709L356.52 217.876C356.609 217.67 355.855 216.203 355.781 216.041Z" fill="#FBB5AD"/>
<path d="M396.467 270.083C385.812 252.001 375.777 269.672 375.777 269.672C371.642 275.286 368.425 281.512 366.244 288.121C363.791 296.429 363.806 323.347 365.018 331.361C369.451 333.063 379.368 332.549 383.994 331.243V298.953C384.012 298.863 384.06 298.782 384.132 298.723C384.203 298.665 384.293 298.633 384.385 298.633C384.478 298.633 384.568 298.665 384.639 298.723C384.711 298.782 384.759 298.863 384.777 298.953L384.999 363.078C392.779 363.365 400.539 362.097 407.817 359.35C407.817 359.35 406.487 287.094 396.467 270.083Z" fill="#F3A71C"/>
<path d="M355.855 214.236C352.648 215.014 350.461 216.687 347.682 218.448C348.702 222 359.875 249.74 373.929 255.611L375.053 235.87C375.053 235.87 368.831 235.283 355.855 214.236Z" fill="#F5604B"/>
<path d="M405.024 222.851C404.586 226.286 403.381 229.58 401.496 232.493C399.612 235.406 397.096 237.863 394.132 239.686L396.038 257.813C404.566 252.367 413.551 232.127 414.867 226.844C413.572 225.567 412.036 224.557 410.346 223.872C408.657 223.187 406.848 222.84 405.024 222.851V222.851Z" fill="#F5604B"/>
<path d="M372.333 256.727L374.21 272.974C374.21 272.974 387.688 278.038 397.664 272.974V256.506" fill="#F5604B"/>
<path d="M404.004 252.059C403.732 251.143 403.28 250.29 402.674 249.549C401.732 248.462 400.704 247.451 399.6 246.526C399.329 246.312 399.116 246.034 398.979 245.719C398.521 244.339 400.147 242.225 399.925 240.538C399.585 238.042 397.989 237.206 396.423 235.562C395.574 234.72 395.019 233.629 394.841 232.45C393.943 230.654 393.249 228.764 392.772 226.814C391.634 223.629 389.817 220.107 386.373 218.947C384.468 218.341 382.43 218.282 380.493 218.775C378.556 219.268 376.798 220.295 375.422 221.736C373.057 224.422 373.516 228.077 373.25 231.438C373.403 231.743 373.507 232.069 373.56 232.406C374.018 235.665 369.703 235.811 369.304 238.395C369.251 238.885 369.276 239.38 369.378 239.862C369.713 241.714 370.517 243.452 371.713 244.911C374.668 248.874 367.796 250.914 367.826 254.584C367.909 255.906 368.342 257.184 369.082 258.287C369.822 259.39 370.841 260.279 372.038 260.866C377.869 263.742 384.532 264.495 390.866 262.994C395.595 261.922 405.63 258.018 404.004 252.059ZM377.698 246.012C377.698 245.939 377.698 245.851 377.698 245.777H377.964L377.698 246.012Z" fill="#56403D"/>
<path d="M383.994 298.924L369.008 295.607L383.255 306.644L383.994 298.924Z" fill="#56403D"/>
<path d="M348.613 207.675C347.438 205.374 346.45 202.984 345.658 200.527C345.539 200.146 344.919 200.307 345.052 200.689C345.839 203.209 346.827 205.663 348.007 208.027C348.244 208.35 348.791 208.027 348.613 207.675Z" fill="#56403D"/>
<path d="M346.263 209.143C345.68 208.152 345.157 207.128 344.697 206.075C344.534 205.708 343.988 206.075 344.15 206.398C344.61 207.451 345.133 208.475 345.717 209.466C345.76 209.538 345.83 209.59 345.912 209.61C345.993 209.631 346.08 209.619 346.153 209.576C346.225 209.533 346.278 209.463 346.298 209.382C346.319 209.301 346.307 209.215 346.263 209.143V209.143Z" fill="#56403D"/>
<path d="M343.988 210.772C343.337 209.934 342.837 208.99 342.51 207.983C342.392 207.602 341.771 207.763 341.904 208.145C342.224 209.2 342.724 210.192 343.382 211.08C343.707 211.418 344.239 211.095 343.988 210.772Z" fill="#56403D"/>
<path d="M353.387 208.937C352.776 207.704 352.215 206.447 351.702 205.165C351.554 204.798 350.934 204.96 351.096 205.327C351.628 206.657 352.21 207.964 352.84 209.246C353.017 209.627 353.564 209.304 353.387 208.937Z" fill="#56403D"/>
<path d="M212.767 95.7021C212.859 95.552 212.905 95.3787 212.9 95.2031C212.907 94.3352 212.734 93.4752 212.39 92.677C212.047 91.8789 211.541 91.1599 210.905 90.5651C210.656 90.3414 210.359 90.1775 210.037 90.086C209.714 89.9946 209.375 89.978 209.045 90.0376C208.715 90.0972 208.403 90.2313 208.133 90.4297C207.864 90.628 207.644 90.8853 207.491 91.1815C206.102 94.0142 209.279 96.8469 211.821 97.1845C212.53 97.2726 212.811 96.6855 212.693 96.1278C212.749 95.9932 212.775 95.8477 212.767 95.7021V95.7021Z" fill="#FBB5AD"/>
<path d="M210.24 144.666L205.126 141.833L209.383 153.399L210.24 144.666Z" fill="#382624"/>
<path d="M267.286 257.299L250.438 267.206L262.941 274.413C266.473 272.373 276.582 266.443 279.833 264.535L267.286 257.299Z" fill="white"/>
<path d="M248.827 246.673L231.979 256.58L247.807 265.709C250.571 264.124 260.783 258.136 264.714 255.831L248.827 246.673Z" fill="white"/>
<path d="M181.79 208.013L164.677 217.773L179.899 226.579C182.308 225.2 192.638 219.138 196.806 216.702L181.79 208.013Z" fill="white"/>
<path d="M217.836 228.796L200.988 238.703L213.491 245.909C216.447 244.207 226.6 238.248 230.398 236.032L217.836 228.796Z" fill="white"/>
<path d="M199.377 218.155L182.529 228.062L198.357 237.191C200.22 236.134 210.816 229.852 215.264 227.313L199.377 218.155Z" fill="white"/>
<path d="M282.404 266.105L265.557 276.013L277.513 282.911C281.104 280.827 291.227 274.897 294.405 273.033L282.404 266.105Z" fill="white"/>
<path d="M232.955 237.514L216.107 247.421L229.408 255.053C232.526 253.263 242.709 247.318 246.315 245.176L232.955 237.514Z" fill="white"/>
<path d="M296.991 274.442L280.158 284.364L295.986 293.493C299.297 291.585 309.405 285.655 312.878 283.615L296.991 274.442Z" fill="white"/>
<path d="M315.45 285.098L298.617 295.005L327.022 311.385L344.121 301.624L315.45 285.098Z" fill="white"/>
<path d="M162.504 220.606L145.39 230.366L167.559 243.121C170.514 241.448 180.623 235.489 184.465 233.243L162.504 220.606Z" fill="white"/>
<path d="M205.437 245.425L188.53 255.332L201.033 262.539C204.373 260.601 214.481 254.686 217.925 252.661L205.437 245.425Z" fill="white"/>
<path d="M236.428 263.302L219.565 273.209L235.393 282.338C238.571 280.504 248.694 274.574 252.3 272.461L236.428 263.302Z" fill="white"/>
<path d="M220.57 254.143L203.722 264.051L217.023 271.683C220.496 269.672 230.605 263.742 233.915 261.805L220.57 254.143Z" fill="white"/>
<path d="M254.886 273.943L238.039 283.85L250.6 291.057C254.458 288.811 264.64 282.852 267.493 281.179L254.886 273.943Z" fill="white"/>
<path d="M270.02 282.661L253.172 292.524L265.128 299.423C269.059 297.148 279.257 291.174 282.02 289.545L270.02 282.661Z" fill="white"/>
<path d="M187.052 234.784L170.204 244.691L186.032 253.82C188.544 252.353 198.83 246.35 202.939 243.943L187.052 234.784Z" fill="white"/>
<path d="M284.592 291.057L267.744 300.964L283.587 310.137C287.252 308.024 297.361 302.079 300.479 300.259L284.592 291.057Z" fill="white"/>
<path d="M286.217 311.634L307.72 324.037L324.834 314.276L303.05 301.727L286.217 311.634Z" fill="white"/>
<path d="M273.626 309.932L261.093 317.329L275.621 325.68L288.345 318.43L273.626 309.932Z" fill="white"/>
<path d="M278.621 327.412L290.976 334.516L303.715 327.295L291.139 320.03L278.621 327.412Z" fill="white"/>
<path d="M141.385 233.669L128.277 240.904L143.159 249.461L156.031 242.123L141.385 233.669Z" fill="white"/>
<path d="M158.809 243.723L146.159 251.179L162.046 260.323L174.904 252.999L158.809 243.723Z" fill="white"/>
<path d="M177.697 254.613L165.061 262.054L258.064 315.582L270.818 308.317L177.697 254.613Z" fill="white"/>
<path d="M240.628 99.8566C249.342 99.6119 256.078 87.9184 255.675 73.7385C255.271 59.5586 247.88 48.2619 239.166 48.5067C230.452 48.7514 223.716 60.4449 224.12 74.6248C224.524 88.8047 231.915 100.101 240.628 99.8566Z" fill="#E2E2E2"/>
<path d="M252.279 71.2354C253.457 58.2333 247.346 47.0614 238.629 46.2823C229.911 45.5031 221.89 55.4118 220.711 68.4139C219.533 81.4159 225.645 92.5878 234.362 93.367C243.079 94.1461 251.101 84.2375 252.279 71.2354Z" fill="#E35541"/>
<path d="M242.436 67.775C242.79 64.0058 240.297 60.6927 236.867 60.375C233.438 60.0572 230.37 62.8551 230.016 66.6243C229.662 70.3934 232.155 73.7065 235.585 74.0243C239.014 74.342 242.082 71.5441 242.436 67.775Z" fill="white"/>
<path d="M222.683 82.2431C222.683 82.2431 226.378 74.1265 232.94 75.1539C239.502 76.1813 243.669 79.5571 246.374 88.7304C244.793 91.0237 242.511 92.7504 239.865 93.6545C237.219 94.5587 234.35 94.5922 231.684 93.7501C229.352 92.7073 227.312 91.1135 225.743 89.1076C224.174 87.1018 223.124 84.745 222.683 82.2431V82.2431Z" fill="white"/>
<path d="M256.822 77.0767C256.788 76.9839 256.744 76.8953 256.689 76.8125C256.888 76.6246 257.044 76.3961 257.146 76.1428C257.249 75.8895 257.294 75.6172 257.28 75.3447C257.26 75.1626 257.203 74.9865 257.111 74.8275C257.02 74.6684 256.896 74.5297 256.748 74.4201C256.887 74.2652 256.972 74.071 256.993 73.8651C257.013 73.6591 256.968 73.452 256.863 73.2731C256.759 73.0942 256.6 72.9528 256.409 72.8688C256.219 72.7849 256.006 72.7627 255.803 72.8056C254.325 73.0844 253.408 74.9631 252.64 76.0786C252.064 76.9005 251.532 77.7518 251.029 78.6031C250.94 77.3702 250.763 76.1226 250.674 74.9631C250.586 73.8036 248.768 73.7302 248.768 74.9631C248.871 76.8214 248.676 78.684 248.192 80.4818C248.004 80.5739 247.834 80.6981 247.689 80.8487C242.326 86.4342 235.609 90.5582 228.181 92.8254C227.81 92.9491 227.489 93.1906 227.27 93.5127C227.05 93.8347 226.943 94.2196 226.964 94.608C226.986 94.9965 227.136 95.3671 227.39 95.6629C227.645 95.9586 227.99 96.1632 228.373 96.2452C228.399 96.6027 228.534 96.9437 228.762 97.2221C228.989 97.5004 229.297 97.7025 229.644 97.801C229.699 98.0749 229.812 98.3342 229.975 98.5619C230.138 98.7896 230.348 98.9804 230.59 99.1219L229.334 99.665C227.294 100.516 228.196 103.863 230.265 103.011C238.055 99.7788 244.894 94.6383 250.142 88.0699C250.748 87.4975 251.339 86.9251 251.931 86.3233C252.847 85.3987 257.28 80.9808 256.187 79.0875C256.512 78.427 257.147 77.9279 256.822 77.0767Z" fill="#FBB5AD"/>
<path d="M226.083 56.4991C223.999 57.321 222.388 61.7829 222.565 62.7223L224.206 61.9003L224.501 61.5775C224.794 59.8212 225.326 58.1127 226.083 56.4991Z" fill="#FBB5AD"/>
<path d="M226.363 60.1244C226.251 60.0453 226.126 59.9857 225.994 59.9483L225.861 59.8309C225.048 59.1997 223.792 60.0217 223.053 60.418C222.108 60.913 221.216 61.5032 220.393 62.1792C220.018 62.688 219.751 63.2673 219.609 63.8818C219.299 64.6157 218.989 65.3495 218.634 66.0687C217.914 67.5852 217.099 69.0557 216.195 70.4719C214.431 73.2145 212.347 75.7416 209.988 78.0013C208.895 79.0581 210.565 80.702 211.658 79.6452L212.442 78.8673C212.606 78.9752 212.799 79.0328 212.996 79.0328C213.193 79.0328 213.386 78.9752 213.55 78.8673C213.744 78.7352 213.927 78.5879 214.097 78.427L214.348 78.2215C214.418 78.4007 214.531 78.56 214.678 78.6849C214.825 78.8099 215.001 78.8967 215.19 78.9374C215.379 78.9781 215.575 78.9716 215.761 78.9184C215.947 78.8652 216.116 78.7669 216.255 78.6325L217.053 77.7959C217.307 77.7017 217.514 77.5119 217.629 77.2675C217.629 77.2675 217.747 78.8673 217.777 78.8233C219.063 77.473 220.585 73.7302 221.871 71.4846C221.862 71.3814 221.888 71.2782 221.944 71.1911C222.718 69.8577 223.064 68.3215 222.935 66.7879C222.931 65.7346 223.025 64.6832 223.215 63.647L225.314 62.0324C225.816 61.6508 226.363 61.0784 226.26 60.5647C226.322 60.4258 226.357 60.2763 226.363 60.1244V60.1244Z" fill="#FBB5AD"/>
<path d="M234.181 89.5377C226.718 91.7099 225.432 90.888 221.9 90.7706C218.368 90.6532 214.614 85.7363 214.614 85.7363C214.614 85.7363 213.727 74.743 207.121 83.3439C202.2 89.7725 200.308 108.383 199.732 117.395C202.336 119.172 205.362 120.244 208.511 120.507C210.537 120.844 212.589 121.016 214.644 121.02C215.908 121.011 217.156 120.741 218.309 120.228L221.811 104.083C227.442 104.386 233.012 102.799 237.625 99.5769L234.181 89.5377Z" fill="#68E1FD"/>
<path d="M218.087 76.3134C218.087 76.3134 222.89 85.4721 218.087 88.0553C213.284 90.6385 209.619 86.3674 209.22 85.2666C208.979 84.0525 209.04 82.7983 209.398 81.6129C209.756 80.4275 210.399 79.3468 211.273 78.4646C212.147 77.5823 213.224 76.9253 214.412 76.5504C215.599 76.1755 216.861 76.0942 218.087 76.3134Z" fill="#FBB5AD"/>
<path d="M218.501 74.9485C217.289 74.1829 215.924 73.6869 214.501 73.4944C213.077 73.3018 211.629 73.4173 210.254 73.833C207.834 74.2726 205.607 75.4349 203.87 77.1647C203.256 76.7531 202.541 76.5147 201.801 76.4749C200.905 76.4082 200.01 76.6251 199.245 77.0944C198.481 77.5638 197.885 78.2614 197.545 79.0875C197.266 79.8647 197.26 80.7127 197.529 81.4935C197.797 82.2743 198.324 82.942 199.023 83.3879C200.106 83.9518 201.37 84.0679 202.54 83.7108V83.931C202.702 85.6629 201.062 86.5288 200.412 87.9966C200.097 88.6652 200.009 89.4169 200.16 90.1394C200.323 90.8586 201.077 91.6072 201.062 92.3704C200.929 92.9143 200.666 93.418 200.293 93.8381C199.955 94.3371 199.677 94.8741 199.466 95.4379C203.072 97.0942 207.141 97.4723 210.993 96.5094C215.117 95.7923 218.897 93.7687 221.767 90.7412C221.6 90.3654 221.353 90.0299 221.043 89.7578C220.399 89.3279 219.71 88.9686 218.989 88.6864C217.969 88.0993 218.989 86.3233 218.989 85.3693C218.989 83.7255 217.718 83.0356 216.343 82.4339C215.353 82.0229 215.309 81.4211 215.294 80.4231C215.205 79.6294 215.37 78.828 215.767 78.1334C216.065 78.1761 216.368 78.1138 216.624 77.9573C217.138 77.6495 217.689 77.4078 218.264 77.2381C218.553 77.1351 218.789 76.9233 218.922 76.6487C219.055 76.374 219.074 76.0585 218.974 75.7704C218.974 75.6044 218.93 75.4412 218.847 75.2971C218.764 75.1529 218.645 75.0327 218.501 74.9485V74.9485Z" fill="#56403D"/>
<path d="M214.865 78.6031C216.404 78.2684 217.894 77.7407 219.299 77.0326C219.299 76.8859 219.757 71.1617 209.575 73.1578C199.392 75.1539 204.225 87.2334 204.225 87.2334" fill="#56403D"/>
<path d="M311.415 91.5631L382.678 133.217C383.411 133.65 384.011 134.272 384.417 135.016C384.823 135.76 385.019 136.599 384.984 137.444L382.516 201.892C382.496 202.691 382.267 203.471 381.851 204.156C381.436 204.841 380.848 205.406 380.146 205.797C379.444 206.188 378.651 206.39 377.846 206.385C377.042 206.38 376.252 206.167 375.555 205.767L306.76 165.933C306.047 165.517 305.456 164.923 305.046 164.21C304.636 163.496 304.422 162.689 304.425 161.867V95.6141C304.416 94.7974 304.625 93.993 305.03 93.2825C305.436 92.5721 306.023 91.981 306.734 91.5694C307.444 91.1578 308.251 90.9404 309.074 90.9393C309.896 90.9382 310.704 91.1534 311.415 91.5631Z" stroke="#56403D" stroke-width="1.015" stroke-miterlimit="10" stroke-linecap="round" stroke-dasharray="3.09 5.14"/>
<path d="M355.352 73.4073C352.5 72.1011 345.731 67.6685 337.189 71.7488C328.647 75.8291 320.548 83.3732 329.371 105.595C332.221 106.68 335.368 106.712 338.239 105.683C338.239 105.683 336.421 86.2353 339.17 83.975L367.87 99.8118C368.188 103.514 367.411 107.228 365.633 110.497C363.856 113.767 361.156 116.45 357.865 118.217L365.772 125.424C372.245 125.321 386.462 104.875 382.028 90.3449C377.595 75.8144 353.387 72.6588 353.387 72.6588" fill="#6DE1FC"/>
<path d="M355.352 73.4073C352.5 72.1011 345.731 67.6685 337.189 71.7488C328.647 75.8291 320.548 83.3732 329.371 105.595C332.221 106.68 335.368 106.712 338.239 105.683C338.239 105.683 336.421 86.2353 339.17 83.975L367.87 99.8118C368.188 103.514 367.411 107.228 365.633 110.497C363.856 113.767 361.156 116.45 357.865 118.217L365.772 125.424C372.245 125.321 386.462 104.875 382.028 90.3449C377.595 75.8144 353.387 72.6588 353.387 72.6588" fill="#BE6B3D"/>
<path d="M364.501 72.2038C362.55 74.3467 358.811 73.378 356.343 72.8203C353.387 72.1451 349.914 70.3398 350.18 66.8026C350.18 66.2742 349.382 66.2742 349.338 66.8026C349.057 70.4866 352.441 72.6735 355.648 73.5101C358.5 74.2146 362.816 75.286 365.092 72.7909C365.446 72.3653 364.855 71.8075 364.501 72.2038Z" fill="#009245"/>
<path d="M348.539 64.5716C348.539 64.5716 348.539 82.61 355.205 83.7842C362.594 85.0758 366.643 76.8125 366.643 76.8125C366.643 76.8125 367.589 60.8729 360.303 59.4786C353.017 58.0843 348.761 62.2673 348.539 64.5716Z" fill="#FBB5AD"/>
<path d="M354.141 76.7684C353.97 76.7782 353.799 76.7532 353.638 76.6951C353.78 75.0116 354.007 73.3363 354.318 71.6754C354.334 71.5551 354.303 71.4331 354.231 71.3351C354.159 71.237 354.051 71.1706 353.931 71.1497C353.81 71.1288 353.686 71.1551 353.585 71.223C353.484 71.2909 353.413 71.3952 353.387 71.514C353.049 73.2904 352.807 75.0836 352.663 76.8859C352.648 76.9883 352.666 77.0928 352.713 77.1848C352.761 77.2769 352.836 77.3519 352.929 77.3996C353.318 77.626 353.764 77.738 354.215 77.7225C354.835 77.6491 354.761 76.7684 354.141 76.7684Z" fill="#56403D"/>
<path d="M357.215 77.106C356.952 77.7417 356.449 78.2505 355.815 78.5246C355.18 78.7986 354.463 78.8162 353.815 78.5737C353.431 78.4416 353.269 79.0434 353.653 79.1755C354.428 79.4567 355.281 79.4377 356.042 79.1222C356.804 78.8066 357.418 78.2178 357.761 77.4729C357.939 77.062 357.392 76.7684 357.215 77.106Z" fill="#56403D"/>
<path d="M356.387 74.5522C356.262 74.5522 356.141 74.6016 356.053 74.6897C355.964 74.7778 355.914 74.8973 355.914 75.0218C355.914 75.1464 355.964 75.2659 356.053 75.354C356.141 75.442 356.262 75.4915 356.387 75.4915C356.512 75.4915 356.633 75.442 356.721 75.354C356.81 75.2659 356.86 75.1464 356.86 75.0218C356.86 74.8973 356.81 74.7778 356.721 74.6897C356.633 74.6016 356.512 74.5522 356.387 74.5522V74.5522Z" fill="#56403D"/>
<path d="M350.52 73.2899C350.394 73.2899 350.274 73.3394 350.185 73.4275C350.097 73.5156 350.047 73.635 350.047 73.7596C350.047 73.8842 350.097 74.0036 350.185 74.0917C350.274 74.1798 350.394 74.2293 350.52 74.2293C350.645 74.2293 350.766 74.1798 350.854 74.0917C350.943 74.0036 350.993 73.8842 350.993 73.7596C350.993 73.635 350.943 73.5156 350.854 73.4275C350.766 73.3394 350.645 73.2899 350.52 73.2899V73.2899Z" fill="#56403D"/>
<path d="M361.441 75.0218C361.441 75.0218 363.2 68.0942 365.151 70.3838C367.102 72.6735 361.988 77.6491 361.988 77.6491" fill="#FBB5AD"/>
<path d="M363.259 57.233C363.259 57.233 369.762 57.9228 371.653 63.1039C373.545 68.285 368.698 78.471 365.195 80.0708L369.422 71.0883L369.215 65.0266L363.259 57.233Z" fill="#5C2E2E"/>
<path d="M371.55 65.3789C371.018 61.7829 368.594 60.0363 365.476 58.187L364.693 57.776C365.319 57.2895 365.824 56.6669 366.17 55.956C366.212 55.8843 366.234 55.803 366.234 55.7202C366.234 55.6373 366.211 55.5561 366.169 55.4845C366.127 55.413 366.067 55.3538 365.995 55.3129C365.922 55.272 365.84 55.2508 365.757 55.2515C365.346 55.2678 364.944 55.3689 364.575 55.5483C364.206 55.7277 363.878 55.9816 363.614 56.2936C363.243 55.5515 362.743 54.8806 362.136 54.3122C362.076 54.2563 362.003 54.2164 361.923 54.1962C361.843 54.176 361.759 54.1761 361.68 54.1966C361.6 54.2171 361.527 54.2573 361.467 54.3135C361.407 54.3696 361.363 54.4399 361.338 54.5177C361.195 54.8661 361.132 55.2414 361.152 55.6169C361.173 55.9924 361.276 56.3588 361.456 56.6899C358.185 56.0114 354.778 56.5328 351.865 58.1576C350.787 58.7606 349.866 59.6049 349.175 60.6234C348.287 60.5303 347.39 60.688 346.589 61.0784C345.73 61.4758 345.025 62.1412 344.582 62.9732C344.139 63.8053 343.982 64.7583 344.135 65.6871C344.436 66.6449 345.103 67.4474 345.992 67.9221C346.882 68.3969 347.924 68.5061 348.894 68.2263C349.905 68.0403 350.851 67.6007 351.643 66.9493C351.052 67.9327 350.756 69.195 352.677 69.6353C356.017 70.3985 357.599 68.4171 357.806 70.0756C357.983 71.4259 359.86 72.1744 361.205 72.2038C361.308 72.4093 361.559 72.9523 361.855 73.6715C362.527 73.4509 363.246 73.4104 363.939 73.5541C363.992 73.4949 364.059 73.4491 364.134 73.4207C364.208 73.3922 364.289 73.3819 364.368 73.3905C364.448 73.3991 364.524 73.4264 364.591 73.4702C364.657 73.514 364.713 73.5729 364.752 73.6422C365.904 75.6089 365.638 77.7518 365.195 80.0268C367.02 78.4968 368.526 76.6271 369.629 74.5228C371.157 71.7276 371.825 68.548 371.55 65.3789ZM362.092 55.7065L362.225 55.912C362.217 55.9606 362.217 56.0102 362.225 56.0588C362.225 56.2056 362.343 56.367 362.402 56.5138C362.231 56.2751 362.125 55.9973 362.092 55.7065V55.7065Z" fill="#5C2E2E"/>
<path d="M398.048 151.623L440.449 176.178C440.84 176.406 441.165 176.732 441.391 177.123C441.616 177.514 441.735 177.958 441.734 178.409V178.409C441.735 178.864 441.614 179.311 441.385 179.705C441.155 180.099 440.825 180.425 440.428 180.652C440.03 180.878 439.579 180.996 439.121 180.994C438.663 180.992 438.213 180.87 437.818 180.64L395.432 156.231C395.038 156.005 394.71 155.68 394.482 155.288C394.254 154.897 394.133 154.453 394.132 154V153.854C394.132 153.398 394.252 152.951 394.482 152.557C394.711 152.164 395.041 151.837 395.439 151.61C395.836 151.384 396.287 151.266 396.745 151.268C397.203 151.27 397.653 151.392 398.048 151.623V151.623Z" fill="#FDC49A"/>
<path d="M398.048 164.832L440.449 189.387C440.84 189.615 441.165 189.941 441.391 190.333C441.616 190.724 441.735 191.167 441.734 191.618V191.618C441.735 192.073 441.614 192.52 441.385 192.914C441.155 193.308 440.825 193.635 440.428 193.861C440.03 194.088 439.579 194.206 439.121 194.204C438.663 194.202 438.213 194.079 437.818 193.849L395.433 169.514C395.038 169.288 394.71 168.963 394.482 168.571C394.254 168.18 394.133 167.736 394.132 167.283V167.136C394.118 166.675 394.229 166.219 394.453 165.814C394.677 165.41 395.006 165.073 395.406 164.838C395.806 164.602 396.262 164.478 396.726 164.477C397.191 164.476 397.648 164.599 398.048 164.832Z" fill="#FDC49A"/>
<path d="M398.048 178.174L440.449 202.729C440.84 202.957 441.165 203.283 441.391 203.674C441.616 204.066 441.735 204.509 441.734 204.96V204.96C441.735 205.415 441.614 205.862 441.385 206.256C441.155 206.65 440.825 206.977 440.428 207.203C440.03 207.429 439.579 207.547 439.121 207.545C438.663 207.543 438.213 207.421 437.818 207.191L395.432 182.782C395.038 182.556 394.71 182.231 394.482 181.84C394.254 181.448 394.133 181.004 394.132 180.551V180.405C394.132 179.95 394.252 179.502 394.482 179.109C394.711 178.715 395.041 178.388 395.439 178.162C395.836 177.935 396.287 177.817 396.745 177.819C397.203 177.821 397.653 177.944 398.048 178.174V178.174Z" fill="#FDC49A"/>
<path d="M398.048 191.442L440.449 215.997C440.84 216.225 441.165 216.551 441.391 216.942C441.616 217.334 441.735 217.777 441.734 218.228V218.228C441.735 218.683 441.614 219.13 441.385 219.524C441.155 219.918 440.825 220.245 440.428 220.471C440.03 220.698 439.579 220.816 439.121 220.814C438.663 220.811 438.213 220.689 437.818 220.459L395.433 196.065C395.038 195.839 394.71 195.514 394.482 195.123C394.254 194.731 394.133 194.287 394.132 193.834V193.688C394.129 193.231 394.248 192.782 394.476 192.386C394.705 191.99 395.035 191.662 395.432 191.433C395.83 191.205 396.282 191.086 396.742 191.087C397.201 191.089 397.652 191.211 398.048 191.442Z" fill="#FAEDD4"/>
<path d="M291.612 105.712V148.217L258.492 129.372V87.2334L291.612 105.712Z" fill="#E35541"/>
<path d="M262.32 129.372V139.763L270.759 132.469L262.32 129.372Z" fill="#E35541"/>
<path d="M271.557 110.012L264.167 114.533C263.938 114.668 263.772 114.887 263.706 115.143C263.639 115.399 263.678 115.67 263.813 115.898L269.576 123.692C270.33 124.719 272.074 123.692 271.306 122.694L265.468 114.929L265.113 116.294L272.503 111.774C273.596 111.113 272.591 109.381 271.498 110.057L271.557 110.012Z" fill="white"/>
<path d="M276.567 114.034L282.7 122.65L283.055 121.285L275.547 125.013C274.394 125.585 275.414 127.302 276.552 126.73L284.06 123.002C284.289 122.867 284.455 122.648 284.521 122.392C284.588 122.136 284.549 121.865 284.414 121.637L278.281 113.021C277.542 111.979 275.798 113.021 276.552 114.019L276.567 114.034Z" fill="white"/>
<path d="M440.316 161.427C441.63 161.427 442.695 160.277 442.695 158.858C442.695 157.44 441.63 156.29 440.316 156.29C439.002 156.29 437.936 157.44 437.936 158.858C437.936 160.277 439.002 161.427 440.316 161.427Z" fill="#155A93"/>
<path d="M432.719 157.567C434.033 157.567 435.099 156.417 435.099 154.998C435.099 153.58 434.033 152.43 432.719 152.43C431.405 152.43 430.34 153.58 430.34 154.998C430.34 156.417 431.405 157.567 432.719 157.567Z" fill="#659FE4"/>
<path d="M425.123 153.824C426.437 153.824 427.502 152.674 427.502 151.256C427.502 149.837 426.437 148.687 425.123 148.687C423.809 148.687 422.744 149.837 422.744 151.256C422.744 152.674 423.809 153.824 425.123 153.824Z" fill="#C5E9FF"/>
<path d="M189.224 184.5L241.275 213.81L260.251 204.123" stroke="white" stroke-width="1.015" stroke-miterlimit="10"/>
<path d="M241.112 214.236V226.08" stroke="white" stroke-width="1.015" stroke-miterlimit="10"/>
<path d="M203.752 204.461C202.66 204.262 201.641 203.781 200.796 203.066C200.27 202.097 200.054 200.991 200.175 199.896C200.175 198.918 200.175 197.895 200.175 196.829C200.118 196.782 200.071 196.724 200.037 196.659C200.004 196.593 199.986 196.521 199.983 196.447C199.926 195.616 199.926 194.783 199.983 193.952L195.756 193.541C195.026 196.174 194.438 198.844 193.998 201.54C194.116 202.362 198.136 207.822 200.19 208.189C202.244 208.556 207.919 206.721 208.392 206.002C206.855 205.547 205.289 205.063 203.752 204.461Z" fill="#FBB5AD"/>
<path d="M232.984 189.549C230.58 189.566 228.182 189.787 225.816 190.209C225.816 190.209 225.004 185.527 225.122 185.292L219.107 185.703C219.107 185.703 218.353 194.392 218.353 195.537C218.353 197.636 220.984 198.311 221.56 198.223C221.974 198.082 222.379 197.916 222.772 197.724C222.554 196.641 222.44 195.54 222.432 194.436C222.432 193.937 222.565 193.57 223.053 193.394C224.21 193.245 225.385 193.35 226.496 193.702C227.575 193.908 228.639 194.157 229.718 194.348C231.388 193.634 232.923 192.642 234.255 191.413C234.639 190.253 235.127 189.974 232.984 189.549Z" fill="#FBB5AD"/>
<path d="M234.994 189.93L234.846 189.769C234.388 189.328 233.176 189.373 232.615 189.343C230.322 189.358 228.039 189.649 225.816 190.209C225.816 190.209 231.27 189.475 231.477 190.444C231.565 190.833 231.562 191.236 231.467 191.623C231.372 192.01 231.188 192.37 230.93 192.675C228.654 194.686 225.092 192.469 222.876 191.515L218.752 189.754L218.486 193.086C218.343 194.609 218.343 196.142 218.486 197.665C218.767 198.135 221.206 199.412 221.723 199.133C222.24 198.854 223.836 197.915 223.836 197.915L223.511 193.893C223.511 193.893 226.91 195.361 228.521 194.95C229.748 194.656 236.413 191.809 234.994 189.93Z" fill="#56403D"/>
<path d="M197.914 201.716C197.914 201.716 200.131 208.585 200.87 209.055C201.609 209.524 210.18 206.809 208.91 205.195C208.097 204.167 202.998 204.182 202.51 204.05C202.51 204.05 205.215 204.93 205.215 205.356C204.209 206.243 202.967 206.823 201.638 207.029C201.461 206.706 197.766 200.689 197.766 200.689L194.293 199.471L191.485 205.767L193.909 206.794C193.909 206.794 194.648 208.717 194.899 208.717C195.731 207.595 196.477 206.413 197.131 205.18C197.29 206.052 197.574 206.897 197.973 207.69C198.313 207.939 201.136 210.244 202.407 208.482L200.027 205.826" fill="#56403D"/>
<path d="M191.485 205.767L191.929 207.338L194.899 208.717V205.767L193.185 205.18" fill="#56403D"/>
<path d="M215.59 188.066C218.2 188.671 220.915 188.666 223.523 188.052C226.131 187.438 228.56 186.232 230.62 184.529C230.708 175.723 231.536 167.694 231.27 158.858C230.841 144.431 228.728 130.267 218.531 119.01L199.968 116.177C192.431 130.414 190.894 195.537 190.894 195.537C190.894 195.537 200.353 201.525 207.55 198.59L210.343 144.284C210.343 144.284 215.264 150.067 216.151 153.296C216.801 155.732 215.471 177.161 215.59 188.066Z" fill="#999A1C"/>
<path d="M137.026 168.971C155.121 168.971 169.79 161.769 169.79 152.885C169.79 144.001 155.121 136.799 137.026 136.799C118.93 136.799 104.261 144.001 104.261 152.885C104.261 161.769 118.93 168.971 137.026 168.971Z" fill="#6DE1FC"/>
<path d="M137.026 168.971C155.121 168.971 169.79 161.769 169.79 152.885C169.79 144.001 155.121 136.799 137.026 136.799C118.93 136.799 104.261 144.001 104.261 152.885C104.261 161.769 118.93 168.971 137.026 168.971Z" fill="#663535"/>
<path d="M482.287 307.774L455.804 323.347C455.804 323.347 464.006 337.642 484.238 346.082L515.141 329.629" fill="url(#paint3_linear)"/>
<path d="M504.382 330.862C517.947 330.862 528.944 323.167 528.944 313.674C528.944 304.182 517.947 296.487 504.382 296.487C490.816 296.487 479.819 304.182 479.819 313.674C479.819 323.167 490.816 330.862 504.382 330.862Z" fill="#68E1FD"/>
<path d="M504.367 311.018C514.529 311.018 522.766 307.667 522.766 303.532C522.766 299.398 514.529 296.047 504.367 296.047C494.205 296.047 485.967 299.398 485.967 303.532C485.967 307.667 494.205 311.018 504.367 311.018Z" fill="#974C26"/>
<path d="M503.687 291.057C503.687 287.681 503.569 284.305 503.303 280.944C503.234 280.073 503.155 279.202 503.066 278.332L502.874 276.614C502.8 276.115 502.608 274.809 502.608 274.868C502.49 274.183 502.372 273.498 502.254 272.813C500.244 261.36 495.762 250.475 489.115 240.904C486.619 246.817 485.376 253.178 485.465 259.589C485.465 261.438 485.613 263.287 485.775 265.137C485.775 265.636 485.775 265.841 485.775 265.915C485.775 265.988 485.775 265.797 485.849 266.223C485.997 267.133 486.174 268.043 486.352 268.938C487.092 272.38 488.08 275.764 489.307 279.065C490.399 282.1 491.728 285.044 493.283 287.872C494.953 291.057 496.771 294.168 498.721 297.192C500.199 299.555 501.677 301.683 503.155 303.694C503.48 299.496 503.687 295.269 503.687 291.057ZM494.022 253.116C494.088 252.679 494.058 252.234 493.933 251.81C494.406 252.289 494.864 252.778 495.308 253.277C494.89 253.158 494.456 253.104 494.022 253.116V253.116Z" fill="#999A1C"/>
<path d="M510.027 293.655C511.875 290.822 513.604 287.916 515.215 284.936C515.628 284.163 516.037 283.385 516.441 282.603L517.21 281.047L517.934 279.432C518.21 278.796 518.481 278.155 518.747 277.51C523.287 266.797 525.44 255.236 525.057 243.62C519.718 247.246 515.189 251.928 511.756 257.372C510.766 258.943 509.865 260.557 508.993 262.201L508.623 262.891C508.623 262.891 508.623 262.803 508.52 263.199C508.15 264.051 507.796 264.902 507.47 265.753C506.21 269.037 505.188 272.407 504.411 275.836C503.668 278.978 503.173 282.173 502.933 285.391C502.593 288.973 502.446 292.569 502.431 296.15C502.431 298.953 502.431 301.522 502.608 303.987C505.254 300.656 507.751 297.207 510.027 293.655ZM522.53 256.55C522.823 256.219 523.04 255.829 523.166 255.406V255.406C523.304 256.061 523.422 256.722 523.52 257.387C523.236 257.059 522.902 256.777 522.53 256.55Z" fill="#999A1C"/>
<path d="M509.894 302.065C511.806 301.086 513.683 300.073 515.525 299.027L517.003 298.161L517.919 297.573L518.835 296.942L519.899 296.164C525.832 291.84 530.753 286.293 534.324 279.902C530.272 280.16 526.318 281.244 522.707 283.087C521.658 283.615 520.653 284.202 519.648 284.804L519.22 285.054C519.22 285.054 519.22 285.054 519.072 285.186C518.599 285.523 518.126 285.876 517.668 286.228C515.919 287.578 514.27 289.049 512.732 290.631C511.31 292.088 510.005 293.653 508.83 295.313C507.485 297.133 506.229 299.027 505.062 300.964C504.145 302.432 503.347 303.899 502.608 305.25C505.047 304.266 507.485 303.254 509.894 302.065ZM528.708 286.052C528.976 285.969 529.224 285.829 529.432 285.641C529.294 286.042 529.146 286.438 528.988 286.83C528.937 286.557 528.842 286.295 528.708 286.052V286.052Z" fill="#999A1C"/>
<path d="M503.687 291.057C503.687 287.681 503.569 284.305 503.303 280.944C503.234 280.073 503.155 279.202 503.066 278.332L502.874 276.614C502.8 276.115 502.608 274.809 502.608 274.868C502.49 274.183 502.372 273.498 502.254 272.813C500.244 261.36 495.762 250.475 489.115 240.904C486.619 246.817 485.376 253.178 485.465 259.589C485.465 261.438 485.613 263.287 485.775 265.137C485.775 265.636 485.775 265.841 485.775 265.915C485.775 265.988 485.775 265.797 485.849 266.223C485.997 267.133 486.174 268.043 486.352 268.938C487.092 272.38 488.08 275.764 489.307 279.065C490.399 282.1 491.728 285.044 493.283 287.872C494.953 291.057 496.771 294.168 498.721 297.192C500.199 299.555 501.677 301.683 503.155 303.694C503.48 299.496 503.687 295.269 503.687 291.057ZM494.022 253.116C494.088 252.679 494.058 252.234 493.933 251.81C494.406 252.289 494.864 252.778 495.308 253.277C494.89 253.158 494.456 253.104 494.022 253.116V253.116Z" fill="#999A1C"/>
<path d="M510.027 293.655C511.875 290.822 513.604 287.916 515.215 284.936C515.628 284.163 516.037 283.385 516.441 282.603L517.21 281.047L517.934 279.432C518.21 278.796 518.481 278.155 518.747 277.51C523.287 266.797 525.44 255.236 525.057 243.62C519.718 247.246 515.189 251.928 511.756 257.372C510.766 258.943 509.865 260.557 508.993 262.201L508.623 262.891C508.623 262.891 508.623 262.803 508.52 263.199C508.15 264.051 507.796 264.902 507.47 265.753C506.21 269.037 505.188 272.407 504.411 275.836C503.668 278.978 503.173 282.173 502.933 285.391C502.593 288.973 502.446 292.569 502.431 296.15C502.431 298.953 502.431 301.522 502.608 303.987C505.254 300.656 507.751 297.207 510.027 293.655ZM522.53 256.55C522.823 256.219 523.04 255.829 523.166 255.406V255.406C523.304 256.061 523.422 256.722 523.52 257.387C523.236 257.059 522.902 256.777 522.53 256.55Z" fill="#999A1C"/>
<path d="M509.894 302.065C511.806 301.086 513.683 300.073 515.525 299.027L517.003 298.161L517.919 297.573L518.835 296.942L519.899 296.164C525.832 291.84 530.753 286.293 534.324 279.902C530.272 280.16 526.318 281.244 522.707 283.087C521.658 283.615 520.653 284.202 519.648 284.804L519.22 285.054C519.22 285.054 519.22 285.054 519.072 285.186C518.599 285.523 518.126 285.876 517.668 286.228C515.919 287.578 514.27 289.049 512.732 290.631C511.31 292.088 510.005 293.653 508.83 295.313C507.485 297.133 506.229 299.027 505.062 300.964C504.145 302.432 503.347 303.899 502.608 305.25C505.047 304.266 507.485 303.254 509.894 302.065ZM528.708 286.052C528.976 285.969 529.224 285.829 529.432 285.641C529.294 286.042 529.146 286.438 528.988 286.83C528.937 286.557 528.842 286.295 528.708 286.052V286.052Z" fill="#999A1C"/>
<defs>
<linearGradient id="paint0_linear" x1="132.769" y1="192.352" x2="106.728" y2="225.111" gradientUnits="userSpaceOnUse">
<stop stop-color="#D4A397"/>
<stop offset="0.99" stop-color="#FFD6A9"/>
</linearGradient>
<linearGradient id="paint1_linear" x1="28942.5" y1="21477.8" x2="28565.1" y2="22683.2" gradientUnits="userSpaceOnUse">
<stop stop-color="#D4A397"/>
<stop offset="0.99" stop-color="#FFD6A9"/>
</linearGradient>
<linearGradient id="paint2_linear" x1="15279" y1="9958.01" x2="14271.3" y2="11215.7" gradientUnits="userSpaceOnUse">
<stop stop-color="#D4A397"/>
<stop offset="0.99" stop-color="#FFD6A9"/>
</linearGradient>
<linearGradient id="paint3_linear" x1="20508.1" y1="8357.76" x2="19903.3" y2="9385.19" gradientUnits="userSpaceOnUse">
<stop stop-color="#D4A397"/>
<stop offset="0.99" stop-color="#FFD6A9"/>
</linearGradient>
</defs>
</svg>
