<svg width="361" height="260" viewBox="0 0 361 260" fill="none" xmlns="http://www.w3.org/2000/svg">
<g clip-path="url(#clip0)">
<path d="M6.64996 138.362L165.213 48.1182C169.084 45.9161 173.465 44.7692 177.918 44.7923C182.372 44.8155 186.741 46.0079 190.588 48.2501L354.003 143.406C356.147 144.653 357.926 146.441 359.16 148.593C360.393 150.744 361.039 153.183 361.032 155.663C361.025 158.143 360.365 160.577 359.119 162.722C357.872 164.866 356.084 166.644 353.932 167.878L201.428 255.442C196.262 258.412 190.407 259.975 184.448 259.975C178.488 259.975 172.633 258.412 167.467 255.442L6.59921 162.894C4.4396 161.654 2.64622 159.865 1.40079 157.708C0.15536 155.551 -0.497874 153.104 -0.492722 150.613C-0.48757 148.123 0.175785 145.678 1.43013 143.527C2.68447 141.375 4.48524 139.593 6.64996 138.362V138.362Z" fill="#E5E1E1"/>
<path opacity="0.32" d="M131.698 230.301L140.173 224.566L201.581 173.816L187.046 167.573C178.327 169.908 162.686 176.708 154.566 180.413C142.579 185.935 130.439 190.939 118.158 195.77C111.357 198.477 104.547 201.143 97.7259 203.768C109.946 211.462 120.908 220.76 131.698 230.301Z" fill="url(#paint0_linear)"/>
<path d="M67.6108 86.7389V86.5968" stroke="#61587D" stroke-width="1.015"/>
<path d="M63.8452 86.7389V86.5968" stroke="#61587D" stroke-width="1.015"/>
<path d="M56.324 86.5968V86.7389" stroke="#61587D" stroke-width="1.015"/>
<path d="M60.0897 86.7389V86.5968" stroke="#61587D" stroke-width="1.015"/>
<path d="M52.5584 86.5968V86.7389" stroke="#61587D" stroke-width="1.015"/>
<path d="M193.755 180.535L181.484 175.115V81.4001L197.602 75.645" fill="#7F1D18"/>
<path d="M201.439 63.465V173.765L193.755 180.535V74.295" fill="#AA3529"/>
<path d="M128.612 86.404V45.5908C128.612 45.5908 127.536 38.3437 140.427 31.8985C153.317 25.4532 196.008 0.484231 196.008 0.484231C196.008 0.484231 216.948 -3.27127 228.224 27.331C230.2 32.4809 231.463 37.8764 231.98 43.368V75.3912L169.953 109.759L128.612 86.404Z" fill="#68E1FD"/>
<path d="M131.008 83.43V45.0529C131.008 45.0529 132.348 34.3141 143.36 38.0696C154.373 41.8251 165.914 56.5934 168.329 70.2858V104.918L132.348 83.9781" fill="#E98669"/>
<path d="M184.975 11.8928C184.975 10.9286 184.194 10.147 183.23 10.147C182.265 10.147 181.484 10.9286 181.484 11.8928V80.8925C181.484 81.8566 182.265 82.6383 183.23 82.6383C184.194 82.6383 184.975 81.8566 184.975 80.8925V11.8928Z" fill="#AA3529"/>
<path d="M184.955 10.147C184.955 10.147 208.848 7.73135 210.462 7.99525C212.076 8.25915 184.955 34.0503 184.955 34.0503" fill="#AA3529"/>
<path d="M130.429 87.0942L106.262 116.357C106.262 116.357 95.2493 133.277 113.245 142.94C131.241 152.602 148.151 132.465 148.151 132.465L168.827 108.805L130.429 87.0942Z" fill="#F9B246"/>
<path d="M128.318 86.4039L104.151 115.666C104.151 115.666 93.1381 132.586 111.134 142.249C129.13 151.912 146.04 131.774 146.04 131.774L166.685 108.155L128.318 86.4039Z" fill="#FFD7CB"/>
<path d="M163.64 57.3547C158.707 48.2907 150.881 40.5057 143.34 37.9174C132.348 34.1619 131.008 44.86 131.008 44.86V83.43C143.188 73.6657 149.044 69.5042 163.64 57.3547Z" fill="#CD725F"/>
<path d="M220.646 65.6957C224.863 57.1495 222.751 47.4931 215.929 44.1274C209.107 40.7618 200.159 44.9614 195.942 53.5076C191.726 62.0538 193.838 71.7102 200.66 75.0759C207.482 78.4415 216.43 74.2419 220.646 65.6957Z" fill="#FFD7CB"/>
<path d="M213.629 50.1482C214.38 50.7275 214.978 51.4817 215.37 52.345C215.763 53.2083 215.939 54.1546 215.882 55.1014C215.929 56.8885 215.524 58.6586 214.705 60.2474C214.105 61.6384 213.024 62.7664 211.66 63.4244C211.359 63.6056 211.001 63.6655 210.658 63.592C210.315 63.5184 210.012 63.317 209.812 63.0285C209.426 63.9159 208.734 64.6358 207.864 65.0585C207.495 65.2439 207.075 65.3026 206.67 65.2255C206.264 65.1484 205.895 64.9399 205.62 64.6322C204.895 63.7386 204.532 62.6042 204.605 61.4553C204.551 60.0224 204.876 58.6006 205.549 57.3344C206.057 56.2524 206.926 55.3805 208.006 54.8679C208.275 54.7399 208.571 54.6803 208.868 54.6944C209.166 54.7086 209.455 54.7961 209.711 54.9491L209.833 54.3097L211.863 53.4774L211.416 59.6486C211.416 60.0647 211.416 60.4301 211.416 60.7346C211.416 61.0391 211.568 61.232 211.853 61.1102C212.532 60.6935 213.043 60.05 213.294 59.2933C213.76 58.2546 213.979 57.122 213.933 55.9844C213.986 55.2728 213.861 54.5593 213.57 53.9076C213.28 53.2559 212.833 52.6861 212.269 52.2492C211.696 51.8867 211.039 51.6808 210.362 51.6523C209.685 51.6238 209.012 51.7737 208.412 52.0868C206.667 52.8801 205.238 54.2342 204.352 55.9337C203.277 57.7427 202.735 59.8186 202.789 61.9222C202.753 62.7365 202.886 63.5495 203.177 64.3107C203.469 65.0718 203.913 65.7651 204.484 66.3476C205.57 67.3626 207.062 67.4641 208.97 66.6724C210.704 65.866 212.247 64.7001 213.497 63.2518L214.248 65.1296C212.801 66.7623 211.023 68.0669 209.031 68.9561C206.534 69.9711 204.534 69.8696 203.022 68.6009C201.51 67.3321 200.718 65.3935 200.657 62.7849C200.598 60.04 201.342 57.3376 202.799 55.01C204.039 52.771 205.968 50.9913 208.3 49.935C210.411 49.0554 212.187 49.1264 213.629 50.1482ZM209.214 61.029C209.55 60.3263 209.717 59.5545 209.701 58.7757C209.721 58.5383 209.69 58.2993 209.609 58.0751C209.529 57.8508 209.401 57.6466 209.234 57.4765C209.099 57.3528 208.93 57.2729 208.748 57.2475C208.567 57.2222 208.382 57.2525 208.219 57.3344C207.743 57.5883 207.381 58.0124 207.204 58.5219C206.918 59.1875 206.786 59.9093 206.818 60.6331C206.806 61.1561 206.928 61.6734 207.173 62.1353C207.205 62.2112 207.252 62.2798 207.311 62.337C207.37 62.3943 207.44 62.4389 207.517 62.4683C207.594 62.4977 207.676 62.5113 207.758 62.5081C207.84 62.505 207.921 62.4852 207.996 62.45C208.575 62.15 209.021 61.6427 209.244 61.029" fill="#AA3529"/>
<path d="M256.157 113.048L229.321 98.8073L337.246 74.153L256.705 116.336L256.157 113.048Z" fill="#68E1FD"/>
<path d="M256.705 116.336L262.734 137.702L337.246 74.153L256.705 116.336Z" fill="#5C5196"/>
<path d="M269.312 122.914L298.341 137.702L337.246 74.153L269.312 122.914Z" fill="#68E1FD"/>
<path d="M269.312 122.914L262.734 137.702L276.051 126.344L269.312 122.914Z" fill="#231069"/>
<path d="M225.108 148.004C197.44 154.916 163.518 150.593 147.207 124.345C134.55 103.994 139.696 75.6754 157.682 60.2779C159.712 58.5727 156.789 55.7205 154.81 57.4054C135.464 73.9702 130.175 104.572 143.645 126.425C160.9 154.287 196.668 159.311 226.134 151.953C228.722 151.283 227.646 147.375 225.108 148.004Z" fill="#24116A"/>
<path d="M246.18 140.544L237.39 144.604C235.025 145.7 237.085 149.202 239.42 148.106L248.21 144.046C250.595 142.95 248.535 139.448 246.18 140.544Z" fill="#24116A"/>
<path d="M96.3963 160.367L95.3813 159.86C94.8027 159.565 94.2851 160.448 94.8738 160.732L95.8888 161.24C96.4673 161.534 96.985 160.651 96.3963 160.367Z" fill="#FA4E76"/>
<path style="mix-blend-mode:multiply" d="M51.7363 141.041L15.9575 158.418C21.2218 161.937 26.7811 164.994 32.5731 167.553L64.5151 145.518" fill="url(#paint1_linear)"/>
<path d="M47.2905 126.527C47.2905 126.527 45.7883 144.33 55.2887 147.466C64.7891 150.603 69.4987 141.508 69.1638 125.837" fill="#68E1FD"/>
<path d="M58.421 132.493C64.4609 132.301 69.2673 129.316 69.1563 125.825C69.0454 122.335 64.0592 119.661 58.0193 119.853C51.9795 120.044 47.1731 123.03 47.284 126.52C47.3949 130.011 52.3811 132.685 58.421 132.493Z" fill="#F2696A"/>
<path d="M60.5769 112.033C60.5769 112.033 56.0906 105.943 57.8262 101.629C57.8262 101.629 59.2879 98.8275 61.46 98.32C61.46 98.32 61.4599 104.197 63.5914 103.395C65.7229 102.593 63.3986 97.2441 63.3986 97.2441C63.3986 97.2441 65.6011 94.057 68.1183 94.0773C70.6355 94.0976 68.2909 99.5685 70.0164 98.6245C71.7419 97.6806 69.9555 93.1334 71.9043 92.5345C73.6931 92.0751 75.5106 91.736 77.3447 91.5195C77.3447 91.5195 79.3747 96.8178 77.5375 97.6095C75.7004 98.4012 72.9802 98.7869 74.3301 99.9237C75.6801 101.061 79.4051 99.5888 79.4051 99.5888C79.4051 99.5888 79.7299 102.634 78.5119 103.943C77.2939 105.252 69.7626 102.644 71.1532 105.192C72.5437 107.739 77.365 106.257 77.365 106.257C75.9563 108.379 74.1585 110.215 72.0667 111.667C69.1638 113.393 60.5769 112.033 60.5769 112.033Z" fill="#8CCC00"/>
<path d="M62.0791 127.501C62.0791 127.501 58.8819 124.537 59.4097 121.888C59.6903 120.952 60.2994 120.148 61.125 119.625C61.125 119.625 61.734 122.964 62.8708 122.274C64.0076 121.584 62.0994 118.803 62.0994 118.803C62.0994 118.803 63.0028 116.773 64.4441 116.499C65.8854 116.225 65.1343 119.594 66.0072 118.874C66.8801 118.153 65.388 115.768 66.4233 115.21C67.3872 114.751 68.3808 114.358 69.3973 114.032C69.3973 114.032 71.1126 116.823 70.1585 117.493C69.2044 118.163 67.6921 118.65 68.5853 119.148C69.4785 119.645 71.407 118.417 71.407 118.417C71.6947 119.249 71.6947 120.153 71.407 120.985C70.8589 121.878 66.332 121.178 67.347 122.477C68.362 123.776 71.0314 122.477 71.0314 122.477C70.4561 123.831 69.6295 125.064 68.5954 126.111C67.0932 127.369 62.0791 127.501 62.0791 127.501Z" fill="#8CCC00"/>
<path d="M50.4675 121.249C50.4675 121.249 42.9464 121.777 40.216 117.981C40.216 117.981 38.6326 115.25 39.3736 113.139C39.3736 113.139 44.3166 116.326 44.7937 114.063C45.2707 111.799 39.5055 110.926 39.5055 110.926C39.5055 110.926 38.0033 107.364 39.3736 105.242C40.7438 103.121 44.1035 108.044 44.2253 106.085C44.3471 104.126 39.5563 103.192 40.0942 101.213C40.6548 99.4507 41.333 97.728 42.1242 96.0566C42.1242 96.0566 47.6864 97.1934 47.3921 99.1828C47.0977 101.172 45.9305 103.659 47.6154 103.131C49.3003 102.603 50.0311 98.7159 50.0311 98.7159C50.0311 98.7159 52.7411 100.056 53.2182 101.761C53.6952 103.466 47.4124 108.44 50.3153 108.632C53.2182 108.825 54.6087 103.923 54.6087 103.923C55.6415 106.252 56.2235 108.756 56.3241 111.302C56.2327 114.753 50.4675 121.249 50.4675 121.249Z" fill="#8CCC00"/>
<path d="M75.7715 93.8846L73.4268 96.0262C73.4776 95.1736 73.5588 94.321 73.6603 93.4684C73.7212 93.0218 73.0208 92.8493 72.9701 93.306C72.828 94.4496 72.7265 95.5932 72.6656 96.7367C70.6356 98.6551 68.6056 100.665 66.6974 102.827C66.4851 101.389 66.3968 99.9355 66.4335 98.4825C66.4335 98.0258 65.7331 98.0461 65.723 98.4825C65.6868 100.162 65.8125 101.841 66.0985 103.497C64.8968 104.864 63.7718 106.298 62.7287 107.79C61.4535 106.142 60.5592 104.232 60.11 102.197C60.0085 101.751 59.3285 101.964 59.43 102.411C59.9053 104.582 60.8704 106.617 62.2517 108.358L62.3227 108.419C59.1639 112.925 57.428 118.274 57.3391 123.776C57.3391 124.233 58.0496 124.213 58.0496 123.776C58.1381 118.472 59.8022 113.314 62.8302 108.957C65.7296 109.628 68.7189 109.824 71.681 109.536C72.1378 109.536 72.1175 108.785 71.681 108.825C68.8703 109.098 66.0342 108.927 63.2768 108.318C64.7195 106.231 66.314 104.253 68.0473 102.4H68.1082C69.7728 102.492 71.4374 102.593 73.1122 102.593C74.1495 102.704 75.198 102.547 76.1572 102.137C76.5632 101.913 76.1572 101.314 75.7816 101.538C74.655 102.157 73.031 101.903 71.8028 101.862C70.7878 101.862 69.6916 101.781 68.636 101.72C71.0923 99.1321 73.711 96.7063 76.2891 94.3921C76.6342 94.0673 76.1166 93.5801 75.7715 93.8846Z" fill="#06577A"/>
<path d="M54.152 108.44C54.167 108.351 54.1475 108.259 54.0976 108.184C54.0476 108.109 53.9709 108.055 53.883 108.035C53.7951 108.014 53.7027 108.028 53.6244 108.073C53.5462 108.118 53.488 108.191 53.4618 108.277C52.7764 110.927 51.2481 113.281 49.1074 114.986C48.2277 112.774 47.4191 110.534 46.6816 108.267C48.3448 106.499 49.6938 104.46 50.6705 102.238C50.8532 101.822 50.2239 101.477 50.0412 101.903C49.141 103.943 47.9174 105.825 46.4177 107.475C45.5955 104.877 44.8546 102.258 44.2151 99.599C44.1035 99.1524 43.4234 99.3655 43.5351 99.8121C44.408 103.446 45.4568 107.022 46.6816 110.541C45.3301 110.321 44.0109 109.936 42.7535 109.394C42.3374 109.211 41.9923 109.84 42.4186 110.023C43.8523 110.656 45.3647 111.093 46.915 111.322V111.322C47.7372 113.647 48.6507 115.93 49.6251 118.194C47.4934 118.193 45.3804 117.797 43.393 117.027C42.9667 116.864 42.6317 117.483 43.058 117.656C45.2564 118.513 47.6008 118.933 49.96 118.894C51.1915 121.709 52.5449 124.477 54.02 127.197C54.2332 127.603 54.8422 127.197 54.6189 126.821C52.6678 123.199 50.9193 119.472 49.3815 115.656V115.656C51.7259 113.844 53.4035 111.306 54.152 108.44V108.44Z" fill="#06577A"/>
<path d="M67.3368 117.24L65.4793 120.589C65.2301 120.273 65.0125 119.933 64.8297 119.574C64.6166 119.168 64.0177 119.574 64.2309 119.95C64.4696 120.404 64.7591 120.829 65.0936 121.218V121.218L63.0636 124.842C62.8167 124.623 62.6519 124.325 62.5967 124C62.5257 123.553 61.8152 123.573 61.8862 124C61.9686 124.569 62.2665 125.085 62.7185 125.441L60.2013 129.978C60.1569 130.061 60.1475 130.159 60.1751 130.249C60.2027 130.34 60.2651 130.416 60.3485 130.46C60.432 130.504 60.5296 130.514 60.6201 130.486C60.7105 130.459 60.7862 130.396 60.8306 130.313L64.1497 124.324C64.7383 124.316 65.3214 124.209 65.8752 124.01C66.3015 123.857 66.0985 123.167 65.662 123.33C65.3076 123.454 64.9396 123.536 64.5658 123.573L67.9255 117.483C67.9211 117.417 67.8983 117.354 67.8597 117.3C67.821 117.246 67.7681 117.204 67.7068 117.178C67.6456 117.153 67.5785 117.145 67.5131 117.156C67.4477 117.167 67.3866 117.196 67.3368 117.24Z" fill="#06577A"/>
</g>
<defs>
<linearGradient id="paint0_linear" x1="113.661" y1="222.688" x2="174.572" y2="165.391" gradientUnits="userSpaceOnUse">
<stop stop-opacity="0"/>
<stop offset="0.99" stop-color="#552800"/>
</linearGradient>
<linearGradient id="paint1_linear" x1="68.3721" y1="129.085" x2="28.6348" y2="161.433" gradientUnits="userSpaceOnUse">
<stop stop-color="#D4A397"/>
<stop offset="1" stop-color="white"/>
</linearGradient>
<clipPath id="clip0">
<rect width="361" height="260" fill="white"/>
</clipPath>
</defs>
</svg>
