<svg width="402" height="307" viewBox="0 0 402 307" fill="none" xmlns="http://www.w3.org/2000/svg">
<g clip-path="url(#clip0)">
<path d="M367.364 283.215C367.828 281.534 368.067 279.791 368.073 278.038C368.073 263.26 351.173 251.286 330.251 251.286C309.329 251.286 292.429 263.26 292.429 278.038C292.432 279.792 292.677 281.537 293.156 283.215H367.364Z" fill="#68E1FD"/>
<path d="M367.364 285.013H293.156C292.779 285.029 292.407 284.91 292.101 284.676C291.795 284.441 291.571 284.104 291.466 283.719C290.947 281.875 290.68 279.962 290.671 278.038C290.671 262.289 308.4 249.489 330.184 249.489C351.968 249.489 369.696 262.289 369.696 278.038C369.696 279.963 369.428 281.877 368.901 283.719C368.804 284.078 368.603 284.396 368.327 284.628C368.051 284.86 367.715 284.994 367.364 285.013V285.013ZM294.457 281.418H366.045C366.265 280.306 366.379 279.174 366.383 278.038C366.383 264.267 350.176 253.084 330.251 253.084C310.326 253.084 294.119 264.267 294.119 278.038C294.124 279.174 294.237 280.306 294.457 281.418Z" fill="#093F68"/>
<path d="M330.251 269.049C329.803 269.049 329.373 268.859 329.056 268.522C328.739 268.185 328.561 267.728 328.561 267.251V251.286C328.561 250.81 328.739 250.352 329.056 250.015C329.373 249.678 329.803 249.489 330.251 249.489C330.699 249.489 331.129 249.678 331.446 250.015C331.763 250.352 331.941 250.81 331.941 251.286V267.251C331.941 267.728 331.763 268.185 331.446 268.522C331.129 268.859 330.699 269.049 330.251 269.049Z" fill="#093F68"/>
<path d="M390.838 283.215H11.1623C5.7768 283.215 1.411 287.86 1.411 293.589V295.279C1.411 301.008 5.7768 305.652 11.1623 305.652H390.838C396.223 305.652 400.589 301.008 400.589 295.279V293.589C400.589 287.86 396.223 283.215 390.838 283.215Z" fill="#725858"/>
<path d="M390.838 307.45H11.1623C8.12925 307.445 5.22172 306.161 3.07703 303.88C0.932334 301.598 -0.274521 298.505 -0.278992 295.279V293.589C-0.274521 290.362 0.932334 287.269 3.07703 284.988C5.22172 282.706 8.12925 281.422 11.1623 281.418H390.838C393.871 281.422 396.778 282.706 398.923 284.988C401.068 287.269 402.275 290.362 402.279 293.589V295.279C402.275 298.505 401.068 301.598 398.923 303.88C396.778 306.161 393.871 307.445 390.838 307.45V307.45ZM11.1623 285.013C9.02569 285.018 6.97786 285.923 5.46704 287.53C3.95622 289.137 3.10547 291.316 3.10101 293.589V295.279C3.10547 297.552 3.95622 299.73 5.46704 301.337C6.97786 302.944 9.02569 303.85 11.1623 303.854H390.838C392.974 303.85 395.022 302.944 396.533 301.337C398.044 299.73 398.895 297.552 398.899 295.279V293.589C398.895 291.316 398.044 289.137 396.533 287.53C395.022 285.923 392.974 285.018 390.838 285.013H11.1623Z" fill="#093F68"/>
<path d="M321.497 14.7664H80.503C71.1787 14.7664 63.6199 22.8074 63.6199 32.7265V217.739C63.6199 227.658 71.1787 235.699 80.503 235.699H321.497C330.821 235.699 338.38 227.658 338.38 217.739V32.7265C338.38 22.8074 330.821 14.7664 321.497 14.7664Z" fill="#68E1FD"/>
<path d="M321.497 237.497H80.503C75.5726 237.497 70.8442 235.414 67.3579 231.705C63.8716 227.996 61.913 222.966 61.913 217.721V32.7265C61.913 27.4816 63.8716 22.4515 67.3579 18.7428C70.8442 15.0341 75.5726 12.9506 80.503 12.9506H321.497C326.427 12.9506 331.156 15.0341 334.642 18.7428C338.128 22.4515 340.087 27.4816 340.087 32.7265V217.721C340.087 222.966 338.128 227.996 334.642 231.705C331.156 235.414 326.427 237.497 321.497 237.497ZM80.503 16.5642C76.4691 16.5642 72.6003 18.2689 69.7479 21.3033C66.8955 24.3377 65.293 28.4532 65.293 32.7445V217.721C65.293 222.012 66.8955 226.128 69.7479 229.162C72.6003 232.197 76.4691 233.901 80.503 233.901H321.497C325.531 233.901 329.4 232.197 332.252 229.162C335.105 226.128 336.707 222.012 336.707 217.721V32.7265C336.707 28.4352 335.105 24.3197 332.252 21.2853C329.4 18.2509 325.531 16.5462 321.497 16.5462L80.503 16.5642Z" fill="#093F68"/>
<path d="M249.706 283.215H152.294L162.468 235.699H239.532L249.706 283.215Z" fill="#68E1FD"/>
<path d="M249.706 285.013H152.294C152.04 285.012 151.79 284.95 151.562 284.832C151.334 284.713 151.133 284.542 150.976 284.33C150.82 284.12 150.71 283.875 150.655 283.614C150.599 283.352 150.599 283.081 150.655 282.82L160.795 235.304C160.881 234.898 161.096 234.537 161.404 234.281C161.712 234.025 162.094 233.891 162.485 233.901H239.549C239.94 233.891 240.321 234.025 240.63 234.281C240.938 234.537 241.153 234.898 241.239 235.304L251.379 282.82C251.435 283.081 251.435 283.352 251.379 283.614C251.323 283.875 251.214 284.12 251.058 284.33C250.897 284.547 250.691 284.721 250.457 284.839C250.222 284.958 249.965 285.017 249.706 285.013ZM154.424 281.418H247.576L238.18 237.497H163.82L154.424 281.418Z" fill="#093F68"/>
<path d="M319.638 33.176H82.3451V197.154H319.638V33.176Z" fill="white"/>
<path d="M319.655 198.952H82.3451C81.8969 198.952 81.467 198.763 81.1501 198.425C80.8331 198.088 80.6551 197.631 80.6551 197.154V33.1759C80.6551 32.6991 80.8331 32.2418 81.1501 31.9047C81.467 31.5675 81.8969 31.3781 82.3451 31.3781H319.655C320.103 31.3781 320.533 31.5675 320.85 31.9047C321.167 32.2418 321.345 32.6991 321.345 33.1759V197.154C321.345 197.631 321.167 198.088 320.85 198.425C320.533 198.763 320.103 198.952 319.655 198.952ZM84.0351 195.356H317.965V34.9737H84.0351V195.356Z" fill="#093F68"/>
<path d="M152.294 33.176H82.3451V197.154H152.294V33.176Z" fill="white"/>
<path d="M152.294 198.952H82.3451C81.8969 198.952 81.467 198.763 81.1501 198.425C80.8331 198.088 80.6551 197.631 80.6551 197.154V33.1759C80.6551 32.6991 80.8331 32.2418 81.1501 31.9047C81.467 31.5675 81.8969 31.3781 82.3451 31.3781H152.294C152.742 31.3781 153.172 31.5675 153.489 31.9047C153.806 32.2418 153.984 32.6991 153.984 33.1759V197.154C153.984 197.631 153.806 198.088 153.489 198.425C153.172 198.763 152.742 198.952 152.294 198.952ZM84.0351 195.356H150.604V34.9737H84.0351V195.356Z" fill="#093F68"/>
<path d="M319.638 33.176H152.294V197.154H319.638V33.176Z" fill="#093F68"/>
<path d="M319.655 198.952H152.345C151.897 198.952 151.467 198.763 151.15 198.425C150.833 198.088 150.655 197.631 150.655 197.154V33.1759C150.655 32.6991 150.833 32.2418 151.15 31.9047C151.467 31.5675 151.897 31.3781 152.345 31.3781H319.655C320.103 31.3781 320.533 31.5675 320.85 31.9047C321.167 32.2418 321.345 32.6991 321.345 33.1759V197.154C321.345 197.631 321.167 198.088 320.85 198.425C320.533 198.763 320.103 198.952 319.655 198.952ZM154.035 195.356H317.965V34.9737H154.035V195.356Z" fill="#093F68"/>
<path d="M131.237 55.7205H102.845C102.397 55.7205 101.967 55.5311 101.65 55.1939C101.333 54.8568 101.155 54.3995 101.155 53.9227C101.155 53.4459 101.333 52.9886 101.65 52.6514C101.967 52.3143 102.397 52.1249 102.845 52.1249H131.237C131.685 52.1249 132.115 52.3143 132.432 52.6514C132.749 52.9886 132.927 53.4459 132.927 53.9227C132.927 54.3995 132.749 54.8568 132.432 55.1939C132.115 55.5311 131.685 55.7205 131.237 55.7205Z" fill="#093F68"/>
<path d="M136.104 73.4109H112.174C111.725 73.4109 111.296 73.2215 110.979 72.8843C110.662 72.5472 110.484 72.0899 110.484 71.6131C110.484 71.1363 110.662 70.679 110.979 70.3419C111.296 70.0047 111.725 69.8153 112.174 69.8153H136.104C136.552 69.8153 136.982 70.0047 137.299 70.3419C137.616 70.679 137.794 71.1363 137.794 71.6131C137.794 72.0899 137.616 72.5472 137.299 72.8843C136.982 73.2215 136.552 73.4109 136.104 73.4109Z" fill="#093F68"/>
<path d="M139.349 91.1014H119.474C119.026 91.1014 118.596 90.912 118.279 90.5748C117.962 90.2377 117.784 89.7804 117.784 89.3036C117.784 88.8268 117.962 88.3695 118.279 88.0324C118.596 87.6952 119.026 87.5058 119.474 87.5058H139.349C139.797 87.5058 140.227 87.6952 140.544 88.0324C140.861 88.3695 141.039 88.8268 141.039 89.3036C141.039 89.7804 140.861 90.2377 140.544 90.5748C140.227 90.912 139.797 91.1014 139.349 91.1014V91.1014Z" fill="#093F68"/>
<path d="M132.859 108.792H107.712C107.264 108.792 106.834 108.602 106.517 108.265C106.2 107.928 106.022 107.471 106.022 106.994C106.022 106.517 106.2 106.06 106.517 105.723C106.834 105.386 107.264 105.196 107.712 105.196H132.859C133.307 105.196 133.737 105.386 134.054 105.723C134.371 106.06 134.549 106.517 134.549 106.994C134.549 107.471 134.371 107.928 134.054 108.265C133.737 108.602 133.307 108.792 132.859 108.792Z" fill="#093F68"/>
<path d="M126.099 126.482H102.845C102.397 126.482 101.967 126.293 101.65 125.956C101.333 125.619 101.155 125.161 101.155 124.685C101.155 124.208 101.333 123.75 101.65 123.413C101.967 123.076 102.397 122.887 102.845 122.887H126.099C126.547 122.887 126.977 123.076 127.294 123.413C127.611 123.75 127.789 124.208 127.789 124.685C127.789 125.161 127.611 125.619 127.294 125.956C126.977 126.293 126.547 126.482 126.099 126.482V126.482Z" fill="#093F68"/>
<path d="M131.237 144.173H110.686C110.238 144.173 109.808 143.983 109.491 143.646C109.174 143.309 108.996 142.852 108.996 142.375C108.996 141.898 109.174 141.441 109.491 141.104C109.808 140.767 110.238 140.577 110.686 140.577H131.237C131.685 140.577 132.115 140.767 132.432 141.104C132.749 141.441 132.927 141.898 132.927 142.375C132.927 142.852 132.749 143.309 132.432 143.646C132.115 143.983 131.685 144.173 131.237 144.173Z" fill="#093F68"/>
<path d="M124.139 161.863H102.845C102.397 161.863 101.967 161.674 101.65 161.337C101.333 160.999 101.155 160.542 101.155 160.065C101.155 159.589 101.333 159.131 101.65 158.794C101.967 158.457 102.397 158.268 102.845 158.268H124.139C124.587 158.268 125.017 158.457 125.334 158.794C125.651 159.131 125.829 159.589 125.829 160.065C125.829 160.542 125.651 160.999 125.334 161.337C125.017 161.674 124.587 161.863 124.139 161.863Z" fill="#093F68"/>
<path d="M131.237 179.554H110.686C110.238 179.554 109.808 179.364 109.491 179.027C109.174 178.69 108.996 178.233 108.996 177.756C108.996 177.279 109.174 176.822 109.491 176.485C109.808 176.147 110.238 175.958 110.686 175.958H131.237C131.685 175.958 132.115 176.147 132.432 176.485C132.749 176.822 132.927 177.279 132.927 177.756C132.927 178.233 132.749 178.69 132.432 179.027C132.115 179.364 131.685 179.554 131.237 179.554Z" fill="#093F68"/>
<path d="M202.69 55.7205H174.298C173.85 55.7205 173.42 55.5311 173.103 55.1939C172.786 54.8568 172.608 54.3995 172.608 53.9227C172.608 53.4459 172.786 52.9886 173.103 52.6514C173.42 52.3143 173.85 52.1249 174.298 52.1249H202.69C203.138 52.1249 203.568 52.3143 203.885 52.6514C204.202 52.9886 204.38 53.4459 204.38 53.9227C204.38 54.3995 204.202 54.8568 203.885 55.1939C203.568 55.5311 203.138 55.7205 202.69 55.7205Z" fill="white"/>
<path d="M241.83 73.4109H183.559C183.111 73.4109 182.681 73.2215 182.364 72.8843C182.047 72.5472 181.869 72.0899 181.869 71.6131C181.869 71.1363 182.047 70.679 182.364 70.3419C182.681 70.0047 183.111 69.8153 183.559 69.8153H241.83C242.279 69.8153 242.708 70.0047 243.025 70.3419C243.342 70.679 243.52 71.1363 243.52 71.6131C243.52 72.0899 243.342 72.5472 243.025 72.8843C242.708 73.2215 242.279 73.4109 241.83 73.4109Z" fill="#FFBC0E"/>
<path d="M227.364 91.1014H183.559C183.111 91.1014 182.681 90.912 182.364 90.5748C182.047 90.2377 181.869 89.7804 181.869 89.3036C181.869 88.8268 182.047 88.3695 182.364 88.0324C182.681 87.6952 183.111 87.5058 183.559 87.5058H227.364C227.812 87.5058 228.242 87.6952 228.559 88.0324C228.876 88.3695 229.054 88.8268 229.054 89.3036C229.054 89.7804 228.876 90.2377 228.559 90.5748C228.242 90.912 227.812 91.1014 227.364 91.1014Z" fill="#FFBC0E"/>
<path d="M204.245 108.792H179.03C178.582 108.792 178.152 108.602 177.835 108.265C177.518 107.928 177.34 107.471 177.34 106.994C177.34 106.517 177.518 106.06 177.835 105.723C178.152 105.386 178.582 105.196 179.03 105.196H204.177C204.625 105.196 205.055 105.386 205.372 105.723C205.689 106.06 205.867 106.517 205.867 106.994C205.867 107.471 205.689 107.928 205.372 108.265C205.055 108.602 204.625 108.792 204.177 108.792H204.245Z" fill="white"/>
<path d="M214.25 126.482H185.79C185.342 126.482 184.912 126.293 184.595 125.956C184.278 125.619 184.1 125.161 184.1 124.685C184.1 124.208 184.278 123.75 184.595 123.413C184.912 123.076 185.342 122.887 185.79 122.887H214.182C214.63 122.887 215.06 123.076 215.377 123.413C215.694 123.75 215.872 124.208 215.872 124.685C215.872 125.161 215.694 125.619 215.377 125.956C215.06 126.293 214.63 126.482 214.182 126.482H214.25Z" fill="#F56132"/>
<path d="M228.716 144.173H184.877C184.429 144.173 183.999 143.983 183.682 143.646C183.365 143.309 183.187 142.852 183.187 142.375C183.187 141.898 183.365 141.441 183.682 141.104C183.999 140.767 184.429 140.577 184.877 140.577H228.716C229.164 140.577 229.594 140.767 229.911 141.104C230.228 141.441 230.406 141.898 230.406 142.375C230.406 142.852 230.228 143.309 229.911 143.646C229.594 143.983 229.164 144.173 228.716 144.173Z" fill="white"/>
<path d="M195.524 161.863H174.23C173.782 161.863 173.352 161.674 173.035 161.337C172.718 160.999 172.54 160.542 172.54 160.065C172.54 159.589 172.718 159.131 173.035 158.794C173.352 158.457 173.782 158.268 174.23 158.268H195.524C195.973 158.268 196.402 158.457 196.719 158.794C197.036 159.131 197.214 159.589 197.214 160.065C197.214 160.542 197.036 160.999 196.719 161.337C196.402 161.674 195.973 161.863 195.524 161.863Z" fill="white"/>
<path d="M228.716 179.554H182.072C181.624 179.554 181.194 179.364 180.877 179.027C180.56 178.69 180.382 178.233 180.382 177.756C180.382 177.279 180.56 176.822 180.877 176.485C181.194 176.147 181.624 175.958 182.072 175.958H228.716C229.164 175.958 229.594 176.147 229.911 176.485C230.228 176.822 230.406 177.279 230.406 177.756C230.406 178.233 230.228 178.69 229.911 179.027C229.594 179.364 229.164 179.554 228.716 179.554Z" fill="#70CC40"/>
<path d="M273.4 179.554H242.777C242.329 179.554 241.899 179.364 241.582 179.027C241.265 178.69 241.087 178.233 241.087 177.756C241.087 177.279 241.265 176.822 241.582 176.485C241.899 176.147 242.329 175.958 242.777 175.958H273.4C273.848 175.958 274.278 176.147 274.595 176.485C274.912 176.822 275.09 177.279 275.09 177.756C275.09 178.233 274.912 178.69 274.595 179.027C274.278 179.364 273.848 179.554 273.4 179.554Z" fill="#FFBC0E"/>
<path d="M263.53 91.1014H241.898C241.45 91.1014 241.02 90.912 240.703 90.5748C240.386 90.2377 240.208 89.7804 240.208 89.3036C240.208 88.8268 240.386 88.3695 240.703 88.0324C241.02 87.6952 241.45 87.5058 241.898 87.5058H263.53C263.978 87.5058 264.408 87.6952 264.725 88.0324C265.042 88.3695 265.22 88.8268 265.22 89.3036C265.22 89.7804 265.042 90.2377 264.725 90.5748C264.408 90.912 263.978 91.1014 263.53 91.1014Z" fill="white"/>
<path d="M294.305 73.4109H252.646C252.198 73.4109 251.768 73.2215 251.451 72.8843C251.134 72.5472 250.956 72.0899 250.956 71.6131C250.956 71.1363 251.134 70.679 251.451 70.3419C251.768 70.0047 252.198 69.8153 252.646 69.8153H294.305C294.753 69.8153 295.183 70.0047 295.5 70.3419C295.817 70.679 295.995 71.1363 295.995 71.6131C295.995 72.0899 295.817 72.5472 295.5 72.8843C295.183 73.2215 294.753 73.4109 294.305 73.4109Z" fill="#68E1FD"/>
<path d="M287.393 91.1014H275.225C274.777 91.1014 274.347 90.912 274.03 90.5748C273.713 90.2377 273.535 89.7804 273.535 89.3036C273.535 88.8268 273.713 88.3695 274.03 88.0324C274.347 87.6952 274.777 87.5058 275.225 87.5058H287.393C287.841 87.5058 288.271 87.6952 288.588 88.0324C288.905 88.3695 289.083 88.8268 289.083 89.3036C289.083 89.7804 288.905 90.2377 288.588 90.5748C288.271 90.912 287.841 91.1014 287.393 91.1014Z" fill="#F56132"/>
<path d="M234.8 126.482H222.632C222.184 126.482 221.754 126.293 221.437 125.956C221.12 125.619 220.942 125.161 220.942 124.685C220.942 124.208 221.12 123.75 221.437 123.413C221.754 123.076 222.184 122.887 222.632 122.887H234.8C235.248 122.887 235.678 123.076 235.995 123.413C236.312 123.75 236.49 124.208 236.49 124.685C236.49 125.161 236.312 125.619 235.995 125.956C235.678 126.293 235.248 126.482 234.8 126.482Z" fill="#F56132"/>
<path d="M294.305 126.482H244.805C244.357 126.482 243.927 126.293 243.61 125.956C243.293 125.619 243.115 125.161 243.115 124.685C243.115 124.208 243.293 123.75 243.61 123.413C243.927 123.076 244.357 122.887 244.805 122.887H294.305C294.753 122.887 295.183 123.076 295.5 123.413C295.817 123.75 295.995 124.208 295.995 124.685C295.995 125.161 295.817 125.619 295.5 125.956C295.183 126.293 294.753 126.482 294.305 126.482V126.482Z" fill="#FFBC0E"/>
<path d="M252.646 144.173H241.83C241.382 144.173 240.952 143.983 240.635 143.646C240.318 143.309 240.14 142.852 240.14 142.375C240.14 141.898 240.318 141.441 240.635 141.104C240.952 140.767 241.382 140.577 241.83 140.577H252.646C253.095 140.577 253.524 140.767 253.841 141.104C254.158 141.441 254.336 141.898 254.336 142.375C254.336 142.852 254.158 143.309 253.841 143.646C253.524 143.983 253.095 144.173 252.646 144.173Z" fill="#68E1FD"/>
<path d="M294.305 179.554H287.393C286.945 179.554 286.515 179.364 286.198 179.027C285.881 178.69 285.703 178.233 285.703 177.756C285.703 177.279 285.881 176.822 286.198 176.485C286.515 176.147 286.945 175.958 287.393 175.958H294.305C294.753 175.958 295.183 176.147 295.5 176.485C295.817 176.822 295.995 177.279 295.995 177.756C295.995 178.233 295.817 178.69 295.5 179.027C295.183 179.364 294.753 179.554 294.305 179.554Z" fill="white"/>
<path d="M385.176 0.3479H281.63C277.56 0.3479 274.262 3.8573 274.262 8.18636V91.9643C274.262 96.2934 277.56 99.8028 281.63 99.8028H385.176C389.246 99.8028 392.545 96.2934 392.545 91.9643V8.18636C392.545 3.8573 389.246 0.3479 385.176 0.3479Z" fill="white"/>
<path d="M385.21 101.601H281.63C279.229 101.596 276.927 100.579 275.23 98.773C273.532 96.9668 272.576 94.5186 272.572 91.9644V8.18637C272.576 5.63214 273.532 3.18388 275.23 1.37776C276.927 -0.428361 279.229 -1.44514 281.63 -1.44989H385.21C387.611 -1.44514 389.912 -0.428361 391.61 1.37776C393.308 3.18388 394.264 5.63214 394.268 8.18637V91.9644C394.264 94.5186 393.308 96.9668 391.61 98.773C389.912 100.579 387.611 101.596 385.21 101.601V101.601ZM281.63 2.14573C280.125 2.15047 278.684 2.78842 277.62 3.92024C276.556 5.05205 275.956 6.58576 275.952 8.18637V91.9644C275.956 93.565 276.556 95.0987 277.62 96.2305C278.684 97.3623 280.125 98.0003 281.63 98.005H385.21C386.715 98.0003 388.156 97.3623 389.22 96.2305C390.284 95.0987 390.884 93.565 390.888 91.9644V8.18637C390.884 6.58576 390.284 5.05205 389.22 3.92024C388.156 2.78842 386.715 2.15047 385.21 2.14573H281.63Z" fill="#093F68"/>
<path d="M392.545 24.8701H274.245C273.796 24.8701 273.366 24.6807 273.05 24.3435C272.733 24.0064 272.555 23.5491 272.555 23.0723C272.555 22.5955 272.733 22.1382 273.05 21.801C273.366 21.4639 273.796 21.2745 274.245 21.2745H392.545C392.993 21.2745 393.423 21.4639 393.74 21.801C394.057 22.1382 394.235 22.5955 394.235 23.0723C394.235 23.5491 394.057 24.0064 393.74 24.3435C393.423 24.6807 392.993 24.8701 392.545 24.8701Z" fill="#093F68"/>
<path d="M285.585 15.0181C287.461 15.0181 288.981 13.4002 288.981 11.4045C288.981 9.40875 287.461 7.79089 285.585 7.79089C283.708 7.79089 282.188 9.40875 282.188 11.4045C282.188 13.4002 283.708 15.0181 285.585 15.0181Z" fill="#68E1FD"/>
<path d="M296.265 15.0181C298.141 15.0181 299.662 13.4002 299.662 11.4045C299.662 9.40875 298.141 7.79089 296.265 7.79089C294.389 7.79089 292.868 9.40875 292.868 11.4045C292.868 13.4002 294.389 15.0181 296.265 15.0181Z" fill="#093F68"/>
<path d="M306.929 15.0181C308.805 15.0181 310.326 13.4002 310.326 11.4045C310.326 9.40875 308.805 7.79089 306.929 7.79089C305.053 7.79089 303.532 9.40875 303.532 11.4045C303.532 13.4002 305.053 15.0181 306.929 15.0181Z" fill="#093F68"/>
<path d="M318.844 76.0358C318.453 76.0419 318.074 75.8947 317.779 75.6223L301.859 61.5994C301.668 61.4307 301.514 61.2191 301.408 60.9798C301.302 60.7406 301.248 60.4794 301.248 60.215C301.248 59.9506 301.302 59.6895 301.408 59.4502C301.514 59.2109 301.668 58.9994 301.859 58.8307L317.779 44.7898C318.127 44.5213 318.558 44.4041 318.985 44.462C319.412 44.5199 319.801 44.7486 320.075 45.1015C320.348 45.4544 320.485 45.905 320.458 46.3615C320.43 46.8179 320.239 47.246 319.925 47.5584L305.594 60.1431L319.925 72.7278C320.096 72.8787 320.238 73.0641 320.342 73.2732C320.445 73.4824 320.509 73.7113 320.53 73.9468C320.55 74.1822 320.527 74.4197 320.461 74.6455C320.395 74.8713 320.287 75.081 320.145 75.2627C319.998 75.4888 319.804 75.6761 319.579 75.8101C319.353 75.9441 319.102 76.0213 318.844 76.0358Z" fill="#68E1FD"/>
<path d="M348.03 76.0357C347.782 76.0362 347.536 75.9784 347.312 75.8665C347.087 75.7547 346.888 75.5915 346.729 75.3885C346.586 75.2068 346.479 74.9971 346.413 74.7713C346.347 74.5455 346.324 74.308 346.344 74.0726C346.365 73.8371 346.428 73.6082 346.532 73.399C346.636 73.1899 346.777 73.0045 346.948 72.8536L361.28 60.2689L346.948 47.6842C346.778 47.5332 346.636 47.3477 346.533 47.1386C346.429 46.9294 346.366 46.7006 346.345 46.4652C346.325 46.2298 346.348 45.9925 346.414 45.7667C346.48 45.5409 346.587 45.3311 346.729 45.1493C346.871 44.9676 347.045 44.8173 347.242 44.7072C347.438 44.597 347.653 44.5292 347.875 44.5075C348.096 44.4858 348.319 44.5107 348.531 44.5807C348.744 44.6507 348.941 44.7645 349.112 44.9156L364.93 58.8307C365.121 58.9994 365.276 59.2109 365.381 59.4502C365.487 59.6895 365.542 59.9506 365.542 60.215C365.542 60.4794 365.487 60.7405 365.381 60.9798C365.276 61.2191 365.121 61.4306 364.93 61.5993L349.044 75.6941C348.749 75.9211 348.394 76.0409 348.03 76.0357V76.0357Z" fill="#68E1FD"/>
<path d="M324.86 84.3955C324.628 84.3912 324.399 84.3425 324.184 84.2517C323.981 84.1562 323.797 84.0191 323.644 83.8481C323.491 83.6771 323.371 83.4756 323.291 83.2552C323.211 83.0348 323.172 82.7998 323.178 82.5636C323.183 82.3274 323.232 82.0946 323.322 81.8786L341.912 37.0952C342.002 36.879 342.131 36.6839 342.292 36.5208C342.452 36.3577 342.642 36.23 342.849 36.1448C343.056 36.0597 343.277 36.0188 343.499 36.0245C343.721 36.0303 343.94 36.0825 344.143 36.1783C344.346 36.2738 344.53 36.4109 344.683 36.5819C344.836 36.7529 344.956 36.9544 345.036 37.1748C345.116 37.3952 345.155 37.6302 345.149 37.8664C345.144 38.1026 345.095 38.3354 345.005 38.5514L326.415 83.3348C326.28 83.6531 326.062 83.9228 325.786 84.1111C325.51 84.2995 325.188 84.3983 324.86 84.3955V84.3955Z" fill="#68E1FD"/>
<path d="M123.513 207.33H44.8271C41.2523 207.33 38.3544 210.413 38.3544 214.215V252.563C38.3544 256.366 41.2523 259.448 44.8271 259.448H123.513C127.088 259.448 129.986 256.366 129.986 252.563V214.215C129.986 210.413 127.088 207.33 123.513 207.33Z" fill="white"/>
<path d="M123.514 261.264H44.8271C42.6636 261.259 40.5899 260.343 39.0601 258.716C37.5303 257.088 36.6688 254.882 36.6644 252.581V214.215C36.6688 211.914 37.5303 209.708 39.0601 208.081C40.5899 206.453 42.6636 205.537 44.8271 205.532H123.514C124.585 205.532 125.647 205.757 126.637 206.193C127.628 206.629 128.527 207.269 129.285 208.075C130.043 208.882 130.645 209.839 131.055 210.892C131.465 211.946 131.676 213.075 131.676 214.215V252.581C131.676 254.884 130.816 257.092 129.285 258.721C127.755 260.349 125.678 261.264 123.514 261.264V261.264ZM44.8271 209.128C43.5586 209.128 42.3421 209.664 41.4452 210.618C40.5483 211.572 40.0444 212.866 40.0444 214.215V252.581C40.0444 253.93 40.5483 255.224 41.4452 256.178C42.3421 257.132 43.5586 257.669 44.8271 257.669H123.514C124.142 257.669 124.764 257.537 125.344 257.281C125.924 257.026 126.451 256.651 126.895 256.178C127.34 255.706 127.692 255.145 127.932 254.528C128.172 253.91 128.296 253.249 128.296 252.581V214.215C128.296 213.547 128.172 212.886 127.932 212.268C127.692 211.651 127.34 211.09 126.895 210.618C126.451 210.145 125.924 209.771 125.344 209.515C124.764 209.259 124.142 209.128 123.514 209.128H44.8271Z" fill="#093F68"/>
<path d="M57.0965 225.47H59.6484V231.546H66.4084V225.47H68.9603V240.751H66.4084V234.009H59.6484V240.751H57.0965V225.47Z" fill="#68E1FD"/>
<path d="M75.0612 227.933H70.6503V225.47H82.0071V227.933H77.63V240.751H75.0781L75.0612 227.933Z" fill="#68E1FD"/>
<path d="M83.8154 225.47H87.77L91.6063 236.167L95.4764 225.47H99.3296V240.751H96.896V228.059L92.5358 240.751H90.643L86.2997 228.059V240.751H83.8661L83.8154 225.47Z" fill="#68E1FD"/>
<path d="M102.541 225.47H105.092V238.288H111.193V240.751H102.541V225.47Z" fill="#68E1FD"/>
</g>
<defs>
<clipPath id="clip0">
<rect width="402" height="307" fill="white"/>
</clipPath>
</defs>
</svg>
