<svg width="1192" height="74" viewBox="0 0 1192 74" fill="none" xmlns="http://www.w3.org/2000/svg">
<path d="M35 16.4999C12 23.4999 13.6684 34.1747 0 45.4999L1.5 53.4999L4.5 60.9999L14.5 69.4999L25 73.9999H1166.5L1175.5 70.4999L1184 63.4999L1189 55.4999L1191.5 42.4999L1190.5 3.4999C1190.5 3.4999 1169.72 -2.53522 1159 3.4999C1138.76 14.8947 1189.69 61.132 1166.5 62.4999C1151.22 63.4016 1150.41 41.9907 1135.5 38.4999C1113.55 33.3599 1105.39 65.1361 1083 62.4999C1065.07 60.3892 1061.55 38.8482 1043.5 38.4999C1022.71 38.0986 1020.1 71.3496 999.5 68.4999C980.624 65.8888 984.439 35.6101 965.5 33.4999C944.131 31.1189 944.423 66.6663 923 68.4999C894.248 70.9609 899.341 17.4532 870.5 16.4999C842.364 15.5699 843.099 64.2062 815 62.4999C791.803 61.0913 791.212 27.1295 768 25.9999C741.348 24.703 741.17 67.67 714.5 68.4999C689.218 69.2866 685.217 31.5219 660 33.4999C639.646 35.0964 636.673 65.645 616.5 62.4999C601.676 60.1887 600.22 44.5724 586.5 38.4999C556.999 25.4424 535.123 63.5512 505 51.9999C492.611 47.2488 490.667 24.9999 476.5 33.4999L427.5 62.4999C422.3 65.2999 411 52.3332 406 45.4999C401 38.6666 354.534 69.9976 324 58.9999C307.641 53.1076 304.825 34.9765 287.5 33.4999C266.505 31.7105 262.813 65.7868 242 62.4999C226.877 60.1116 226.308 38.2559 211 38.4999C195.998 38.739 195.798 64.9724 181 62.4999C168.589 60.4263 171.705 41.562 159.5 38.4999C143.268 34.4276 140.642 64.2608 124 62.4999C109.53 60.9688 110.044 38.0577 95.5 38.4999C79.7454 38.979 83.9834 65.55 68.5 68.4999C44.7703 73.0209 58 9.4999 35 16.4999Z" fill="url(#paint0_linear)"/>
<defs>
<linearGradient id="paint0_linear" x1="0" y1="37.4088" x2="1191.5" y2="37.4088" gradientUnits="userSpaceOnUse">
<stop stop-color="#C02425"/>
<stop offset="1" stop-color="#F0CB35"/>
</linearGradient>
</defs>
</svg>
